<?xml version="1.0" encoding="utf-8"?>
<svg width="1366" height="1024" viewBox="-683 -512 1366 1024" xmlns="http://www.w3.org/2000/svg">
  <style>
svg { background-color:#002762; }

#looom {
--version:2; --tempo:60; --musicTime:0; 
}

#t0 {
--visible:1; --timeOffset:3.666665; --speed:12; --bookmarkIndex:-1; --latched:0; --playMode:0; --masked:0; --blendMode:0; --pressureEnabled:0; 
stroke:#BF2F00; stroke-opacity:1; fill-opacity:0; stroke-width:21.51271; stroke-linecap:round; stroke-linejoin:round;
}
@keyframes t0 { 0% { opacity: 1; } 100% { opacity: 0; } }
#t0 .frame { animation:t0 0.08333334s calc(var(--index) * 0.08333334s) steps(1) infinite; }

#t1 {
--visible:1; --timeOffset:6.000003; --speed:12; --bookmarkIndex:-1; --latched:0; --playMode:0; --masked:0; --blendMode:0; --pressureEnabled:0; 
stroke:#E10900; stroke-opacity:1; fill-opacity:0; stroke-width:39.79086; stroke-linecap:round; stroke-linejoin:round;
}
@keyframes t1 { 0% { opacity: 1; } 8.333333% { opacity: 0; } }
#t1 .frame { animation:t1 1s calc(var(--index) * 0.08333334s) steps(1) infinite; }

#t2 {
--visible:1; --timeOffset:5.000001; --speed:12; --bookmarkIndex:-1; --latched:0; --playMode:0; --masked:0; --blendMode:0; --pressureEnabled:0; 
stroke:#FF8428; stroke-opacity:1; fill-opacity:0; stroke-width:30.94346; stroke-linecap:round; stroke-linejoin:round;
}
@keyframes t2 { 0% { opacity: 1; } 8.333333% { opacity: 0; } }
#t2 .frame { animation:t2 1s calc(var(--index) * 0.08333334s) steps(1) infinite; }

#t3 {
--visible:1; --timeOffset:3.999999; --speed:12; --bookmarkIndex:-1; --latched:0; --playMode:0; --masked:0; --blendMode:0; --pressureEnabled:0; 
stroke:#FFA002; stroke-opacity:1; fill-opacity:0; stroke-width:30.94346; stroke-linecap:round; stroke-linejoin:round;
}
@keyframes t3 { 0% { opacity: 1; } 8.333333% { opacity: 0; } }
#t3 .frame { animation:t3 1s calc(var(--index) * 0.08333334s) steps(1) infinite; }

#t4 {
--visible:1; --timeOffset:2; --speed:12; --bookmarkIndex:-1; --latched:0; --playMode:0; --masked:0; --blendMode:0; --pressureEnabled:0; 
stroke:#FF9F00; stroke-opacity:1; fill-opacity:0; stroke-width:4.887376; stroke-linecap:round; stroke-linejoin:round;
}
@keyframes t4 { 0% { opacity: 1; } 8.333333% { opacity: 0; } }
#t4 .frame { animation:t4 1s calc(var(--index) * 0.08333334s) steps(1) infinite; }

</style>
  <g id="w0" transform="translate(325.25 219.00) scale(0.93 0.93) rotate(-358.35)" class="weave">
    <g id="t0" transform="translate(-344.25 -136.00)" class="thread">
      <g id="f0" style="--index:0; opacity:1;" class="frame">
        <path d="M-15.03,86.77L-12.86,88.22L-22.05,90.81L-32.59,97.59" />
        <path d="M-32.59,97.59L-44.11,109.19L-46.17,112.91L-42.71,112.84L-31.54,107.74L-22.78,102.36L-12.13,93.33L-9.34,89.95L-7.69,85.56L-9.40,84.84L-14.44,85.56L-20.99,88.95L-32.59,97.59" />
        <path d="M-32.59,97.59L-38.35,103.81L-39.00,105.55L-35.71,105.02L-23.85,98.44L-13.51,90.81L-8.02,84.84L-10.34,84.64L-24.30,92.66" />
        <path d="M-24.30,92.66L-31.93,99.38L-24.30,92.66" />
        <path d="M-24.30,92.66L-23.51,91.88" />
        <path d="M-4.84,92.20L-4.50,95.25L-6.02,107.80L-6.02,123.39L-3.59,111.45L-1.86,96.39L-1.21,109.52L0.73,97.99" />
        <path d="M10.65,89.55L15.55,96.92L30.45,112.52L11.32,88.95L32.18,105.61L37.14,108.20L34.75,103.55" />
        <path d="M29.66,84.11L46.54,94.33L53.17,96.39L67.99,98.78L65.93,97.23" />
        <path d="M65.93,97.23L55.94,92.94L38.00,87.09L46.34,91.02L65.93,97.23" />
        <path d="M65.93,97.23L66.41,97.42" />
        <path d="M66.41,97.42L67.26,97.72L66.41,97.42" />
        <path d="M66.41,97.42L56.95,93.27" />
        <path d="M-26.03,81.86L-35.89,82.25L-62.77,88.05" />
        <path d="M-62.77,88.05L-62.26,89.28L-59.68,90.14L-53.23,90.61L-42.13,89.95L-37.62,88.42L-38.87,87.50L-47.29,87.09L-62.77,88.05" />
        <path d="M-62.77,88.05L-67.28,89.81L-62.91,89.55L-58.15,87.50L-55.63,85.64L-63.39,86.97L-69.47,91.20" />
        <path d="M48.40,84.84L49.13,81.92L58.23,82.39" />
        <path d="M58.23,82.39L64.74,81.59L58.23,82.39" />
        <path d="M58.23,82.39L48.81,84.49" />
        <path d="M48.81,84.49L35.14,86.63L42.44,86.17L48.81,84.49" />
        <path d="M48.81,84.49L58.86,81.06L57.07,79.74" />
        <path d="M63.43,84.78L64.82,87.42L80.58,89.02L97.07,93.74L95.01,91.47L65.95,82.45L84.54,88.89" />
        <path d="M61.63,99.30L64.10,103.35" />
        <path d="M64.10,103.35L77.46,118.75L73.16,112.38L64.10,103.35" />
        <path d="M64.10,103.35L55.42,96.58L53.76,96.45L56.34,99.64L69.12,109.33L71.24,110.52L72.16,110.25" />
        <path d="M41.83,110.99L51.90,131.81L42.56,114.83L41.37,113.77L41.71,117.81L45.75,124.58L49.80,129.56L48.46,127.11" />
        <path d="M19.72,109.45L20.20,117.02L17.07,135.41L16.55,136.86L15.70,135.86L16.01,125.31L17.53,116.30L18.07,124.39" />
        <path d="M-41.52,92.88L-49.73,98.44L-61.99,105.14L-76.08,115.63L-77.08,116.95L-71.79,115.50L-57.55,107.86L-54.90,105.34L-59.01,105.88L-74.64,114.44" />
        <path d="M-16.03,117.49L-16.82,121.00L-19.28,124.45L-32.66,140.78" />
        <path d="M-6.50,131.55L-7.23,151.99" />
        <path d="M81.89,105.14L100.17,120.61L105.53,123.52" />
        <path d="M-45.56,115.56L-46.69,118.88L-65.89,136.47" />
      </g>
    </g>
    <g id="t1" transform="translate(-344.25 -136.00)" class="thread">
      <g id="f0" style="--index:0; opacity:1;" class="frame">
        <path d="M45.36,66.86L48.40,68.25L51.57,68.39L56.86,65.86L64.22,60.09L73.22,50.34L82.83,37.53L88.98,26.05L90.11,22.00L89.52,16.03L86.06,15.50L84.21,16.30L68.60,30.03L52.57,46.56L42.83,59.63L39.64,66.00L39.19,69.19L43.69,67.66L46.81,64.27L49.71,60.30L53.03,52.80" />
        <path d="M33.83,67.13L35.56,58.17L35.14,40.25L33.62,32.03L27.26,15.38L23.49,8.47L16.15,-1.02L13.11,-2.88L8.34,-3.14L6.82,-1.42L4.90,4.42L4.63,21.14L8.34,44.03L12.78,58.56L14.09,60.48L16.49,61.16L17.68,58.63L18.47,49.47L17.61,41.91L13.24,32.03L10.32,30.36L8.86,32.89" />
        <path d="M10.71,70.97L9.59,67.34" />
        <path d="M9.59,67.34L-3.65,56.38L-22.12,46.36L-32.12,42.64L-35.37,42.25L-38.35,43.77L-38.48,46.95L-34.18,52.98L-27.01,58.17L-22.39,60.48L-13.51,63.55L9.59,67.34" />
        <path d="M9.59,67.34L18.13,70.25" />
      </g>
      <g id="f1" style="--index:1; opacity:0;" class="frame">
        <path d="M48.52,67.25L51.55,68.54" />
        <path d="M51.55,68.54L57.34,67.66L61.84,65.33L78.33,52.45L88.40,39.98L90.71,36.00L92.23,30.17L89.71,28.52L84.15,29.30L74.81,34.14L52.76,50.88L45.21,58.56L40.25,65.74L38.73,69.05L38.21,73.56L39.19,74.49L44.63,73.89L51.55,68.54" />
        <path d="M51.55,68.54L57.47,63.08L64.43,54.25" />
        <path d="M36.14,66.39L40.65,65.94L42.63,63.81L44.23,60.22L47.34,48.34L49.38,30.97L49.32,21.73L47.46,12.84L40.71,-1.61L31.70,-7.66L27.20,-7.92L20.20,-4.86L17.34,-1.61L14.42,4.30L12.71,12.52L12.17,26.66L12.17,34.41L14.09,48.81L15.55,53.98L18.93,60.16L20.84,61.22L22.91,61.16L27.81,53.13L30.79,43.03L32.18,31.83L31.64,22.00L28.87,16.23L24.28,14.58L22.12,16.89L19.38,25.33L18.01,37.00" />
        <path d="M9.13,70.31L8.16,68.22" />
        <path d="M8.16,68.22L4.96,61.36L-1.40,54.72L-9.82,48.75L-16.09,45.36L-27.68,41.98L-32.00,41.84L-35.16,42.58L-37.81,47.22L-37.41,53.59L-35.83,56.70L-29.99,62.67L-23.32,65.94L-14.38,68.05L-7.63,68.58L8.16,68.22" />
        <path d="M8.16,68.22L17.68,67.72" />
      </g>
      <g id="f2" style="--index:2; opacity:0;" class="frame">
        <path d="M48.34,68.39L53.17,69.52L63.16,63.61L75.48,53.52L88.79,39.33L93.69,31.36L94.42,28.11L94.09,24.06L91.11,21.14L83.50,20.28L77.73,22.73L64.62,33.28L59.11,38.72L50.78,49.08L46.48,58.56L46.21,62.22L47.34,65.00L48.46,65.47L49.71,65.53L51.71,63.94" />
        <path d="M32.89,64.20L39.46,63.81L43.17,58.44L46.61,47.42L47.21,34.28L43.50,20.75L38.21,10.86L31.97,2.23L28.20,-1.28L21.57,-4.73L16.74,-4.08L14.88,-1.75L13.11,6.41L13.03,14.58L15.70,30.44L20.32,46.89L23.82,53.66L25.28,55.38L27.99,56.64" />
        <path d="M24.49,66.92L28.20,66.59L28.08,64.47L24.10,58.36L12.57,48.88L3.23,43.77L-9.21,39.92L-14.72,39.39L-22.26,40.39L-24.24,42.05L-25.70,48.55L-22.72,53.06L-20.01,55.52L-12.71,60.89L-8.15,63.20L2.04,66.45L7.27,67.06L16.67,67.06L24.22,65.86" />
      </g>
      <g id="f3" style="--index:3; opacity:0;" class="frame">
        <path d="M53.09,67.33L55.15,70.25L56.40,70.64L58.99,70.52L62.91,67.66L75.29,55.11L82.10,46.95L89.44,36.08L91.17,32.22L91.96,27.25L91.17,25.72L87.73,24.80L80.64,26.98L71.31,32.63L62.30,39.72L53.03,49.73L50.19,53.98L47.67,60.30L48.34,65.06L49.59,65.47L52.63,64.67L55.74,61.22L58.13,56.70" />
        <path d="M33.95,60.83L36.87,59.56L40.85,52.27L44.56,39.45L45.29,31.83L43.75,16.36L39.64,6.67L34.50,-0.55L31.18,-3.41L24.82,-4.86L18.99,0.11L15.70,6.94L13.63,15.91L13.11,22.14L13.69,36.20L17.28,49.41L19.86,54.05L23.70,57.03L25.16,57.17L26.87,55.78" />
        <path d="M19.66,62.41L24.70,63.34L25.10,61.02L23.64,56.52L17.01,48.34L11.90,44.30L-0.27,37.94L-6.44,36.14L-19.95,35.02L-24.57,38.06L-25.64,40.39L-25.76,46.16L-24.45,48.88L-20.93,52.80L-15.36,56.52L-7.57,59.36L1.38,61.42L25.55,64.20" />
      </g>
      <g id="f4" style="--index:4; opacity:0;" class="frame">
        <path d="M27.20,65.33L31.06,66.13L33.10,64.94L51.44,47.88L57.28,40.84L59.99,35.55L60.05,33.28L58.72,32.42L55.21,32.63L51.57,34.61L43.79,40.92" />
        <path d="M43.79,40.92L31.37,53.52L22.03,66.53L28.26,61.09L37.21,51.00L43.79,40.92" />
        <path d="M43.79,40.92L44.48,38.27L43.35,38.19L39.25,40.98L23.37,56.70L17.80,60.56" />
        <path d="M7.94,61.55L9.59,59.56L9.34,46.83L2.77,2.70L1.98,2.36L1.31,3.50L-1.46,13.52L-2.79,25.92L-2.98,39.90" />
        <path d="M-2.98,39.90L-2.46,49.20L-1.06,54.72L-1.21,48.02L-2.98,39.90" />
        <path d="M-2.98,39.90L-4.98,35.81L-6.23,35.55L-6.84,41.58L-6.50,56.11" />
        <path d="M-14.97,57.38L-15.90,53.25L-24.30,45.36L-37.81,35.55L-44.65,33.22L-45.11,34.48L-42.71,38.45L-22.93,56.70L-45.23,39.19L-48.21,37.73L-49.86,37.80L-49.67,40.31L-47.48,43.97L-40.73,51.80L-31.27,59.89L-24.45,64.41L-25.64,61.61L-29.99,56.84" />
      </g>
      <g id="f5" style="--index:5; opacity:0;" class="frame">
        <path d="M39.85,71.83L43.56,73.24L48.19,73.16L57.01,70.31L66.93,63.08L69.45,59.95L69.66,57.44L66.01,56.31L53.42,56.97L43.90,59.16L36.21,62.02L34.75,63.34L35.05,65.37" />
        <path d="M35.05,65.37L39.06,67.19L43.17,67.25L49.13,66.06L54.36,63.28L55.74,61.55L51.57,61.48L35.05,65.37" />
        <path d="M35.05,65.37L25.49,67.99" />
        <path d="M32.04,57.77L34.35,54.66L38.00,44.89L41.58,30.36L42.10,18.03L39.98,10.72L37.60,7.73L35.23,7.34L32.04,9.67L25.68,18.75L18.38,35.74" />
        <path d="M18.38,35.74L13.90,50.47L12.96,56.97L17.07,51.59L22.37,39.39L22.84,33.34L21.05,32.95L18.38,35.74" />
        <path d="M18.38,35.74L10.53,48.55" />
        <path d="M1.19,52.33L2.17,47.22L1.19,44.36L-6.96,30.50L-15.84,21.55L-22.99,16.17L-29.74,12.13L-34.83,10.39L-39.54,10.66L-40.06,13.78L-39.14,17.36L-32.39,27.58L-15.11,50.14L-13.84,52.53L-14.63,52.33L-20.59,44.83L-20.47,48.34" />
        <path d="M-20.47,61.42L-17.43,62.34L-18.61,60.89L-27.95,57.30L-37.29,54.84L-46.17,54.19L-49.21,54.19L-54.84,57.03L-55.69,61.36L-52.44,64.00L-45.84,65.74L-36.75,66.00L-18.68,65.00" />
      </g>
      <g id="f6" style="--index:6; opacity:0;" class="frame">
        <path d="M34.16,67.19L38.52,67.59L53.17,53.52L62.43,43.11L67.93,34.28L69.18,28.77L65.74,28.97L53.23,37.59L39.39,49.34L32.77,56.05L31.12,58.50L30.64,60.95L33.89,61.88L35.56,61.75L39.33,58.77L39.79,56.58L39.06,55.98" />
        <path d="M11.11,57.30L13.90,57.03L14.63,49.73L14.97,29.03L12.38,16.50L8.92,9.47L7.61,8.41L5.48,8.73L3.56,13.05L2.11,20.81L1.56,31.55" />
        <path d="M1.56,31.55L1.71,44.63L3.04,50.94L3.38,40.52L1.56,31.55" />
        <path d="M1.56,31.55L-0.54,25.78L-5.50,18.30L-6.75,18.03L-7.75,19.02L-8.36,21.94L-8.42,30.44L-2.40,52.00" />
        <path d="M-5.84,64.34L-7.09,61.02L-19.07,52.13L-34.98,42.97L-41.58,40.31L-46.96,39.59L-48.67,40.58L-48.42,44.83L-36.27,55.18" />
        <path d="M-36.27,55.18L-22.32,65.74L-16.36,68.92L-17.36,65.67L-24.12,58.89L-32.39,55.19L-36.27,55.18" />
        <path d="M-36.27,55.18L-38.29,57.30L-38.48,58.83" />
      </g>
      <g id="f7" style="--index:7; opacity:0;" class="frame">
        <path d="M42.56,74.89L45.28,74.99" />
        <path d="M45.28,74.99L54.94,72.70L63.36,68.84L76.20,60.48L78.27,58.30L78.85,55.38L77.33,54.39L72.43,53.86L63.95,54.52L47.73,59.69L37.54,65.14L32.97,68.92L30.58,72.17L29.93,76.41L31.58,78.00L36.68,78.47L40.06,77.74L45.28,74.99" />
        <path d="M45.28,74.99L50.44,70.84L51.78,68.84L51.84,67.33" />
        <path d="M16.95,68.13L19.86,66.92L21.39,63.67L29.60,36.53L30.72,16.97L29.26,12.45L25.83,12.39L19.47,18.48L12.97,29.66" />
        <path d="M12.97,29.66L8.80,40.25L6.42,50.27L5.69,58.50L6.54,63.02L9.34,62.48L11.32,59.63L14.97,50.61L16.09,45.50L16.55,35.14L14.63,30.56L12.97,29.66" />
        <path d="M12.97,29.66L11.26,29.64L6.09,34.14" />
        <path d="M-12.86,65.80L-30.33,49.94L-42.31,42.58L-50.86,40.25L-53.17,40.52L-53.78,41.78L-53.44,44.70L-51.86,47.16L-46.29,52.72L-40.00,57.23L-28.68,63.02L-12.13,68.39L0.19,73.69L-4.31,69.91" />
      </g>
      <g id="f8" style="--index:8; opacity:0;" class="frame">
        <path d="M33.10,74.83L35.48,73.83L39.00,69.45L53.69,47.16L62.18,32.03L64.22,25.66L64.49,19.48L62.97,18.09L61.30,17.95L58.93,18.69L49.52,27.11L39.25,40.19L31.52,53.98L27.87,64.61L27.81,67.25L30.52,68.52L33.10,67.13L36.41,63.88L43.90,52.72L45.69,46.48L42.90,47.75L38.73,52.39" />
        <path d="M9.98,66.27L13.11,64.80L13.63,56.38L13.11,50.53L10.38,40.72L4.36,26.52L-5.04,9.14L-6.84,6.61L-8.55,5.28L-8.82,5.88L-8.55,19.22L-6.36,31.50L-1.86,49.14L2.04,59.95L5.88,67.13L8.86,69.38L8.86,62.22L6.27,53.66L3.77,48.88L0.13,46.03" />
        <path d="M8.61,69.25L4.42,64.41L0.33,61.55L-4.71,58.70L-24.76,50.14L-36.29,47.36L-42.13,47.81L-44.65,50.14L-45.69,53.59L-45.77,57.44L-43.92,61.28L-41.85,63.61L-35.16,67.59L-27.95,69.05L1.13,68.84L7.77,71.03" />
        <path d="M7.77,71.03L8.67,71.44L7.77,71.03" />
        <path d="M7.77,71.03L-1.00,63.94" />
      </g>
      <g id="f9" style="--index:9; opacity:0;" class="frame">
        <path d="M29.93,85.64L35.29,87.03L38.12,86.97L51.96,81.25L63.03,74.36L71.91,67.25L77.79,61.16L81.04,55.91L81.10,50.27L75.02,48.88L68.85,50.88L55.28,58.17L40.25,68.84L36.08,73.77L33.95,77.47L33.56,79.80L34.02,80.80L35.81,80.86L44.48,77.08L53.82,69.38L56.28,65.59" />
        <path d="M19.32,80.39L22.24,80.39L23.97,78.67L25.41,74.83L28.08,62.55L30.12,44.97L29.12,27.58L27.74,22.34L24.22,14.38L20.84,10.86L17.34,9.20L14.69,9.00L10.78,10.86L5.82,22.41L4.75,29.03L4.02,49.55L4.90,59.23L6.61,67.19L8.07,71.24L11.26,75.75L13.57,76.22L15.88,72.50L17.01,67.99L17.40,60.30L16.40,52.72L12.90,45.69L10.38,44.03L8.86,43.97L7.27,46.63L6.27,56.44" />
        <path d="M3.44,78.47L-2.13,71.83L-20.07,61.48L-33.06,56.11L-41.25,55.52L-44.04,56.58L-49.34,62.55L-50.07,68.84L-44.44,75.42L-40.27,78.14L-28.08,82.92L-20.47,84.38L6.15,86.97L7.27,86.97L6.48,84.11" />
      </g>
      <g id="f10" style="--index:10; opacity:0;" class="frame">
        <path d="M37.27,74.30L39.64,75.95L41.44,76.02L46.27,72.63L56.28,60.30L69.78,38.92L74.56,27.98L75.29,19.69L72.89,18.75L67.87,21.08L53.09,35.14L40.58,49.88L34.02,59.36L27.93,70.52L27.47,72.97L28.93,73.63L35.14,68.99L44.08,58.56L51.44,45.63L51.44,42.31" />
        <path d="M18.26,67.06L21.91,65.74L24.28,61.22L25.68,43.17L23.89,29.77L19.47,16.83L13.17,5.34L8.92,-0.55L3.23,-5.80L1.46,-6.00L-0.21,-0.09L0.19,10.66L5.99,47.61" />
        <path d="M5.99,47.61L9.34,66.59L9.46,54.84L8.53,48.14L5.96,40.72L5.99,47.61" />
        <path d="M5.99,47.61L7.67,56.84" />
        <path d="M0.40,69.38L3.90,70.25L2.71,66.99L-5.57,59.09L-13.65,53.52L-29.01,45.50L-33.98,43.77L-41.00,43.11L-43.19,44.50L-44.77,46.95L-46.36,53.78L-45.77,61.36L-43.58,66.00L-38.14,71.50L-36.10,72.63L-26.70,74.75L-17.30,74.49L1.46,68.92L2.17,68.39L0.79,66.19L-1.27,65.14" />
      </g>
      <g id="f11" style="--index:11; opacity:0;" class="frame">
        <path d="M37.33,74.69L41.19,74.89L43.63,74.03L54.42,66.53L64.89,56.97L79.85,39.25L82.83,34.61L85.94,27.05L86.21,24.45L84.81,21.41L82.17,21.28L71.37,26.39L50.19,43.64L36.81,59.42L33.50,64.41L32.18,68.25L34.56,68.58L37.54,67.13L45.36,60.75L53.69,51.27" />
        <path d="M23.37,68.45L27.08,66.13L29.20,62.75L32.43,54.98L35.48,43.83L37.00,31.56L36.54,19.16L34.68,11.33L29.72,-0.69L27.35,-3.55L22.30,-5.27L20.11,-4.41L15.95,2.09L13.03,10.45L10.32,27.78L9.73,48.28L11.51,59.42L13.44,61.22L14.76,60.89L17.80,54.78L18.80,43.77L17.68,41.72" />
        <path d="M6.15,63.55L9.53,64.00L9.98,62.02L9.13,59.42L3.50,52.00L-1.21,47.69L-12.65,40.72L-20.99,36.88L-26.22,34.94L-32.72,33.81L-38.14,34.81L-39.67,36.94L-40.33,43.17L-39.21,48.55L-37.23,52.45L-32.97,57.56L-27.10,62.55L-20.26,66.53L-10.40,70.31L5.96,73.89" />
      </g>
    </g>
    <g id="t2" transform="translate(-344.25 -136.00)" class="thread">
      <g id="f0" style="--index:0; opacity:1;" class="frame">
        <path d="M44.08,71.83L46.73,72.89L48.40,71.64L58.65,62.67L63.16,57.50L67.33,49.73L67.60,46.89L66.35,45.23L60.84,45.30L56.34,47.75L47.13,55.91L40.12,65.67L38.39,69.91L38.67,74.75L39.92,74.89L41.19,73.77L41.77,70.78" />
        <path d="M28.66,71.91L31.58,71.30L33.22,67.99L32.43,55.64L26.41,42.52L21.18,35.94L15.03,31.23L12.90,30.70L10.13,32.83L9.40,35.81L9.53,47.02L11.78,54.31L16.49,62.48L19.47,64.67" />
        <path d="M19.86,72.63L16.15,68.66L3.04,63.02L-1.94,61.81L-10.46,61.22L-13.26,61.81L-15.90,65.20L-15.90,67.52L-14.05,71.91L-10.86,74.49L-3.13,76.34L4.23,75.81L13.30,72.83" />
      </g>
      <g id="f1" style="--index:1; opacity:0;" class="frame">
        <path d="M36.94,77.02L42.44,77.47L45.48,76.81L49.19,74.49L54.49,70.17L63.95,59.69L67.53,53.72L67.87,51.59L66.47,50.88L60.51,52.06L55.61,54.45L46.15,60.83L42.10,64.41L36.81,72.03L36.60,75.09L37.27,76.02L40.19,76.41L41.98,75.81L44.63,71.77" />
        <path d="M30.72,72.56L35.35,72.70L37.81,71.50L39.12,69.05L41.25,60.69L41.65,48.88L37.00,36.08L29.26,27.78L25.10,25.59L21.51,25.66L17.95,30.36L15.70,41.31L15.70,45.83L17.34,55.11L22.12,65.06L26.08,68.84" />
        <path d="M20.78,72.97L21.64,68.39L18.66,64.34L11.44,58.97L0.52,54.92L-4.90,54.39L-9.82,55.64L-11.80,58.36L-12.38,63.81L-11.26,68.19L-8.94,71.11L-4.98,73.63L0.19,75.16L12.96,75.69L22.57,74.69" />
      </g>
      <g id="f2" style="--index:2; opacity:0;" class="frame">
        <path d="M43.63,73.77L46.67,76.41L50.84,75.28L58.07,68.25L65.95,55.58L67.41,51.73L68.33,45.77L68.33,43.50L65.55,40.84L61.70,40.58L58.20,42.58L52.76,47.95L47.07,56.25L43.63,66.27L43.50,70.38L44.02,69.52" />
        <path d="M29.72,70.97L34.62,71.24L35.35,68.52L34.50,62.55L27.53,52.86L19.99,45.30L14.97,41.64L11.26,40.72L9.65,41.11L7.88,45.16L7.40,52.27L8.07,55.58L9.73,58.70L11.90,61.02L16.34,62.94" />
        <path d="M1.13,64.00L-1.52,64.94L-15.17,64.14L-18.01,65.80L-19.07,70.78L-16.82,74.89L-14.51,76.55L-8.42,78.67L0.33,78.61L7.00,74.75" />
      </g>
      <g id="f3" style="--index:3; opacity:0;" class="frame">
        <path d="M50.19,65.14L57.99,65.59L61.45,64.14L67.72,58.63L72.70,52.00L75.60,45.36L76.14,41.05L75.60,37.53L74.02,35.94L69.91,35.02L60.05,40.39L47.86,53.98L43.63,60.69L41.58,65.74L40.98,69.58L41.04,72.44L42.23,73.09L44.02,72.77L46.09,69.64L47.46,65.20" />
        <path d="M32.37,68.05L36.21,67.59L38.12,64.14L39.00,52.13L38.46,46.48L35.23,35.61L28.20,24.72L25.49,22.80L24.03,22.73L21.45,25.92L20.11,30.30L19.26,46.83L21.39,54.25" />
        <path d="M18.13,59.83L16.40,57.50L5.54,53.06L-5.04,52.00L-8.21,54.13L-8.69,58.03L-6.96,62.55L-5.04,64.80L-0.21,68.13L8.46,69.11L15.36,66.39" />
      </g>
      <g id="f4" style="--index:4; opacity:0;" class="frame">
        <path d="M24.37,70.25L28.95,69.90" />
        <path d="M28.95,69.90L34.23,67.25L39.58,63.02L43.96,58.17L47.67,50.80L48.00,46.89L47.00,45.83L44.88,45.50L37.73,48.02L25.35,58.36L19.78,65.00L16.82,70.84L16.67,73.56L17.86,74.22L21.78,74.22L28.95,69.90" />
        <path d="M28.95,69.90L35.35,64.67L40.98,58.03L42.71,54.45L42.83,52.39L41.10,51.80L37.54,52.59L29.79,57.64" />
        <path d="M-0.73,66.66L1.98,66.06L3.38,63.20L3.96,53.45L3.11,46.95L1.25,40.13L-1.86,32.75L-4.31,28.70L-6.29,27.45L-7.15,39.45L-5.90,50.61L-3.52,60.09L-1.94,63.74L-2.19,61.28" />
        <path d="M-10.21,62.41L-9.61,58.89L-13.19,55.31L-17.09,52.80L-24.57,49.81L-25.43,49.73L-26.95,51.80L-23.24,57.38L-9.55,67.19" />
      </g>
      <g id="f5" style="--index:5; opacity:0;" class="frame">
        <path d="M26.68,68.39L31.31,68.60" />
        <path d="M31.31,68.60L39.06,68.05L43.23,66.39L46.94,63.74L48.00,60.63L45.42,59.23L42.38,59.23L35.14,62.02L27.47,67.06L26.08,68.99L26.28,71.70L28.72,72.24L30.85,70.78L31.31,68.60" />
        <path d="M31.31,68.60L31.24,67.39" />
        <path d="M4.42,72.70L8.34,72.09L10.78,69.25L12.78,63.41L13.30,51.59L12.44,48.02L9.86,42.38L7.80,39.86L4.75,38.98L2.71,42.70L1.19,50.73L1.52,65.41" />
        <path d="M-10.00,67.33L-6.90,69.11L-6.84,68.52L-11.34,64.74L-20.47,60.42L-28.81,58.03L-32.72,57.83L-34.91,58.77L-35.77,62.55L-35.10,65.74L-33.25,67.86L-27.22,70.91L-20.34,72.09L-12.65,72.30" />
      </g>
      <g id="f6" style="--index:6; opacity:0;" class="frame">
        <path d="M21.57,75.61L24.03,76.34L25.95,75.02L36.48,63.28L44.63,53.13L46.48,49.81L44.36,50.14L37.21,55.52L26.62,65.27L23.70,69.11L22.24,72.30L22.03,75.02L24.37,75.75L26.35,72.50" />
        <path d="M2.25,72.70L4.63,69.84L4.96,60.42L2.11,51.41L-1.13,44.63L-7.30,35.08L-9.88,35.34L-10.61,45.30L-7.30,58.44L-4.44,64.20L-1.46,67.99" />
        <path d="M-12.19,65.67L-8.88,66.33L-9.34,65.00L-17.09,60.16L-24.91,58.23L-30.81,58.09L-33.45,60.95L-32.45,67.72L-29.81,70.64L-25.97,73.16L-21.39,74.75L-12.92,74.89L-9.48,73.30L-9.40,72.17" />
      </g>
      <g id="f7" style="--index:7; opacity:0;" class="frame">
        <path d="M26.68,78.61L29.00,79.72" />
        <path d="M29.00,79.72L30.85,79.94L41.25,74.30L49.65,66.80L51.17,62.88L44.17,62.28L30.06,68.25L24.70,71.91L21.57,75.02L20.59,76.94L20.45,79.74L21.32,80.66L24.62,81.33L27.68,80.80L29.00,79.72" />
        <path d="M29.00,79.72L31.70,76.75L32.18,73.30" />
        <path d="M9.40,81.06L12.24,79.53L13.17,74.56L13.24,70.31L11.65,60.69L6.21,46.83L2.25,41.25L1.38,41.11L-0.33,43.11L-1.86,51.00L-1.73,61.95L-0.08,73.77" />
        <path d="M-7.15,73.56L-9.73,69.05L-22.12,60.75L-26.95,58.77L-30.27,58.50L-32.79,59.77L-34.43,64.61L-33.64,69.38L-29.20,73.77L-24.91,75.81L-18.22,76.81L-11.13,76.81" />
      </g>
      <g id="f8" style="--index:8; opacity:0;" class="frame">
        <path d="M20.84,82.13L26.01,81.66L36.08,71.64L46.00,59.83L48.46,55.98L50.38,49.47L46.34,48.67L39.12,53.86L33.77,59.42L28.47,67.92L27.01,75.02L27.14,76.75L28.26,75.22" />
        <path d="M14.15,81.78L17.53,80.92L17.01,74.49L12.51,64.61L7.34,57.44L-0.67,49.81L-3.13,49.08L-3.38,51.67L-1.13,58.63L6.02,72.24" />
        <path d="M2.65,80.45L5.82,81.33L6.21,80.86L5.02,79.27L-0.33,75.16L-6.50,72.30L-18.09,69.11L-21.72,68.78L-25.58,69.64L-25.89,71.38L-23.51,76.88L-19.68,80.13L-15.03,82.66L-6.36,83.91L-0.40,82.31" />
      </g>
      <g id="f9" style="--index:9; opacity:0;" class="frame">
        <path d="M31.06,88.63L34.62,88.36L39.12,85.91L47.13,79.20L48.92,77.02L50.25,73.42L50.19,71.50L48.00,70.31L45.36,70.17L37.48,72.70L29.20,78.34L26.41,81.52L25.22,84.78L25.74,87.56L27.81,87.36" />
        <path d="M17.47,88.49L21.57,87.30L23.03,83.52L24.76,67.99L23.97,55.64L18.53,42.38L16.22,40.19L14.09,40.05L11.26,44.56L8.92,51.14L7.88,58.83L7.80,68.13L9.34,76.08" />
        <path d="M7.09,85.70L5.29,83.19L-1.79,78.67L-14.17,72.56L-19.13,71.11L-24.45,71.44L-25.37,75.95L-22.93,79.14L-15.30,82.78L-6.44,84.05" />
      </g>
      <g id="f10" style="--index:10; opacity:0;" class="frame">
        <path d="M33.77,85.50L37.14,84.25L38.73,82.25L52.51,59.56L56.55,52.00L58.07,44.17L56.55,40.78L54.03,39.78L49.65,41.45L46.09,45.09L40.71,52.00L33.56,65.20L31.77,74.03L32.43,75.55L33.31,74.30" />
        <path d="M17.40,80.27L20.59,80.45L20.84,79.14L20.84,75.75L18.80,68.19L11.59,54.52L1.19,40.98L-2.19,37.67L-7.30,34.34L-9.00,34.08L-10.73,36.00L-10.86,41.72L-8.36,49.28L-3.86,57.23L3.90,67.06L8.00,70.70" />
        <path d="M1.52,73.63L-1.94,71.50L-11.26,69.38L-24.97,68.92L-27.95,69.91L-30.66,72.17L-31.12,76.61L-29.08,80.27L-25.30,83.31L-16.30,86.56L-7.57,86.77L-1.94,84.70L3.11,80.92L3.71,77.88" />
      </g>
      <g id="f11" style="--index:11; opacity:0;" class="frame">
        <path d="M39.25,80.72L41.83,81.39L54.03,72.50L60.45,66.53L67.26,57.17L67.33,53.52L64.55,52.53L56.47,53.72L48.00,58.23L41.31,63.41L36.75,68.45L33.70,75.22L33.70,77.88L34.56,79.53L35.56,80.00L37.66,79.14" />
        <path d="M29.99,73.50L32.37,69.11L33.89,60.22L33.95,51.41L31.64,43.03L29.12,37.86L20.45,25.86L16.09,23.00L14.49,22.94L11.99,27.31L11.17,30.56L10.46,42.31L14.36,60.89" />
        <path d="M15.88,66.19L12.84,61.28L0.73,56.31L-6.02,54.66L-15.17,54.13L-17.95,57.17L-18.01,60.75L-16.63,64.41L-10.86,69.84L-2.52,73.30L6.02,74.09L10.92,73.56" />
      </g>
    </g>
    <g id="t3" transform="translate(-344.25 -136.00)" class="thread">
      <g id="f0" style="--index:0; opacity:1;" class="frame">
        <path d="M30.52,76.61L34.50,77.14L37.60,75.42L46.81,66.66L47.61,63.34L46.61,62.81L41.04,63.20L35.14,66.66L33.16,68.78L32.25,71.97L32.83,73.03L33.56,72.56" />
        <path d="M17.86,76.55L12.24,71.30L8.80,69.58L0.25,67.39L-2.19,68.05L-1.79,71.64L5.54,76.02L14.57,77.74L19.72,77.74L20.91,76.75" />
      </g>
      <g id="f1" style="--index:1; opacity:0;" class="frame">
        <path d="M44.96,73.42L47.27,75.22L49.38,75.28L56.61,67.66L59.65,62.22L59.84,59.77L58.99,57.83L57.13,57.17L50.05,57.70L39.25,63.67L36.14,66.86L34.23,70.52L34.02,73.63L34.56,74.75L34.62,73.77" />
        <path d="M22.76,72.89L25.41,74.16L26.01,72.56L21.05,67.19L11.17,62.61L5.36,61.28L2.50,61.61L1.98,64.67L2.58,67.45L6.42,71.91L13.03,74.56L19.99,74.75" />
      </g>
      <g id="f2" style="--index:2; opacity:0;" class="frame">
        <path d="M40.19,75.02L42.71,75.75L43.90,75.28L51.63,68.72L57.20,62.34L57.67,60.95L57.07,59.23L55.15,59.09L48.40,61.09L43.69,63.81L37.73,68.39L35.68,71.30L35.35,73.52" />
        <path d="M35.35,73.52L35.48,74.36L35.35,73.52" />
        <path d="M35.35,73.52L35.23,73.24" />
        <path d="M21.91,75.69L25.01,78.80L4.29,68.92L-1.00,67.86L-3.86,68.39L-2.65,69.84L19.78,78.20" />
      </g>
      <g id="f3" style="--index:3; opacity:0;" class="frame">
        <path d="M36.54,75.02L40.25,76.75L43.90,74.83L57.13,62.94L59.20,58.50L58.32,56.64L50.38,55.64L41.31,58.30L34.95,61.69L30.72,65.47L30.39,67.33L31.70,67.59L33.04,66.27L33.10,64.41" />
        <path d="M22.37,65.33L25.22,66.86L23.37,63.61L18.01,60.09L11.38,57.30L5.54,56.25L2.38,56.58L0.98,57.56L-0.27,61.75L0.46,63.74L6.36,67.19L16.61,69.52L22.24,69.72" />
      </g>
      <g id="f4" style="--index:4; opacity:0;" class="frame">
        <path d="M20.59,70.44L21.08,70.47" />
        <path d="M21.08,70.47L23.43,70.64L27.20,68.05L28.66,65.27L28.20,63.88L25.89,63.74L24.22,64.80L20.66,69.05L20.32,70.78L21.08,70.47" />
        <path d="M21.08,70.47L21.57,68.72" />
        <path d="M5.88,69.78L4.96,66.00L-3.06,58.63L-5.63,58.09L-5.77,60.56L-2.40,64.47" />
      </g>
      <g id="f5" style="--index:5; opacity:0;" class="frame">
        <path d="M11.51,70.84L14.63,70.78L19.72,67.92L21.24,65.47L18.59,64.94L11.38,68.05L8.13,71.30" />
        <path d="M-2.46,72.89L-12.32,64.74L-16.57,62.94L-17.22,63.28L-17.36,67.66L-15.51,70.52L-9.21,74.16" />
      </g>
      <g id="f6" style="--index:6; opacity:0;" class="frame">
        <path d="M15.76,73.36L18.66,73.09L22.37,68.39L24.10,63.20L24.03,62.55L21.97,62.34L15.15,66.45L11.90,69.91L10.26,73.36" />
        <path d="M-1.13,75.95L-6.11,71.17L-16.36,65.94L-20.01,66.66L-19.95,71.70L-15.90,74.95L-9.34,75.69" />
      </g>
      <g id="f7" style="--index:7; opacity:0;" class="frame">
        <path d="M14.88,78.61L23.30,78.74L25.22,77.88L25.49,76.14L19.66,74.22L11.84,74.95L10.13,76.02L8.92,79.00L11.11,80.20L12.63,80.13L12.90,79.27" />
        <path d="M-3.06,80.80L-8.02,75.09L-13.32,71.44L-19.74,68.66L-24.18,68.99L-23.78,71.91L-18.68,75.02L-10.86,78.20" />
      </g>
      <g id="f8" style="--index:8; opacity:0;" class="frame">
        <path d="M18.59,79.20L22.57,79.27L25.55,77.81L32.64,71.44L34.83,67.66L35.62,62.75L32.31,62.28L28.60,64.88L22.18,72.50L21.11,77.02" />
        <path d="M5.09,79.74L-2.25,75.22L-7.48,73.50L-14.38,72.63L-15.45,75.55L-10.80,79.94L-5.50,81.99L2.44,82.52" />
      </g>
      <g id="f9" style="--index:9; opacity:0;" class="frame">
        <path d="M22.70,86.77L25.95,86.24L35.81,76.41L28.72,76.34L24.95,77.67L20.39,81.13L20.05,84.05L21.45,84.31L21.72,82.92" />
        <path d="M5.88,84.17L5.36,81.52L3.50,79.27L-4.38,72.30L-9.48,69.38L-14.17,69.19L-16.09,71.24L-17.03,74.30L-16.42,78.80L-9.21,86.83L-3.98,89.55L-1.00,89.95" />
      </g>
      <g id="f10" style="--index:10; opacity:0;" class="frame">
        <path d="M25.95,80.86L28.60,80.66L31.58,79.06L36.41,74.49L39.39,70.78L41.25,66.66L41.44,63.41L39.98,61.48L36.02,61.36L30.24,65.14L27.20,68.99L24.95,76.94L24.10,77.41" />
        <path d="M10.38,79.67L12.84,81.59L12.24,80.45L3.77,71.64L-1.79,67.52L-4.90,65.86L-7.30,65.53L-8.55,66.53L-7.69,70.31L-1.73,76.34L3.96,80.27" />
      </g>
      <g id="f11" style="--index:11; opacity:0;" class="frame">
        <path d="M28.54,81.52L34.23,81.66L39.06,76.81L42.96,70.97L45.42,66.13L46.48,60.48L45.36,59.50L43.63,59.50L38.94,62.55L34.83,66.86L31.91,73.03L31.70,76.61" />
        <path d="M11.44,74.83L10.53,69.19L5.63,64.27L-1.40,59.69L-5.17,58.77L-8.02,59.36L-9.94,61.55L-10.61,67.39L-6.96,72.83L-2.25,75.42L3.38,76.61L8.13,76.67" />
      </g>
    </g>
    <g id="t4" transform="translate(-344.25 -136.00)" class="thread">
      <g id="f0" style="--index:0; opacity:1;" class="frame">
        <path d="M97.47,-218.05L104.55,-235.56" />
        <path d="M-175.21,-235.50L-179.44,-243.86L-187.01,-263.30" />
        <path d="M-134.96,33.34L-153.10,19.16L-163.83,14.44" />
        <path d="M309.68,-140.42L329.08,-158.27L339.27,-164.77" />
        <path d="M339.61,-15.61L346.17,-18.33L358.49,-21.66L363.91,-22.19L373.77,-22.25L392.32,-20.19" />
        <path d="M16.01,-117.00" />
        <path d="M238.49,-330.19L243.73,-339.02L251.81,-349.83L260.61,-356.39L276.03,-364.69" />
      </g>
      <g id="f1" style="--index:1; opacity:0;" class="frame">
        <path d="M104.55,-235.56L107.05,-245.72L108.12,-256.53" />
        <path d="M-187.01,-263.30L-191.51,-276.64L-197.54,-301.92" />
        <path d="M-163.83,14.44L-190.70,8.80L-204.08,2.89" />
        <path d="M339.27,-164.77L358.16,-170.94L373.19,-179.64" />
        <path d="M392.32,-20.19L421.38,-15.75L435.36,-16.08" />
        <path d="M16.01,-117.00L18.74,-120.66L20.26,-127.88" />
        <path d="M276.03,-364.69L284.18,-371.72L289.96,-378.75L298.96,-396.47L302.00,-406.36" />
      </g>
      <g id="f2" style="--index:2; opacity:0;" class="frame">
        <path d="M108.12,-256.53L109.39,-283.55" />
        <path d="M-197.54,-301.92L-201.56,-310.61L-205.48,-316.25L-215.48,-327.21L-230.84,-339.94" />
        <path d="M-204.08,2.89L-217.86,-4.59L-224.95,-7.59L-248.77,-15.75" />
        <path d="M373.19,-179.64L393.45,-188.60L401.72,-193.83L417.42,-207.91" />
        <path d="M-193.16,-129.88" />
        <path d="M177.98,-172.35L180.17,-173.80" />
        <path d="M435.36,-16.08L456.02,-19.20L471.84,-25.03L482.24,-31.08L494.50,-40.83" />
        <path d="M20.26,-127.88L21.72,-143.88L21.64,-155.22L20.45,-167.24" />
      </g>
      <g id="f3" style="--index:3; opacity:0;" class="frame">
        <path d="M109.39,-283.55L106.93,-295.75L103.36,-306.17" />
        <path d="M-59.80,-27.95" />
        <path d="M-248.77,-15.75L-276.12,-26.70" />
        <path d="M417.42,-207.91L429.19,-219.64L444.76,-237.16L453.96,-248.85" />
        <path d="M-193.16,-129.88L-193.22,-134.13L-196.41,-138.17" />
        <path d="M-29.60,-255.14" />
        <path d="M180.17,-173.80L187.39,-180.30L206.58,-206.64" />
        <path d="M494.50,-40.83L542.17,-83.69" />
        <path d="M20.45,-167.24L17.95,-205.38" />
        <path d="M100.90,-64.31L104.22,-67.17L110.24,-77.52" />
      </g>
      <g id="f4" style="--index:4; opacity:0;" class="frame">
        <path d="M82.17,-42.22L84.21,-45.55" />
        <path d="M103.36,-306.17L95.40,-330.66" />
        <path d="M-59.80,-27.95L-57.55,-30.75L-56.69,-42.09" />
        <path d="M-276.12,-26.70L-284.87,-30.34L-303.86,-40.56" />
        <path d="M453.96,-248.85L459.46,-256.88" />
        <path d="M-196.41,-138.17L-209.52,-151.91L-214.61,-155.35L-225.28,-160.72" />
        <path d="M-29.60,-255.14L-26.62,-257.47L-24.37,-268.41" />
        <path d="M206.58,-206.64L215.07,-219.78L228.76,-244.06" />
        <path d="M17.95,-205.38L16.88,-239.28" />
        <path d="M110.24,-77.52L119.52,-111.42" />
      </g>
      <g id="f5" style="--index:5; opacity:0;" class="frame">
        <path d="M84.21,-45.55L90.90,-58.88L93.76,-67.11" />
        <path d="M-56.69,-42.09L-56.30,-58.02L-60.66,-71.88" />
        <path d="M-303.86,-40.56L-314.87,-47.92L-331.62,-62.86" />
        <path d="M-225.28,-160.72L-271.28,-178.70" />
        <path d="M-24.37,-268.41L-23.51,-278.03L-23.97,-290.44L-27.28,-301.19L-31.85,-309.42" />
        <path d="M228.76,-244.06L240.22,-265.50L252.48,-284.41" />
        <path d="M16.88,-239.28L18.47,-256.41L22.76,-279.63" />
        <path d="M119.52,-111.42L120.31,-119.86L119.98,-142.49" />
      </g>
      <g id="f6" style="--index:6; opacity:0;" class="frame">
        <path d="M93.76,-67.11L97.01,-81.03L98.53,-93.84" />
        <path d="M-60.66,-71.88L-65.37,-79.78L-78.02,-93.52" />
        <path d="M-331.62,-62.86L-340.42,-68.56L-344.98,-70.49L-360.10,-73.74" />
        <path d="M167.92,-15.34" />
        <path d="M-271.28,-178.70L-284.73,-187.27L-296.38,-198.81" />
        <path d="M-31.85,-309.42L-58.80,-346.05" />
        <path d="M252.48,-284.41L265.32,-298.08L276.51,-307.89L281.14,-310.88" />
        <path d="M22.76,-279.63L32.04,-317.85" />
        <path d="M119.98,-142.49L122.29,-151.70L129.77,-170.75" />
      </g>
      <g id="f7" style="--index:7; opacity:0;" class="frame">
        <path d="M98.53,-93.84L98.78,-108.97L97.53,-121.52" />
        <path d="M-78.02,-93.52L-88.88,-107.31L-99.80,-126.55" />
        <path d="M-360.10,-73.74L-390.40,-80.64L-400.55,-86.41" />
        <path d="M167.92,-15.34L168.38,-20.53L170.90,-25.50L183.01,-40.50" />
        <path d="M-296.38,-198.81L-307.17,-211.88L-312.74,-220.17L-322.47,-238.69" />
        <path d="M-58.80,-346.05L-69.20,-366.14L-73.18,-379.63L-74.37,-387.58" />
        <path d="M281.14,-310.88L290.87,-313.60L313.26,-314.46" />
        <path d="M32.04,-317.85L32.77,-337.61L31.24,-363.24" />
        <path d="M129.77,-170.75L134.88,-182.16L146.39,-203.72" />
      </g>
      <g id="f8" style="--index:8; opacity:0;" class="frame">
        <path d="M97.53,-121.52L92.17,-150.58" />
        <path d="M-99.80,-126.55L-115.10,-158.47" />
        <path d="M-400.55,-86.41L-409.14,-95.44L-412.73,-101.02" />
        <path d="M183.01,-40.50L191.03,-48.39L198.64,-53.50L213.06,-58.22" />
        <path d="M-322.47,-238.69L-326.25,-249.11L-330.69,-265.83" />
        <path d="M-74.37,-387.58L-76.08,-418.04" />
        <path d="M313.26,-314.46L324.06,-318.38L333.71,-324.94L341.73,-332.97L365.83,-368.41" />
        <path d="M179.30,42.05L198.83,32.22" />
        <path d="M31.24,-363.24L30.97,-392.10" />
        <path d="M146.39,-203.72L153.35,-223.77L160.04,-239.02" />
      </g>
      <g id="f9" style="--index:9; opacity:0;" class="frame">
        <path d="M92.17,-150.58L90.04,-174.39" />
        <path d="M-115.10,-158.47L-131.77,-183.69" />
        <path d="M213.06,-58.22L235.72,-62.59L247.98,-66.77" />
        <path d="M365.83,-368.41L377.42,-385.79" />
        <path d="M198.83,32.22L221.76,20.34L236.06,16.17" />
        <path d="M160.04,-239.02L173.34,-265.42L183.55,-277.77" />
      </g>
      <g id="f10" style="--index:10; opacity:0;" class="frame">
        <path d="M90.04,-174.39L90.04,-188.19L91.17,-197.69" />
        <path d="M-131.77,-183.69L-138.13,-191.11L-147.59,-197.88L-155.87,-207.03" />
        <path d="M-115.83,57.97" />
        <path d="M247.98,-66.77L256.17,-71.75L269.61,-83.95L279.28,-95.50L284.91,-104.00" />
        <path d="M236.06,16.17L251.15,12.78L265.78,7.02L280.01,2.50" />
        <path d="M183.55,-277.77L197.97,-292.30L213.67,-305.83" />
      </g>
      <g id="f11" style="--index:11; opacity:0;" class="frame">
        <path d="M91.17,-197.69L93.42,-206.97L97.47,-218.05" />
        <path d="M-155.87,-207.03L-167.73,-221.77L-175.21,-235.50" />
        <path d="M-115.83,57.97L-124.10,44.63L-134.96,33.34" />
        <path d="M284.91,-104.00L302.13,-131.80L309.68,-140.42" />
        <path d="M280.01,2.50L294.13,1.17L306.36,-1.61L318.74,-6.13L339.61,-15.61" />
        <path d="M213.67,-305.83L230.03,-318.85L238.49,-330.19" />
      </g>
    </g>
  </g>
</svg>