<?xml version="1.0" encoding="utf-8"?>
<svg width="1366" height="1024" viewBox="-683 -512 1366 1024" xmlns="http://www.w3.org/2000/svg">
  <style>
svg { background-color:#5999D3; }

#looom {
--version:2; --tempo:120; --musicTime:0; 
}

#t0 {
--visible:1; --timeOffset:4.200001; --speed:12; --bookmarkIndex:-1; --latched:0; --playMode:0; --masked:0; --blendMode:0; --pressureEnabled:0; 
stroke:#FFD480; stroke-opacity:1; fill-opacity:0; stroke-width:10; stroke-linecap:round; stroke-linejoin:round;
}
@keyframes t0 { 0% { opacity: 1; } 100% { opacity: 0; } }
#t0 .frame { animation:t0 0.08333334s calc(var(--index) * 0.08333334s) steps(1) infinite; }

#t1 {
--visible:1; --timeOffset:3; --speed:5; --bookmarkIndex:-1; --latched:0; --playMode:0; --masked:0; --blendMode:0; --pressureEnabled:0; 
stroke:#FFD480; stroke-opacity:1; fill-opacity:0; stroke-width:10; stroke-linecap:round; stroke-linejoin:round;
}
@keyframes t1 { 0% { opacity: 1; } 20% { opacity: 0; } }
#t1 .frame { animation:t1 1s calc(var(--index) * 0.2s) steps(1) infinite; }

</style>
  <g id="w0" transform="translate(436.75 143.25) scale(0.72 0.72) rotate(-358.30)" class="weave">
    <g id="t0" transform="translate(-650.93 -186.81)" class="thread">
      <g id="f0" style="--index:0; opacity:1;" class="frame">
        <path d="M85.33,3.50L107.05,-35.72L113.10,-49.98L114.02,-57.61L113.22,-60.53L108.05,-64.99L100.05,-66.70L95.01,-66.64L89.32,-64.78L77.14,-58.41L71.18,-54.30L60.51,-44.94L50.98,-35.19L36.41,-16.75" />
        <path d="M34.62,-19.27L18.80,-31.41L6.15,-38.97L-1.94,-42.69L-21.26,-48.86L-33.58,-51.58L-60.20,-55.03L-87.02,-55.63L-110.99,-53.44L-129.92,-49.33L-155.08,-39.77L-162.04,-38.70" />
        <path d="M-166.54,-37.78L-167.00,-40.56L-172.17,-46.27L-190.97,-60.86L-206.14,-71.16L-227.45,-83.09L-236.93,-86.75L-242.50,-87.47L-243.95,-86.81L-244.54,-79.84L-241.10,-67.30L-218.92,-19.59" />
        <path d="M33.10,34.94L1.77,36.34L-40.73,43.50" />
        <path d="M-100.20,44.09L-104.03,45.50L-115.16,45.95L-127.73,47.61L-175.73,57.44" />
        <path d="M-51.59,72.70L-54.17,74.36L-63.91,74.69L-74.04,77.94L-73.77,78.80L-55.57,87.09L-51.98,74.22L-59.13,81.78L-60.26,81.99L-60.80,80.27" />
        <path d="M-53.78,88.95L-50.86,92.94L-48.61,98.17L-44.71,115.89" />
        <path d="M-50.80,121.20L-50.40,124.25L-66.03,140.05L-72.45,148.67" />
        <path d="M-47.88,120.00L-43.71,122.20L-32.97,131.75L-17.95,143.24" />
        <path d="M-217.59,56.70L-218.98,54.52L-223.82,54.45L-234.22,58.63L-248.85,69.52L-258.50,80.39L-266.32,92.41L-271.36,103.42L-276.05,118.67L-276.12,123.06L-273.68,125.52L-263.61,125.52L-236.14,117.81L-227.72,117.09L-219.05,117.55L-229.91,126.85L-237.60,135.94L-244.54,145.95L-251.69,161.02L-253.88,173.55L-253.67,179.39L-250.90,182.70L-248.37,183.38L-240.83,183.31L-230.70,179.86L-206.87,168.11L-202.96,167.05L-200.10,167.19L-199.79,168.44L-200.64,170.10L-211.69,183.17L-218.44,194.85L-222.03,206.80L-221.96,212.63L-220.51,214.75L-218.05,216.35L-211.38,217.88L-206.73,217.88L-198.72,216.35L-189.78,212.71L-171.77,200.69" />
        <path d="M93.21,39.06L97.92,36.41L102.16,36.53L105.28,37.67L119.18,45.56L131.23,56.11L143.82,69.84L156.12,85.77L164.27,99.24L166.46,104.34L167.38,112.17L166.06,115.30L163.35,117.69L159.37,119.34L149.37,119.88L136.07,117.09L105.01,106.94L96.67,105.41L96.74,106.41L100.97,111.25L119.04,130.36L129.90,144.03L141.15,163.33L143.28,168.58L144.53,176.14L144.01,178.47L141.82,179.66L138.71,179.86L134.61,179.13L129.71,176.61L118.98,168.64L113.74,163.67L96.53,144.30L106.87,159.81L117.39,179.52L120.25,186.96L120.89,194.99L119.18,196.64L116.39,197.38L112.89,197.38L108.12,195.85L88.31,183.05" />
        <path d="M-155.55,210.36L-184.92,252.92L-207.77,291.29L-220.17,315.70L-226.75,330.44L-231.28,344.40L-233.57,358.65L-233.16,370.90L-231.46,376.19L-228.85,381.21L-220.39,390.28L-208.24,397.71L-200.24,401.11L-192.21,404.10L-171.91,409.32L-148.35,412.84L-122.77,414.39L-65.64,414.54L22.16,412.97L49.66,410.84L74.16,407.36L84.90,405.29L102.95,399.50L109.49,395.57L114.89,390.37L121.54,375.30L122.36,365.74L121.68,354.26L118.76,341.71L114.34,327.72L108.41,312.79L100.37,297.20L81.14,268.06" />
      </g>
    </g>
    <g id="t1" transform="translate(-259.04 111.22)" class="thread">
      <g id="f0" style="--index:0; opacity:1;" class="frame">
        <path d="M-279.30,21.12L-267.53,17.39L-262.79,14.67L-244.13,-0.85L-221.49,-25.62L-213.64,-35.77L-206.00,-47.65L-193.92,-68.45L-187.07,-83.47L-179.96,-104.91L-175.83,-122.56L-174.77,-130.82L-174.85,-146.29L-181.18,-174.96L-181.95,-188.37L-180.50,-194.39L-179.03,-197.14L-175.86,-199.36L-171.35,-199.91L-168.69,-199.17L-163.57,-194.81L-155.87,-183.23L-150.72,-169.60L-146.48,-153.15L-145.07,-141.05L-144.80,-122.28L-146.70,-109.31L-152.50,-87.99L-159.11,-68.14L-164.83,-54.44L-188.10,-11.22L-201.40,7.18L-212.17,19.94L-220.80,27.25L-241.02,41.08L-253.65,48.54L-263.25,51.29" />
      </g>
      <g id="f1" style="--index:1; opacity:0;" class="frame">
        <path d="M-279.45,22.87L-273.85,21.77L-266.83,17.76L-259.85,12.53L-232.95,-12.92L-220.90,-25.57L-212.67,-35.66L-193.57,-67.39L-171.17,-113.74L-164.40,-133.97L-160.24,-154.79L-156.94,-166.46L-149.67,-182.40L-144.53,-190.64L-136.26,-199.69L-130.27,-200.57L-127.79,-198.63L-124.93,-194.20L-122.24,-186.29L-120.97,-179.76L-120.04,-161.62L-121.13,-149.89L-124.63,-135.43L-130.04,-115.70L-139.14,-91.10L-146.70,-74.52L-163.60,-42.86L-183.27,-13.36L-192.03,-2.86L-212.09,18.12L-223.80,27.50L-237.26,36.73L-260.17,49.28L-266.12,51.39" />
      </g>
      <g id="f2" style="--index:2; opacity:0;" class="frame">
        <path d="M-275.53,21.50L-272.61,21.04L-264.37,13.28L-241.07,-10.18L-231.06,-21.29L-223.45,-28.06L-207.76,-47.23L-196.48,-63.65L-186.62,-79.86L-179.99,-88.62L-169.45,-99.98L-144.94,-120.02L-127.93,-132.91L-112.48,-142.77L-103.52,-147.17L-85.13,-153.95L-72.54,-156.13L-60.84,-156.11L-53.93,-153.00L-51.27,-149.24L-50.36,-141.68L-51.02,-138.51L-55.98,-129.27L-64.01,-119.04L-81.95,-105.06L-107.04,-88.32L-148.72,-55.90L-171.73,-35.30L-208.17,1.77L-231.31,22.82L-255.73,41.12L-266.99,48.30L-267.01,47.54" />
      </g>
      <g id="f3" style="--index:3; opacity:0;" class="frame">
        <path d="M-278.11,27.59L-275.60,26.09L-263.82,13.72L-233.10,-14.47L-211.26,-41.04L-204.90,-47.08L-182.85,-71.34L-168.68,-81.97L-154.30,-89.62L-141.25,-94.52L-115.05,-100.69L-94.91,-104.30L-74.99,-105.12L-59.33,-103.04L-50.00,-99.62L-38.82,-96.73L-30.54,-92.70L-25.59,-87.50L-24.21,-84.02L-24.09,-79.89L-28.67,-75.33L-35.02,-71.90L-46.64,-69.08L-67.19,-67.27L-87.17,-63.13L-115.77,-51.84L-137.97,-39.84L-151.80,-33.49L-173.59,-20.15L-194.16,-5.64L-221.86,15.85L-231.94,24.63L-238.48,31.74L-245.07,37.05L-256.75,45.06L-264.13,49.26L-264.88,48.53" />
      </g>
      <g id="f4" style="--index:4; opacity:0;" class="frame">
        <path d="M-265.46,48.56L-262.47,45.53L-255.16,41.59L-242.59,31.35L-228.17,21.95L-212.28,9.36L-199.87,-3.51L-187.09,-13.62L-182.05,-19.56L-176.04,-23.96L-168.34,-32.08L-166.92,-32.50L-156.04,-46.59L-137.15,-67.36L-126.83,-80.92L-115.45,-98.09L-112.54,-100.78L-111.39,-103.74L-102.50,-116.45L-94.08,-134.41L-90.14,-140.74L-87.17,-148.58L-85.46,-157.45L-85.45,-164.39L-92.13,-171.41L-96.94,-172.71L-108.19,-169.08L-118.90,-158.26L-132.72,-139.71L-153.41,-108.97L-157.16,-101.66L-164.79,-91.90L-174.37,-76.70L-177.50,-73.57" />
        <path d="M-181.69,-66.71L-189.65,-55.53L-199.50,-38.68L-206.95,-30.99L-261.46,12.91L-268.79,17.60L-273.20,18.74L-278.50,22.27" />
      </g>
    </g>
  </g>
</svg>