<?xml version="1.0" encoding="utf-8"?>
<svg width="1366" height="1024" viewBox="-683 -512 1366 1024" xmlns="http://www.w3.org/2000/svg">
  <style>
svg { background-color:#FE8081; }

#looom {
--version:2; --tempo:120; --musicTime:0; 
}

#t0 {
--visible:1; --timeOffset:0; --speed:12; --bookmarkIndex:-1; --latched:0; --playMode:0; --masked:0; --blendMode:0; --pressureEnabled:0; 
stroke:#6FBAFF; stroke-opacity:1; fill-opacity:0; stroke-width:50; stroke-linecap:round; stroke-linejoin:round;
}
@keyframes t0 { 0% { opacity: 1; } 50% { opacity: 0; } }
#t0 .frame { animation:t0 0.1666667s calc(var(--index) * 0.08333334s) steps(1) infinite; }

#t1 {
--visible:1; --timeOffset:0; --speed:12; --bookmarkIndex:-1; --latched:0; --playMode:0; --masked:0; --blendMode:0; --pressureEnabled:0; 
stroke:#FFFFFF; stroke-opacity:1; fill-opacity:0; stroke-width:25.30446; stroke-linecap:round; stroke-linejoin:round;
}
@keyframes t1 { 0% { opacity: 1; } 100% { opacity: 0; } }
#t1 .frame { animation:t1 0.08333334s calc(var(--index) * 0.08333334s) steps(1) infinite; }

#t2 {
--visible:1; --timeOffset:0; --speed:12; --bookmarkIndex:-1; --latched:0; --playMode:0; --masked:0; --blendMode:0; --pressureEnabled:0; 
stroke:#80D6FF; stroke-opacity:1; fill-opacity:0; stroke-width:25.30446; stroke-linecap:round; stroke-linejoin:round;
}
@keyframes t2 { 0% { opacity: 1; } 8.333333% { opacity: 0; } }
#t2 .frame { animation:t2 1s calc(var(--index) * 0.08333334s) steps(1) infinite; }

</style>
  <g id="w0" transform="translate(415.75 11.00) scale(0.15 0.15) rotate(-345.98)" class="weave">
    <g id="t0" transform="translate(-1516.79 1209.82)" class="thread">
      <g id="f0" style="--index:0; opacity:1;" class="frame">
        <path d="M-0.85,-75.52L3.22,-87.07L41.53,-169.09L56.16,-196.24L74.18,-222.80L82.75,-233.91L112.24,-266.57L124.09,-277.45L130.27,-281.74L149.51,-287.41L157.36,-290.53L162.05,-291.08L166.94,-290.02L174.51,-286.68L182.24,-280.76L187.06,-275.26L193.60,-265.05L198.40,-254.72L202.06,-242.93L204.52,-230.88L204.30,-213.76L202.43,-205.09L197.39,-191.34L186.84,-172.24L180.33,-162.81L172.66,-153.55L156.24,-137.98L137.75,-125.06L85.25,-99.93L36.14,-81.50L15.71,-75.64L12.52,-75.69L12.56,-76.55L26.54,-87.77L57.30,-110.27" />
        <path d="M57.30,-110.27L95.51,-138.63L117.66,-156.67L140.56,-177.18L153.78,-190.66L169.25,-209.97L179.47,-228.75L181.51,-234.83L182.41,-241.61L181.48,-247.55L179.82,-249.21L174.12,-250.32L169.71,-249.66L163.84,-247.81L157.28,-243.87L149.31,-237.58L140.52,-229.10L129.89,-217.33L94.69,-173.37L75.53,-146.39L63.78,-126.69L60.23,-119.45L57.30,-110.27" />
        <path d="M57.30,-110.27L57.51,-108.29L58.40,-107.48L62.48,-108.59L81.34,-122.86L94.16,-133.64L109.40,-147.59L124.50,-163.43L136.90,-178.37L147.15,-192.96L154.85,-205.76L159.34,-215.83L162.55,-229.56L161.66,-237.02" />
        <path d="M161.66,-237.02L161.35,-238.29L158.88,-240.47L154.45,-240.52L147.83,-238.18L138.94,-231.65L117.13,-209.88L77.88,-164.47L57.45,-138.15L47.18,-121.18L44.80,-115.63L44.11,-110.89L46.91,-111.31L66.71,-126.68L97.73,-156.22L116.27,-175.85L135.03,-197.91L151.54,-220.48L161.66,-237.02" />
        <path d="M161.66,-237.02L167.02,-248.32L167.93,-255.18L160.08,-251.35L141.60,-233.45L108.86,-196.46" />
        <path d="M9.44,-55.12L12.20,-57.11L13.78,-56.07L33.81,-38.37L47.53,-24.77L89.04,19.30L111.05,47.68L117.71,58.52L125.19,74.21L128.64,84.69L134.04,107.19L136.12,127.66L136.16,140.84L134.47,153.41L132.89,159.00L128.20,168.87L121.37,178.32L112.22,186.96L102.18,193.21L97.10,195.44L86.64,197.91L81.30,197.59L75.92,196.26L70.78,193.21L65.41,188.47L60.42,182.71L51.05,169.11L39.06,147.07L29.45,123.17L21.48,98.19L17.44,80.66L16.03,70.41L8.59,-17.07L4.00,-53.03L4.71,-57.39L7.43,-60.56L7.89,-58.94L18.31,4.42L26.72,43.29L37.72,87.79L49.81,121.91L60.88,144.66L66.09,152.75L71.68,158.94L76.78,162.56L82.10,164.05L86.66,163.92L90.94,162.69L94.57,158.42L97.16,151.02L98.79,139.97L99.23,127.13L98.42,112.70L92.94,82.15L82.84,50.49L75.55,36.08L64.18,18.32L52.73,4.26L46.92,-0.99L42.12,-3.97L38.85,-4.78L36.72,-4.13L36.38,0.38L37.75,9.23L44.78,37.59L54.10,65.34L72.58,114.79L85.56,145.72" />
        <path d="M85.56,145.72L89.01,154.21L85.56,145.72" />
        <path d="M85.56,145.72L65.75,76.27L58.82,54.66L52.36,37.62L46.65,25.85L42.29,19.38L39.36,16.67L37.35,16.59L36.41,19.19L38.91,34.79L41.62,46.25L50.27,70.44L61.82,98.69" />
        <path d="M-16.90,-81.44L-19.45,-85.51L-34.92,-101.59L-62.14,-127.25L-87.67,-147.53L-111.76,-161.33L-150.01,-177.66L-163.35,-181.77L-174.82,-183.87L-198.01,-185.90L-209.86,-186.02L-220.51,-184.69L-229.28,-182.69L-241.01,-177.94L-247.95,-174.31L-253.29,-169.90L-256.05,-164.58L-256.34,-161.10L-254.77,-152.78L-250.36,-143.16L-243.43,-133.90L-226.10,-115.63L-212.15,-102.66L-200.93,-93.93L-173.55,-75.92L-150.75,-64.54L-138.03,-59.35L-116.21,-51.78L-99.58,-47.17L-77.90,-44.24L-57.84,-43.78L-39.68,-44.67L-26.57,-47.31L-23.64,-48.88L-19.41,-52.72L-14.69,-59.13L-14.87,-62.17L-16.06,-64.50L-23.59,-71.65L-38.47,-82.59L-53.46,-91.92L-70.93,-101.44" />
        <path d="M-70.93,-101.44L-136.66,-133.94L-158.08,-142.41L-173.06,-146.75L-178.41,-147.46L-182.96,-147.26L-188.83,-145.72L-191.46,-141.54L-190.47,-134.74L-187.89,-130.12L-183.24,-124.82L-168.97,-112.47L-148.82,-98.98L-128.69,-87.87L-105.39,-77.10L-48.36,-55.03L-39.09,-52.48L-32.34,-51.32L-28.28,-51.48L-25.69,-52.19L-25.23,-54.98L-26.60,-59.71L-31.96,-67.06L-42.18,-78.23L-55.27,-89.91L-70.93,-101.44" />
        <path d="M-70.93,-101.44L-89.39,-112.51L-107.47,-121.25L-124.67,-128.26L-141.78,-133.85L-159.74,-138.59" />
        <path d="M-159.74,-138.59L-183.33,-143.47L-199.94,-144.75L-208.11,-143.28L-207.31,-140.55L-202.51,-137.25L-185.06,-127.16L-129.20,-100.70L-76.42,-79.30L-70.15,-77.46L-65.62,-77.33L-66.97,-79.64L-81.98,-92.84L-111.54,-114.13L-138.50,-129.32L-159.74,-138.59" />
        <path d="M-159.74,-138.59L-177.05,-144.64L-189.00,-147.49L-198.70,-148.84L-206.08,-148.67L-214.08,-146.46L-214.74,-144.24L-213.01,-141.02L-207.27,-136.69L-187.83,-125.24L-155.75,-110.32L-137.25,-103.08L-122.00,-97.66L-114.48,-96.52L-115.71,-98.37L-130.19,-110.28" />
      </g>
      <g id="f1" style="--index:1; opacity:0;" class="frame">
        <path d="M9.16,-36.44L10.30,-37.41" />
        <path d="M10.30,-37.41L13.20,-40.39L14.26,-43.72L13.89,-47.20L11.65,-48.71L8.07,-48.32L5.42,-47.13L2.38,-43.85L0.98,-39.69L1.68,-35.95L4.75,-34.14L7.34,-34.37L10.30,-37.41" />
        <path d="M10.30,-37.41L10.76,-39.34L10.03,-41.21" />
        <path d="M9.93,-70.40L12.44,-69.47L14.50,-71.16L38.10,-108.16L53.65,-139.16L62.91,-163.79L67.02,-182.04L68.47,-202.27L66.14,-231.60L61.33,-253.10L55.93,-266.68L49.00,-279.07L40.94,-290.13L32.56,-298.96L23.25,-306.63L13.22,-313.45L2.67,-318.56L-7.51,-321.54L-17.45,-321.95L-27.45,-320.65L-35.85,-317.98L-46.09,-311.42L-52.11,-304.11L-57.15,-294.78L-61.06,-283.33L-62.98,-270.99L-63.97,-253.37L-63.75,-237.39L-62.24,-220.74L-60.10,-210.02L-49.77,-179.47L-36.44,-144.65L-13.04,-96.68L-1.07,-78.13L1.10,-76.07L3.13,-76.34L14.41,-128.31" />
        <path d="M14.41,-128.31L25.42,-176.97L28.28,-193.57L30.26,-217.25L29.09,-233.44L26.34,-248.29L21.90,-259.98L17.60,-267.16L13.58,-270.02L9.63,-269.07L7.94,-266.94L6.40,-263.75L3.84,-252.89L2.13,-234.21L1.48,-208.62L3.15,-180.12L6.28,-154.82L10.77,-136.55L14.41,-128.31" />
        <path d="M14.41,-128.31L16.18,-126.63L17.98,-127.95L19.84,-134.07L24.16,-159.10L25.94,-175.94L26.54,-193.89L25.26,-210.56L22.88,-223.88L18.77,-235.93L9.16,-256.69L3.82,-264.77L-1.52,-270.73L-5.90,-274.41L-12.20,-277.42" />
        <path d="M-12.20,-277.42L-15.61,-277.46L-17.46,-274.60L-18.52,-267.70L-18.16,-245.09L-16.79,-230.89L-10.10,-188.49L-4.42,-165.63L-0.52,-155.63L1.08,-185.69L0.99,-219.51L-0.76,-237.65L-3.54,-254.07L-7.56,-267.01L-12.20,-277.42" />
        <path d="M-12.20,-277.42L-20.35,-288.99L-26.52,-293.80L-28.77,-293.95L-30.67,-292.66L-31.75,-287.89L-31.89,-278.94L-29.03,-253.05L-23.79,-223.17L-9.80,-168.47" />
        <path d="M-18.07,-26.83L-30.63,-25.49L-51.90,-20.17L-87.97,-4.38L-101.07,2.82L-135.64,24.69L-159.27,41.58L-170.23,51.51L-182.88,65.47L-188.24,72.69L-197.18,88.89L-200.04,97.43L-201.41,105.40L-200.60,115.86L-196.75,121.69L-190.57,127.32L-182.59,132.66L-173.45,136.91L-167.80,138.63L-154.43,140.66L-141.13,140.53L-126.98,138.52L-112.38,133.58L-90.04,121.47L-76.51,111.76L-64.18,100.75L-46.85,82.59L-35.69,68.51L-26.51,54.13L-9.92,17.16L-3.77,0.89L-1.55,-11.33L-2.07,-20.36L-4.85,-20.81L-9.73,-16.97L-23.12,-5.32L-45.23,15.87" />
        <path d="M-45.23,15.87L-129.74,96.98L-138.29,109.04L-139.36,113.92L-138.33,115.53L-135.50,116.30L-129.96,115.92L-121.26,113.80L-112.04,109.79L-100.84,103.54L-89.39,95.84L-78.86,87.33L-67.45,76.70L-58.04,65.84L-50.29,55.30L-43.34,44.16L-34.99,25.97L-33.61,19.79L-33.70,15.83L-34.83,13.47L-38.09,12.97L-43.12,14.44L-45.23,15.87" />
        <path d="M-45.23,15.87L-60.57,26.29L-158.42,98.51L-171.91,107.73L-139.00,83.91L-126.07,73.41L-115.12,63.05L-108.83,55.32L-104.52,47.02L-104.62,45.46L-110.37,47.18L-123.85,57.81L-130.77,64.75L-143.29,78.53L-156.21,95.07" />
        <path d="M34.64,-44.67L35.92,-46.05L41.73,-47.00L72.55,-47.77L97.02,-46.91L117.17,-44.57L135.53,-40.76L160.34,-33.16L185.12,-24.65L199.91,-17.83L208.68,-13.17L220.46,-5.44L231.73,4.07L244.93,18.48L246.91,21.75L249.16,28.40L249.38,35.78L247.99,43.27L245.19,50.59L241.21,57.16L236.03,62.16L229.86,66.32L222.83,69.00L213.08,70.57L206.63,70.31L196.88,68.44L178.01,61.90L164.14,55.54L147.37,46.37L110.54,22.18L39.00,-28.05L32.12,-33.57L30.54,-35.37L31.24,-35.78L69.00,-20.76L104.73,-8.26" />
        <path d="M104.73,-8.26L202.05,28.03L212.10,30.63L195.29,20.01L164.80,3.96L138.00,-8.97L125.09,-14.07L105.87,-19.22L98.93,-20.11L91.70,-19.63L90.47,-18.68L91.77,-16.53L104.73,-8.26" />
        <path d="M104.73,-8.26L153.22,15.88L190.01,32.44L205.11,37.86L195.65,31.01" />
      </g>
    </g>
    <g id="t1" transform="translate(-1206.64 1159.67)" class="thread">
      <g id="f0" style="--index:0; opacity:1;" class="frame">
        <path d="M-513.88,284.10L-511.08,288.50L-505.66,289.12L-494.41,294.24L-485.36,297.30L-439.15,308.18L-402.64,317.87L-381.21,320.87L-355.88,321.48L-308.98,321.00L-297.90,320.13L-273.88,316.45L-243.92,309.24L-188.58,293.35L-163.19,283.53L-150.68,277.45L-136.29,269.18L-67.59,223.54L-56.94,215.19L-47.19,206.18L-37.46,195.55L-27.31,182.76L-17.77,168.92L-0.07,139.03L7.37,124.35L16.94,102.86L24.87,81.39L31.10,57.77L34.94,31.76L36.23,13.34L37.09,-25.98L36.47,-43.84L35.30,-61.75L31.54,-92.56L25.35,-131.87L19.88,-159.75L15.52,-177.33L6.49,-206.35L-12.12,-253.63L-30.00,-289.55L-36.89,-301.18L-50.41,-321.11L-65.53,-337.89L-83.72,-354.28L-104.02,-370.21L-124.27,-384.51L-145.19,-396.41L-166.03,-404.94L-187.84,-412.52L-210.60,-418.55L-233.58,-423.26L-281.32,-428.11L-302.96,-428.86L-314.46,-428.38L-335.22,-425.92L-356.59,-422.08L-388.46,-412.48L-427.78,-398.17L-436.79,-394.03L-479.06,-370.09L-494.77,-360.10L-509.56,-349.23L-528.60,-333.37L-544.36,-317.23L-559.02,-297.91L-597.05,-253.81L-611.93,-233.64L-628.25,-207.55L-644.09,-179.00L-652.05,-159.74L-655.68,-145.80L-659.49,-121.64L-660.11,-102.90L-651.72,5.18L-648.50,30.72L-641.53,73.43L-638.62,102.63L-636.38,116.98L-634.80,123.11L-629.57,136.62L-623.74,159.66L-618.97,172.56L-612.58,184.05L-601.35,208.89L-589.73,222.74L-579.95,237.39L-567.49,247.04L-552.55,261.99L-542.78,269.46L-531.78,279.24L-521.80,285.96" />
        <path d="M-300.85,-25.42L-308.08,-15.18L-305.80,-7.68L-300.60,-6.40L-297.48,-7.11" />
        <path d="M-297.48,-7.11L-293.90,-7.92L-291.16,-10.70L-289.23,-14.54L-287.79,-24.33L-288.66,-28.18L-290.18,-29.35L-295.18,-29.73L-305.14,-27.77L-308.45,-24.92L-313.68,-16.95L-314.84,-12.71L-314.90,-8.73L-313.86,-2.82L-312.81,-1.18L-305.17,-2.33L-300.07,-4.06L-297.48,-7.11" />
        <path d="M-297.48,-7.11L-293.22,-12.98L-291.71,-17.37L-291.21,-23.26L-292.49,-26.37L-301.14,-24.99L-303.66,-22.90L-305.95,-18.12L-304.95,-13.72L-303.46,-12.25L-300.81,-11.63L-295.51,-12.46L-295.57,-15.27" />
        <path d="M-353.96,-416.82L-346.76,-385.00L-329.42,-293.49L-324.46,-255.38L-319.85,-205.20L-313.25,-157.28L-311.62,-130.92L-309.80,-114.78L-301.61,-61.15L-294.22,-27.21L-294.81,-25.56L-296.48,-24.82" />
        <path d="M-290.87,5.49L-285.40,25.42L-281.94,50.06L-231.80,270.34L-224.97,292.42" />
        <path d="M-309.74,3.04L-320.85,12.27L-337.41,29.82L-382.23,85.98L-397.42,106.61L-412.04,130.15L-437.15,166.54L-477.80,219.88L-495.61,245.08L-517.76,271.55L-525.52,279.45L-527.28,282.30L-528.47,282.57" />
        <path d="M-95.72,-355.26L-119.10,-319.34L-144.41,-278.28L-176.95,-220.63L-205.33,-175.27L-242.50,-101.48L-252.74,-77.70L-262.66,-61.95L-272.35,-42.56L-289.00,-17.33L-299.09,-4.00" />
        <path d="M-293.52,-10.46L-282.57,-20.02L-281.58,-32.23L-281.80,-38.33L-283.44,-46.84L-286.45,-48.25L-291.82,-47.69L-306.12,-44.45L-320.67,-37.19L-330.96,-29.37" />
        <path d="M-330.96,-29.37L-337.95,-21.57L-342.16,-14.19L-345.40,-5.51L-346.76,3.40L-346.13,11.27L-344.16,20.00L-340.49,26.83L-332.63,31.77L-318.13,36.22L-307.50,35.91L-286.42,30.27L-277.56,22.13L-275.52,19.21L-272.92,11.54L-270.89,-1.20L-271.28,-16.14L-272.55,-25.97L-275.51,-40.33L-277.63,-44.18L-280.23,-47.57L-289.33,-52.88L-296.63,-52.74L-305.15,-50.81L-316.40,-45.16L-323.07,-39.68L-329.84,-31.72L-330.96,-29.37" />
        <path d="M-330.96,-29.37L-335.14,-18.52L-335.58,-12.36L-332.92,-1.90L-331.00,-0.62" />
        <path d="M-331.00,-0.62L-323.95,4.09L-320.28,5.42L-312.29,6.65L-302.64,6.27L-284.86,2.25L-279.21,-3.87L-276.87,-12.71L-277.66,-23.01L-279.23,-29.95L-285.01,-37.60L-292.42,-39.25L-310.62,-35.78L-318.33,-29.41L-326.97,-17.34L-330.13,-8.31L-331.00,-0.62" />
        <path d="M-331.00,-0.62L-330.93,6.89L-328.74,14.04" />
        <path d="M-328.74,14.04L-324.82,19.02L-322.20,19.94L-314.67,20.41L-307.15,18.71L-293.37,11.90L-287.46,5.65L-281.98,-4.18L-281.19,-13.90L-282.87,-23.06L-286.57,-27.06L-296.93,-28.11L-305.70,-26.41L-313.20,-22.91L-317.35,-19.52L-325.55,-8.48L-327.38,-4.67L-329.13,2.51L-329.67,9.93L-328.74,14.04" />
        <path d="M-328.74,14.04L-327.61,19.00L-324.01,23.87" />
        <path d="M-324.01,23.87L-319.01,25.94L-311.15,26.62L-290.15,21.87L-284.55,18.51L-273.86,9.95L-263.24,-1.05L-260.64,-4.46L-255.59,-14.49L-254.31,-21.21L-255.01,-32.39L-256.54,-39.13L-262.51,-46.37L-270.27,-48.30L-284.98,-45.55L-294.89,-42.08L-304.42,-35.66L-315.48,-23.62L-320.80,-14.76L-324.54,-5.32L-325.56,-0.46L-326.14,13.18L-324.01,23.87" />
        <path d="M-324.01,23.87L-317.32,31.70L-310.69,34.17L-306.67,34.49L-292.71,32.27L-287.49,31.09L-282.72,28.50" />
        <path d="M-282.72,28.50L-277.96,25.90L-269.67,19.11L-261.02,10.07L-257.25,3.73L-254.49,-7.08L-253.77,-14.54L-254.50,-23.33L-256.86,-35.01L-258.75,-38.27L-268.83,-46.17L-277.14,-48.84L-290.92,-48.83L-300.24,-47.01L-314.02,-41.44L-321.18,-35.19L-327.24,-28.33L-331.65,-20.54L-334.11,-12.69L-334.39,-1.57L-332.88,6.40L-329.97,13.69L-322.75,20.07L-308.59,27.27L-296.44,29.43L-282.72,28.50" />
        <path d="M-282.72,28.50L-261.09,22.08L-254.21,17.13L-247.64,8.27L-245.19,-10.70L-249.40,-31.86L-260.44,-44.03L-264.45,-45.57L-277.32,-45.77L-291.04,-42.95L-305.22,-32.37L-308.64,-28.20" />
        <path d="M-308.64,-28.20L-314.36,-18.67L-316.46,-11.77L-316.75,0.58L-313.36,14.26L-307.84,18.21L-304.11,19.82L-296.12,20.18L-279.53,16.43L-273.60,11.11L-269.28,3.35L-266.41,-4.38L-265.83,-12.46L-266.27,-21.25L-267.58,-28.32L-269.79,-34.25L-274.91,-37.72L-281.52,-38.39L-288.95,-37.57L-296.56,-35.85L-303.90,-32.09L-308.64,-28.20" />
        <path d="M-308.64,-28.20L-314.02,-22.72L-322.65,-11.89" />
        <path d="M-568.10,-271.12L-552.70,-255.89L-525.04,-224.37L-492.97,-192.11L-475.32,-176.74L-453.69,-159.52L-416.00,-125.43L-385.55,-95.18L-338.60,-45.70L-327.85,-36.14L-309.50,-24.04" />
        <path d="M-277.97,8.42L-266.25,12.49L-250.21,24.17L-233.61,37.90L-184.40,75.24L-115.66,130.27L-92.70,146.53L-69.08,165.75L-55.28,175.20L-44.26,184.70L-41.21,185.81L-36.20,190.53L-33.49,191.43" />
        <path d="M14.77,-105.08L0.12,-106.39L-40.62,-96.88L-71.61,-86.47L-105.31,-78.26L-132.29,-70.57L-187.39,-58.10L-201.18,-56.86L-231.71,-49.95L-242.95,-45.53L-263.83,-39.00L-285.78,-30.35" />
        <path d="M-316.49,-15.74L-326.82,-10.29L-334.36,-9.52L-372.77,-0.83L-391.37,2.15L-435.93,12.23L-473.06,24.03L-531.52,37.84L-567.74,49.43L-588.34,54.67L-617.80,65.02L-629.91,72.39L-630.03,74.87L-628.36,75.43L-623.02,76.03L-618.07,74.91" />
        <path d="M-214.73,320.23L-192.03,421.80L-158.93,549.34L-147.90,587.01L-123.18,665.15L-92.59,771.80L-73.63,854.28L-69.21,879.36" />
        <path d="M-241.10,338.95L-231.44,344.19L-223.42,388.69L-219.41,405.42L-200.55,469.09L-186.25,524.92" />
        <path d="M-186.25,524.92L-186.16,525.42L-186.25,524.92" />
        <path d="M-186.25,524.92L-202.73,439.32L-234.48,334.06L-234.89,333.27L-241.10,334.70L-245.82,309.33L-243.49,308.03L-239.17,316.00L-219.80,367.15L-188.58,439.24" />
        <path d="M-188.58,439.24L-166.24,494.33L-161.41,508.38L-154.95,531.17L-161.06,517.89L-169.70,495.77L-188.58,439.24" />
        <path d="M-188.58,439.24L-201.51,404.94L-221.84,357.62L-226.61,348.29" />
        <path d="M-226.61,348.29L-231.90,338.37L-226.81,370.45L-224.83,373.47L-223.46,373.21L-223.41,370.61L-226.61,348.29" />
        <path d="M-226.61,348.29L-226.00,341.52L-218.26,328.78L-210.70,320.86L-202.55,317.95L-199.51,314.26L-195.95,307.68L-187.57,352.70L-180.01,402.33L-173.20,438.88L-152.97,525.15L-144.69,555.77L-122.99,622.31L-113.50,648.98L-101.60,693.35L-91.18,740.25L-75.90,822.33L-64.88,857.23L-61.21,875.48L-63.40,877.55L-67.05,883.61L-70.73,884.83L-72.35,883.74L-74.68,880.25L-79.40,868.70L-95.01,813.46L-132.91,693.26L-156.09,611.19L-181.60,538.92L-198.67,471.60L-209.04,440.17L-214.57,411.89L-218.93,400.88L-221.99,385.89L-235.77,359.95L-239.16,355.53L-242.42,347.10L-244.46,337.58L-247.11,333.82L-252.29,331.73L-247.36,340.11L-232.50,370.38" />
        <path d="M-52.15,885.09L-47.57,881.54" />
        <path d="M-47.57,881.54L-42.54,877.65L-34.27,874.98L51.59,859.52L66.95,859.19L93.95,860.40L109.36,858.40L133.24,859.53L137.37,860.76L140.56,862.69L127.14,869.17L115.45,873.01L79.66,880.28L31.82,892.84L-8.19,900.29L-50.38,906.49L-114.04,918.35L-163.35,933.45L-196.80,939.94L-200.78,939.55L-203.07,937.72L-205.41,932.77L-203.92,931.70L-187.04,924.30L-163.25,915.89L-132.14,907.30L-116.23,903.74L-34.98,887.81L10.58,872.54L26.23,868.50L18.76,867.90L2.79,869.74L-33.86,877.17L-47.57,881.54" />
        <path d="M-47.57,881.54L-108.14,901.97L-162.39,923.37L-175.30,929.76L-177.79,933.01L-176.43,934.16L-169.41,934.24L-157.72,933.20L-121.05,926.37L-95.28,921.03L-54.96,907.61L-40.88,901.33L-30.41,895.66L-21.91,889.89L-15.21,883.53L-10.03,878.04L-6.91,873.81L-6.00,871.11L-6.15,868.88L-8.28,867.88L-15.55,868.37L-38.39,872.36L-64.98,880.97L-84.16,888.37" />
        <path d="M-84.16,888.37L-143.38,912.18L-160.96,920.58L-152.01,918.64L-130.42,907.51L-109.05,898.48L-86.01,893.66L-84.10,891.57L-84.16,888.37" />
        <path d="M-84.16,888.37L-84.55,886.28L-101.17,889.37L-159.19,916.26L-198.22,930.90L-220.30,937.54L-230.52,941.70L-269.60,958.89L-292.89,972.79L-296.76,976.31L-297.38,977.28L-296.66,978.28L-285.83,977.39L-178.71,958.57L-117.96,941.08L-53.24,925.90L-17.25,914.94L1.05,910.40L51.38,900.76L85.05,889.71L122.92,882.65L160.44,870.88L169.38,867.49L175.03,863.05L175.80,861.51L175.61,859.02L174.89,858.02L171.12,857.33L103.56,862.00L78.29,865.32L38.48,872.40L24.70,875.56L-13.88,886.40L-52.26,894.95" />
        <path d="M-52.26,894.95L-56.89,895.81L-52.26,894.95" />
        <path d="M-52.26,894.95L-41.66,893.88" />
        <path d="M-41.66,893.88L-23.24,891.80L36.70,882.37L88.61,875.49L113.41,871.13L114.32,869.83L112.40,868.53L108.99,868.30L90.38,869.78L13.06,882.52L-11.70,887.13L-41.66,893.88" />
        <path d="M-41.66,893.88L-79.87,905.21L-136.26,923.28" />
        <path d="M61.72,895.45L73.65,895.10L86.20,903.98L110.71,918.58L172.60,947.00L227.07,973.40L247.98,985.04L271.23,999.29L294.40,1015.90L339.65,1052.25L359.76,1070.51L378.20,1089.31L397.85,1111.72L415.43,1133.90L431.10,1155.56L447.42,1181.46L477.19,1232.48L491.94,1261.26L534.77,1356.66L553.17,1392.25L575.30,1426.92L591.90,1450.43L612.50,1477.11L633.86,1501.05L677.63,1546.69L700.02,1566.60L737.36,1595.42L824.48,1670.59L847.33,1691.67L903.59,1747.65L934.45,1779.77L972.28,1821.09L997.02,1855.97L1027.43,1902.25L1037.76,1915.83L1060.07,1942.25L1112.26,1998.65" />
        <path d="M1099.61,1982.79L1105.46,1986.54L1113.50,1997.61L1119.58,2004.24L1154.23,2036.56L1177.52,2060.77L1277.61,2175.33L1393.04,2301.10" />
        <path d="M-192.22,942.58L-197.08,947.28L-202.11,948.30" />
        <path d="M-202.11,948.30L-217.82,947.97L-231.10,950.66L-237.46,954.94L-240.43,958.97L-240.45,961.32L-232.16,959.08L-202.11,948.30" />
        <path d="M-202.11,948.30L-190.37,944.82L-189.60,942.65" />
        <path d="M-344.17,-0.20L-348.71,4.30L-359.77,7.19L-376.86,14.47L-397.79,21.33L-421.20,30.54L-452.93,40.16L-472.47,47.90L-504.70,56.00L-521.97,58.82L-564.85,68.34L-586.43,75.63L-641.75,91.07" />
        <path d="M12.83,-93.69L19.58,-92.57L19.63,-91.52L17.92,-89.91L10.81,-86.31L-7.94,-80.88L-64.50,-68.17L-118.39,-58.79L-135.94,-54.70L-154.03,-49.28L-180.69,-43.08L-219.14,-35.65L-265.01,-24.97L-277.21,-20.47L-279.30,-18.46L-255.81,-25.31" />
        <path d="M-95.38,-338.43L-124.18,-299.34L-132.92,-285.25L-154.71,-243.29L-175.31,-207.17L-220.41,-119.99L-243.73,-83.98L-256.68,-56.89L-271.75,-33.80L-280.47,-15.17" />
        <path d="M-360.45,-402.65L-368.77,-402.20L-370.70,-399.52L-371.20,-394.58L-369.71,-387.55L-364.12,-375.73L-358.27,-360.38L-348.10,-316.67L-339.29,-271.72L-320.91,-196.02L-306.26,-107.24L-299.37,-60.78L-297.72,-40.70L-295.90,-29.81" />
        <path d="M-295.90,-29.81L-295.67,-28.83L-295.90,-29.81" />
        <path d="M-295.90,-29.81L-295.97,-30.11" />
        <path d="M-379.95,-409.57L-376.41,-402.70L-362.74,-367.18" />
        <path d="M-561.40,-272.73L-555.54,-270.76L-529.23,-241.66L-495.57,-201.75L-481.64,-186.45L-421.52,-132.84L-387.99,-95.31L-376.59,-83.77L-361.84,-71.39L-324.58,-46.33L-309.00,-35.06L-303.82,-30.09" />
        <path d="M-582.94,-254.91L-577.58,-251.80L-537.89,-222.76L-484.28,-179.06L-444.23,-141.98L-427.46,-125.42L-397.84,-99.01L-388.45,-89.60L-373.59,-72.27L-348.71,-47.95L-339.92,-40.67L-315.11,-23.71L-306.56,-16.65" />
        <path d="M-308.82,21.40L-322.23,41.23L-340.70,64.51L-370.60,111.09L-379.56,122.22L-430.72,179.46L-468.67,219.93L-482.76,239.46L-499.35,266.38L-507.39,276.37" />
        <path d="M-302.60,30.63L-285.21,102.67L-279.16,137.83L-258.07,230.25L-247.78,259.64L-241.49,286.62L-237.97,298.58" />
        <path d="M-237.97,298.58L-234.38,311.50L-235.66,309.06L-237.97,298.58" />
        <path d="M-237.97,298.58L-246.52,224.97" />
        <path d="M-258.31,6.45L-252.56,9.80L-239.45,23.03L-196.86,62.49L-179.20,80.22L-125.27,122.05L-95.50,147.44" />
        <path d="M-95.50,147.44L-79.57,160.82L-61.61,177.42L-44.83,189.94L-47.39,189.93L-56.25,183.55L-95.50,147.44" />
        <path d="M-95.50,147.44L-126.35,120.03L-171.55,82.81L-204.39,52.68L-230.79,29.74L-245.08,19.37L-263.70,7.89L-263.97,7.34L-259.25,6.25L-252.32,8.39L-213.39,36.82L-193.07,50.32L-134.81,92.03L-47.02,166.51L-36.39,174.57L-32.07,176.44L-29.27,176.67L-34.99,178.14L-37.42,180.52" />
      </g>
    </g>
    <g id="t2" transform="translate(80.91 528.62)" class="thread">
      <g id="f0" style="--index:0; opacity:1;" class="frame">
        <path d="M-3714.31,2525.32L-3761.75,2554.30L-3809.34,2576.54L-3861.68,2594.42L-3915.00,2608.64L-3972.93,2615.23L-4029.63,2615.64L-4083.16,2610.58L-4142.15,2598.90L-4196.20,2581.89" />
        <path d="M-2321.27,2166.67L-2299.53,2254.36L-2293.78,2283.24L-2284.14,2340.19L-2277.36,2397.22L-2273.84,2450.88L-2273.87,2505.86L-2277.79,2560.89L-2285.64,2614.65L-2298.02,2667.62L-2322.53,2742.15" />
      </g>
      <g id="f1" style="--index:1; opacity:0;" class="frame">
        <path d="M-2179.28,224.70" />
        <path d="M-2322.53,2742.15L-2333.06,2766.21L-2357.27,2814.87L-2386.45,2862.23L-2417.57,2905.80L-2454.75,2949.75L-2497.49,2992.87L-2540.72,3029.89L-2587.43,3064.29L-2636.31,3093.64L-2716.43,3131.02" />
      </g>
      <g id="f2" style="--index:2; opacity:0;" class="frame">
        <path d="M-2179.28,224.70L-2175.92,212.64L-2177.06,208.40L-2181.04,201.92L-2188.47,193.73L-2249.59,139.41L-2292.81,98.65" />
        <path d="M-2716.43,3131.02L-2773.53,3149.56L-2802.11,3157.18L-2858.56,3167.00L-2956.50,3169.55L-2989.37,3167.22L-3053.66,3158.80" />
      </g>
      <g id="f3" style="--index:3; opacity:0;" class="frame">
        <path d="M-2292.81,98.65L-2315.52,78.22L-2340.32,57.65L-2366.61,37.24L-2447.21,-20.42L-2477.02,-38.97L-2540.75,-74.95L-2573.74,-92.34" />
      </g>
      <g id="f4" style="--index:4; opacity:0;" class="frame">
        <path d="M-2573.74,-92.34L-2608.83,-108.78L-2644.49,-123.84L-2679.43,-137.39L-2716.05,-149.88L-2752.75,-160.04L-2788.47,-169.15L-2823.97,-176.32L-2860.24,-181.35L-2895.43,-185.06L-2930.90,-187.08" />
      </g>
      <g id="f5" style="--index:5; opacity:0;" class="frame">
        <path d="M-2930.90,-187.08L-2966.23,-187.44L-2999.33,-186.77L-3036.45,-183.81L-3072.01,-178.87L-3106.28,-172.96L-3139.79,-165.34L-3206.75,-147.17L-3241.38,-133.71L-3272.72,-119.11" />
        <path d="M-2311.42,641.80L-2332.86,644.60" />
      </g>
      <g id="f6" style="--index:6; opacity:0;" class="frame">
        <path d="M-3272.72,-119.11L-3301.18,-103.36L-3331.24,-83.95L-3358.85,-63.81L-3383.51,-43.83L-3434.71,4.17L-3457.45,27.55L-3507.19,81.01L-3531.01,108.00" />
        <path d="M-2332.86,644.60L-2344.33,647.04L-2360.23,648.66L-2481.55,646.35L-2511.85,647.89L-2544.12,650.56L-2574.71,654.48" />
      </g>
      <g id="f7" style="--index:7; opacity:0;" class="frame">
        <path d="M-3531.01,108.00L-3577.32,165.48L-3646.14,256.44L-3693.90,316.92L-3718.42,346.33L-3744.20,374.46L-3770.10,401.00" />
        <path d="M-2574.71,654.48L-2603.86,659.95L-2637.08,667.50L-2667.87,675.71L-2697.98,684.12L-2730.86,696.43L-2762.13,709.00L-2793.55,723.31L-2825.04,738.87L-2855.20,756.38L-2885.08,776.82" />
      </g>
      <g id="f8" style="--index:8; opacity:0;" class="frame">
        <path d="M-3770.10,401.00L-3796.61,426.39L-3824.69,450.52L-3853.56,473.23L-3883.20,494.22L-3913.99,513.60L-3946.02,530.61L-3979.07,544.97L-4014.25,555.96L-4050.29,565.27L-4088.00,569.47" />
        <path d="M-2885.08,776.82L-2914.35,800.34L-2941.54,825.53L-2967.55,852.79L-2992.43,881.99L-3015.30,912.57L-3036.92,945.14L-3059.25,981.20L-3078.67,1017.41L-3096.55,1055.52L-3113.60,1094.41" />
        <path d="M-2007.19,1081.62L-2042.77,1106.13L-2070.14,1120.97" />
      </g>
      <g id="f9" style="--index:9; opacity:0;" class="frame">
        <path d="M-4088.00,569.47L-4129.81,569.45L-4169.63,565.75L-4210.12,559.52L-4251.55,550.93L-4292.48,539.59L-4333.71,526.72L-4374.12,512.31L-4412.56,496.45L-4449.65,479.85L-4483.44,463.30" />
        <path d="M-3113.60,1094.41L-3129.88,1135.10L-3144.06,1177.46L-3157.16,1221.15L-3169.08,1265.83L-3192.24,1360.03L-3233.32,1559.64" />
        <path d="M-2070.14,1120.97L-2103.37,1136.99L-2188.19,1173.70L-2244.03,1201.99L-2271.21,1218.71L-2308.75,1249.35L-2320.85,1261.36" />
      </g>
      <g id="f10" style="--index:10; opacity:0;" class="frame">
        <path d="M-4483.44,463.30L-4515.36,445.32" />
        <path d="M-3233.32,1559.64L-3256.45,1661.30L-3269.76,1711.90L-3299.18,1814.61L-3315.44,1867.30L-3351.66,1976.07L-3370.24,2030.07L-3390.46,2082.90" />
        <path d="M-2320.85,1261.36L-2355.15,1302.62L-2364.44,1315.57L-2384.25,1347.96L-2400.97,1380.83L-2422.26,1434.25L-2432.72,1474.39L-2436.39,1494.92L-2442.34,1537.71L-2444.27,1581.73L-2441.49,1648.37" />
      </g>
      <g id="f11" style="--index:11; opacity:0;" class="frame">
        <path d="M-3390.46,2082.90L-3410.88,2131.16L-3434.44,2179.95L-3462.39,2231.53L-3489.71,2277.39L-3521.98,2326.27L-3553.50,2368.32L-3590.62,2412.87L-3629.00,2453.83L-3669.60,2491.15L-3714.31,2525.32" />
        <path d="M-2441.49,1648.37L-2435.67,1699.49L-2431.67,1724.52L-2422.16,1775.97L-2410.06,1828.65L-2389.00,1912.67L-2321.27,2166.67" />
      </g>
    </g>
  </g>
</svg>