<?xml version="1.0" encoding="utf-8"?>
<svg width="1366" height="1024" viewBox="-683 -512 1366 1024" xmlns="http://www.w3.org/2000/svg">
  <style>
svg { background-color:#000000; }

#looom {
--version:2; --tempo:120; --musicTime:0; 
}

#t0 {
--visible:1; --timeOffset:3.999996; --speed:12; --bookmarkIndex:-1; --latched:0; --playMode:0; --masked:0; --blendMode:0; --pressureEnabled:0; 
stroke:#FF0037; stroke-opacity:1; fill-opacity:0; stroke-width:12.95697; stroke-linecap:round; stroke-linejoin:round;
}
@keyframes t0 { 0% { opacity: 1; } 8.333333% { opacity: 0; } }
#t0 .frame { animation:t0 1s calc(var(--index) * 0.08333334s) steps(1) infinite; }

#t1 {
--visible:1; --timeOffset:3.999996; --speed:12; --bookmarkIndex:-1; --latched:0; --playMode:0; --masked:0; --blendMode:0; --pressureEnabled:0; 
stroke:#FF7200; stroke-opacity:1; fill-opacity:0; stroke-width:10; stroke-linecap:round; stroke-linejoin:round;
}
@keyframes t1 { 0% { opacity: 1; } 8.333333% { opacity: 0; } }
#t1 .frame { animation:t1 1s calc(var(--index) * 0.08333334s) steps(1) infinite; }

#t2 {
--visible:1; --timeOffset:3.999996; --speed:12; --bookmarkIndex:-1; --latched:0; --playMode:0; --masked:0; --blendMode:0; --pressureEnabled:0; 
stroke:#FFE600; stroke-opacity:1; fill-opacity:0; stroke-width:10; stroke-linecap:round; stroke-linejoin:round;
}
@keyframes t2 { 0% { opacity: 1; } 8.333333% { opacity: 0; } }
#t2 .frame { animation:t2 1s calc(var(--index) * 0.08333334s) steps(1) infinite; }

#t3 {
--visible:1; --timeOffset:3.999996; --speed:12; --bookmarkIndex:-1; --latched:0; --playMode:0; --masked:0; --blendMode:0; --pressureEnabled:0; 
stroke:#35C4F2; stroke-opacity:1; fill-opacity:0; stroke-width:10; stroke-linecap:round; stroke-linejoin:round;
}
@keyframes t3 { 0% { opacity: 1; } 8.333333% { opacity: 0; } }
#t3 .frame { animation:t3 1s calc(var(--index) * 0.08333334s) steps(1) infinite; }

#t4 {
--visible:1; --timeOffset:3.999996; --speed:12; --bookmarkIndex:-1; --latched:0; --playMode:0; --masked:0; --blendMode:0; --pressureEnabled:0; 
stroke:#00FFCD; stroke-opacity:1; fill-opacity:0; stroke-width:10; stroke-linecap:round; stroke-linejoin:round;
}
@keyframes t4 { 0% { opacity: 1; } 8.333333% { opacity: 0; } }
#t4 .frame { animation:t4 1s calc(var(--index) * 0.08333334s) steps(1) infinite; }

</style>
  <g id="w0" transform="translate(142.00 -1.00) scale(0.40 0.40) rotate(-0.60)" class="weave">
    <g id="t0" transform="translate(-393.58 -67.68)" class="thread">
      <g id="f0" style="--index:0; opacity:1;" class="frame">
        <path d="M197.58,-20.19L201.48,-35.59L203.60,-41.50L207.44,-47.73" />
        <path d="M483.16,56.70L477.47,59.50L465.15,61.75" />
        <path d="M541.23,185.10L548.98,188.67L558.05,189.14" />
        <path d="M449.33,346.80L458.14,353.63L464.36,359.60" />
        <path d="M194.53,381.36L194.53,384.08L191.22,387.80L188.30,395.16" />
      </g>
      <g id="f1" style="--index:1; opacity:0;" class="frame">
        <path d="M371.00,356.55L370.33,350.05L364.64,331.14" />
      </g>
      <g id="f2" style="--index:2; opacity:0;" class="frame">
        <path d="M360.33,318.66L351.86,298.10" />
      </g>
      <g id="f3" style="--index:3; opacity:0;" class="frame">
        <path d="M348.34,286.94L345.57,278.46L332.19,253.44" />
      </g>
      <g id="f4" style="--index:4; opacity:0;" class="frame">
        <path d="M330.48,245.14L316.03,216.22" />
      </g>
      <g id="f5" style="--index:5; opacity:0;" class="frame">
        <path d="M313.05,206.27L306.36,196.97L297.96,178.47" />
      </g>
      <g id="f6" style="--index:6; opacity:0;" class="frame">
        <path d="M284.98,180.85L280.35,183.56L275.51,194.25" />
        <path d="M277.64,165.13L262.53,161.74" />
        <path d="M284.33,155.44L276.64,138.25" />
        <path d="M302.07,156.63L304.99,155.64L310.86,150.39" />
        <path d="M315.70,170.24L335.71,170.83" />
        <path d="M300.61,180.72L315.18,204.74" />
      </g>
      <g id="f7" style="--index:7; opacity:0;" class="frame">
        <path d="M265.51,126.25L254.73,109.39" />
        <path d="M335.23,125.91L325.04,132.81L317.22,140.25" />
        <path d="M368.08,176.94L353.66,175.41" />
        <path d="M317.95,216.28L330.21,233.74" />
        <path d="M265.26,205.47L260.55,215.81L258.63,223.58" />
        <path d="M239.56,157.03L226.65,154.70L219.42,154.25" />
      </g>
      <g id="f8" style="--index:8; opacity:0;" class="frame">
        <path d="M343.71,119.47L364.04,111.38" />
        <path d="M407.35,178.92L409.00,181.11L385.03,180.13" />
        <path d="M336.35,249.33L350.86,263.99" />
        <path d="M250.08,238.58L250.15,245.47L246.77,255.10" />
        <path d="M210.35,158.75L197.58,156.10" />
        <path d="M249.90,99.64L244.79,92.14L239.10,80.86" />
      </g>
      <g id="f9" style="--index:9; opacity:0;" class="frame">
        <path d="M233.93,71.24L228.18,64.41L224.01,53.39" />
        <path d="M386.63,96.19L383.50,95.06L379.27,95.99L374.37,98.31" />
        <path d="M446.62,188.75L438.80,187.55L425.36,187.10" />
        <path d="M363.18,274.41L380.73,288.61" />
        <path d="M239.95,268.44L239.89,277.72L236.64,288.21" />
        <path d="M180.82,154.97L173.42,153.45L162.08,154.64" />
      </g>
      <g id="f10" style="--index:10; opacity:0;" class="frame">
        <path d="M214.40,44.44L208.90,31.42" />
        <path d="M396.16,86.63L400.07,87.69L414.37,84.64" />
        <path d="M468.00,190.80L470.65,191.80L489.45,190.47" />
        <path d="M398.80,299.16L411.98,311.57" />
        <path d="M227.63,307.38L223.13,319.39L221.03,327.55" />
        <path d="M145.80,154.25L138.84,152.99L125.73,152.78" />
      </g>
      <g id="f11" style="--index:11; opacity:0;" class="frame">
        <path d="M201.08,15.44L199.64,8.34L198.91,-4.27" />
        <path d="M447.93,70.84L445.16,73.69L439.72,75.02L428.94,76.02" />
        <path d="M522.43,190.67L517.07,192.47L500.04,193.78" />
        <path d="M423.11,317.41L426.61,322.18L434.76,328.69" />
        <path d="M209.77,345.68L209.17,351.11L202.81,363.11" />
        <path d="M106.80,151.66L85.94,149.86" />
      </g>
    </g>
    <g id="t1" transform="translate(-393.58 -67.68)" class="thread">
      <g id="f0" style="--index:0; opacity:1;" class="frame">
        <path d="M-334.79,206.92L-332.60,204.27L-330.96,196.25L-326.91,187.16" />
      </g>
      <g id="f1" style="--index:1; opacity:0;" class="frame">
        <path d="M-320.62,168.38L-318.76,165.86L-312.41,151.66" />
      </g>
      <g id="f2" style="--index:2; opacity:0;" class="frame">
        <path d="M-303.55,132.02L-299.84,127.05L-295.06,122.72" />
      </g>
      <g id="f3" style="--index:3; opacity:0;" class="frame">
        <path d="M-281.43,108.99L-275.80,120.27" />
        <path d="M-293.48,107.33L-298.11,118.81" />
        <path d="M-303.94,96.45L-314.14,96.66" />
        <path d="M-297.31,82.13L-296.92,79.59L-299.04,66.99" />
        <path d="M-281.49,83.45L-278.37,82.45L-269.51,73.89" />
        <path d="M-264.01,88.56L-259.57,90.94L-250.90,92.27" />
      </g>
      <g id="f4" style="--index:4; opacity:0;" class="frame">
        <path d="M-262.82,60.36L-259.38,59.30L-254.00,55.84" />
        <path d="M-220.05,95.25L-225.34,95.39L-228.32,94.53" />
        <path d="M-274.01,133.61L-261.57,142.03" />
        <path d="M-304.28,140.97L-308.63,146.35L-310.82,151.06" />
        <path d="M-328.71,98.64L-332.87,97.58L-339.09,97.38" />
        <path d="M-303.21,59.95L-302.21,53.66L-303.80,44.83" />
      </g>
      <g id="f5" style="--index:5; opacity:0;" class="frame">
        <path d="M-243.75,45.89L-238.51,43.17L-230.97,41.45" />
        <path d="M-199.85,87.50L-194.74,89.95L-189.72,91.28" />
        <path d="M-252.23,154.05L-242.62,163.06" />
        <path d="M-315.66,170.03L-315.45,173.81L-319.89,180.19" />
        <path d="M-358.03,103.55L-368.37,104.49" />
        <path d="M-308.57,33.22L-309.36,29.03L-312.95,19.81" />
      </g>
      <g id="f6" style="--index:6; opacity:0;" class="frame">
        <path d="M-225.67,29.30L-222.30,29.70L-220.69,29.03L-209.92,21.34" />
        <path d="M-172.69,88.30L-167.73,91.08L-160.31,91.67" />
        <path d="M-233.80,177.33L-223.42,186.69" />
        <path d="M-324.85,194.66L-326.39,199.63L-330.89,208.05" />
        <path d="M-382.13,111.78L-384.38,113.91L-392.92,114.56" />
        <path d="M-319.64,4.89L-324.60,-5.27" />
      </g>
      <g id="f7" style="--index:7; opacity:0;" class="frame">
        <path d="M-202.04,13.98L-196.54,7.41L-189.57,3.36" />
        <path d="M-124.69,91.94L-128.06,93.14L-138.13,91.41" />
        <path d="M-213.88,197.97L-201.50,208.78" />
        <path d="M-336.71,223.05L-336.98,226.10L-343.53,239.71" />
        <path d="M-405.97,122.06L-409.29,125.25L-415.44,128.03" />
        <path d="M-337.50,-14.48L-339.82,-21.25L-341.48,-23.64" />
      </g>
      <g id="f8" style="--index:8; opacity:0;" class="frame">
        <path d="M-180.44,-6.72L-163.10,-14.75" />
        <path d="M-108.74,93.53L-98.47,96.52" />
        <path d="M-191.91,219.80L-183.15,229.28" />
        <path d="M-346.57,251.52L-348.36,258.88L-351.34,265.99" />
        <path d="M-426.90,130.95L-440.20,133.61L-447.76,137.13" />
        <path d="M-346.17,-30.22L-356.11,-46.34" />
      </g>
      <g id="f9" style="--index:9; opacity:0;" class="frame">
        <path d="M-154.22,-22.78L-139.92,-27.23" />
        <path d="M-79.46,99.97L-75.43,104.34L-65.43,107.20" />
        <path d="M-169.19,237.99L-164.56,243.10L-159.98,249.86" />
        <path d="M-358.64,282.36L-358.49,285.75L-359.22,287.82L-362.74,292.72" />
        <path d="M-462.58,142.44L-465.23,144.42L-476.42,146.81" />
        <path d="M-366.12,-54.83L-369.10,-57.34L-375.37,-68.09" />
      </g>
      <g id="f10" style="--index:10; opacity:0;" class="frame">
        <path d="M-125.75,-30.48L-109.72,-31.28" />
        <path d="M-45.90,114.70L-42.92,116.89L-26.70,122.80" />
        <path d="M-150.91,261.21L-145.61,267.85L-139.53,272.35" />
        <path d="M-366.24,305.27L-367.25,310.30L-371.14,315.68" />
        <path d="M-488.53,149.86L-492.00,152.25L-499.87,153.99" />
        <path d="M-389.55,-77.99L-392.59,-83.63L-396.84,-89.20" />
      </g>
      <g id="f11" style="--index:11; opacity:0;" class="frame" />
    </g>
    <g id="t2" transform="translate(-393.58 -67.68)" class="thread">
      <g id="f0" style="--index:0; opacity:1;" class="frame" />
      <g id="f1" style="--index:1; opacity:0;" class="frame">
        <path d="M-209.83,409.96L-207.73,408.30L-203.56,398.75L-199.18,392.05L-187.47,376.99" />
      </g>
      <g id="f2" style="--index:2; opacity:0;" class="frame">
        <path d="M-178.32,363.46L-175.55,362.46L-171.50,357.74L-162.89,352.89L-150.12,348.05" />
      </g>
      <g id="f3" style="--index:3; opacity:0;" class="frame">
        <path d="M-125.96,337.58L-118.66,335.25L-86.42,330.68" />
      </g>
      <g id="f4" style="--index:4; opacity:0;" class="frame">
        <path d="M-68.35,305.13L-68.28,285.63" />
        <path d="M-82.71,309.64L-96.94,300.16" />
        <path d="M-56.55,308.32L-35.23,295.50" />
        <path d="M-27.95,334.99L-35.10,331.80L-51.80,330.00" />
        <path d="M-69.41,339.57L-68.87,351.58L-67.16,359.07" />
        <path d="M-87.75,325.10L-93.63,328.22L-105.09,337.38" />
      </g>
      <g id="f5" style="--index:5; opacity:0;" class="frame">
        <path d="M-68.41,280.17L-68.60,254.89" />
        <path d="M-11.73,279.25L-27.56,285.28L-35.31,290.39" />
        <path d="M-19.55,334.66L-2.25,343.68" />
        <path d="M-66.62,368.63L-65.55,375.19L-65.55,384.88" />
        <path d="M-110.12,341.96L-125.54,351.18L-133.57,358.80" />
        <path d="M-105.37,291.33L-125.29,277.52" />
      </g>
      <g id="f6" style="--index:6; opacity:0;" class="frame">
        <path d="M-69.99,248.00L-69.01,242.10L-68.87,228.22" />
        <path d="M17.61,266.71L7.61,268.83L-3.92,273.41" />
        <path d="M7.73,349.46L22.18,355.43L31.06,361.99" />
        <path d="M-64.57,391.46L-63.57,398.61L-63.84,410.83" />
        <path d="M-141.90,367.16L-144.82,371.02L-157.39,379.71" />
        <path d="M-138.65,270.57L-161.25,256.42" />
      </g>
      <g id="f7" style="--index:7; opacity:0;" class="frame">
        <path d="M-68.01,217.88L-68.41,199.16" />
        <path d="M44.63,261.33L38.06,262.60L27.99,263.00" />
        <path d="M42.90,367.10L46.73,370.28L61.91,378.71" />
        <path d="M-63.91,424.49L-62.91,428.27L-61.53,449.32" />
        <path d="M-163.69,387.14L-174.69,392.91L-183.88,398.96" />
        <path d="M-173.82,248.39L-177.53,247.27L-187.72,239.38" />
      </g>
      <g id="f8" style="--index:8; opacity:0;" class="frame">
        <path d="M-69.87,194.99L-70.06,171.69" />
        <path d="M80.64,256.03L59.72,256.36" />
        <path d="M72.95,381.96L74.75,384.69L83.23,392.79L88.40,399.02" />
        <path d="M-58.95,459.60L-57.15,466.49L-57.03,475.72" />
        <path d="M-196.87,408.38L-200.64,410.69L-212.75,414.61" />
        <path d="M-203.50,233.86L-207.58,232.74L-220.17,222.05" />
      </g>
      <g id="f9" style="--index:9; opacity:0;" class="frame">
        <path d="M-72.58,158.75L-71.72,150.60" />
        <path d="M103.22,252.32L94.42,251.38" />
        <path d="M107.87,410.49L111.31,414.61L117.52,419.25" />
        <path d="M-53.57,490.97L-52.84,497.41" />
        <path d="M-227.45,420.11L-237.18,422.18" />
        <path d="M-232.89,215.69L-237.60,213.03" />
      </g>
      <g id="f10" style="--index:10; opacity:0;" class="frame">
        <path d="M-74.31,135.41L-73.43,126.52" />
        <path d="M125.00,250.66L121.44,251.25L120.16,250.52" />
        <path d="M133.02,427.94L137.19,433.05" />
        <path d="M-252.08,428.74L-254.08,430.80L-256.00,431.07" />
        <path d="M-251.75,208.99L-254.61,209.31L-257.98,208.46" />
      </g>
      <g id="f11" style="--index:11; opacity:0;" class="frame">
        <path d="M-74.16,107.94L-73.70,99.70" />
        <path d="M140.97,252.38L144.34,253.17L148.05,252.52" />
        <path d="M154.54,447.58L158.52,451.57" />
        <path d="M-269.84,436.83L-275.20,441.49" />
        <path d="M-276.85,199.83" />
      </g>
    </g>
    <g id="t3" transform="translate(-393.58 -67.68)" class="thread">
      <g id="f0" style="--index:0; opacity:1;" class="frame">
        <path d="M306.84,-299.92L314.51,-304.11L326.43,-308.83" />
        <path d="M410.85,-205.78L414.44,-204.72L423.50,-204.58L455.56,-201.33" />
        <path d="M344.84,-19.59L350.20,-15.02L354.38,-10.05L359.68,0.31L361.66,7.14" />
        <path d="M155.26,2.09L155.72,4.56L150.70,14.77L143.28,33.16" />
        <path d="M56.80,-121.38L54.30,-118.99L37.73,-113.88L30.06,-110.09" />
        <path d="M65.35,-283.28L60.57,-285.27L51.05,-286.92L40.58,-286.92L37.48,-286.27" />
      </g>
      <g id="f1" style="--index:1; opacity:0;" class="frame">
        <path d="M348.94,-323.02L345.90,-319.91L337.69,-315.86" />
        <path d="M488.53,-193.30L484.28,-194.36L472.44,-199.41" />
        <path d="M375.04,21.14L379.27,33.09L383.98,42.31" />
        <path d="M139.17,49.88L138.71,54.66L132.69,65.53" />
        <path d="M7.88,-105.19L5.63,-101.74L0.40,-98.89" />
        <path d="M22.18,-289.25L11.38,-290.05L5.09,-289.25L-2.92,-286.92" />
      </g>
      <g id="f2" style="--index:2; opacity:0;" class="frame" />
      <g id="f3" style="--index:3; opacity:0;" class="frame">
        <path d="M342.19,-34.92L341.73,-37.64L334.04,-54.89L322.85,-72.81" />
      </g>
      <g id="f4" style="--index:4; opacity:0;" class="frame">
        <path d="M321.26,-75.74L314.24,-88.86L295.44,-114.67" />
      </g>
      <g id="f5" style="--index:5; opacity:0;" class="frame">
        <path d="M295.83,-114.02L284.91,-126.10L262.01,-146.33" />
      </g>
      <g id="f6" style="--index:6; opacity:0;" class="frame">
        <path d="M261.67,-150.64L244.12,-161.92L230.43,-173.39" />
      </g>
      <g id="f7" style="--index:7; opacity:0;" class="frame">
        <path d="M239.04,-203.33L229.43,-182.42" />
        <path d="M216.98,-182.49L212.48,-190.52L200.50,-206.58" />
        <path d="M259.88,-183.61L239.77,-177.85" />
        <path d="M233.99,-162.92L244.39,-147.99" />
        <path d="M220.48,-158.67L216.92,-154.63L211.94,-142.49" />
        <path d="M206.92,-169.28L186.59,-168.69" />
      </g>
      <g id="f8" style="--index:8; opacity:0;" class="frame">
        <path d="M239.29,-206.38L241.29,-208.56L246.85,-224.22" />
        <path d="M288.69,-187.74L283.12,-186.35L270.09,-185.41" />
        <path d="M245.12,-142.94L250.75,-134.45L258.90,-124.89" />
        <path d="M206.31,-134.52L206.46,-130.80L204.85,-124.97L200.16,-114.34" />
        <path d="M180.42,-168.63L175.59,-166.50L160.10,-161.92" />
        <path d="M195.72,-209.56L190.37,-217.06L180.82,-227.94" />
      </g>
      <g id="f9" style="--index:9; opacity:0;" class="frame">
        <path d="M244.66,-222.71L250.81,-238.69L256.59,-247.11" />
        <path d="M321.33,-193.17L303.92,-190.78" />
        <path d="M261.21,-119.86L275.24,-107.84L280.22,-101.28L282.66,-96.63" />
        <path d="M194.26,-105.19L193.74,-100.49L187.18,-86.94" />
        <path d="M147.99,-157.41L137.78,-152.77" />
        <path d="M173.15,-231.78L148.45,-251.77" />
      </g>
      <g id="f10" style="--index:10; opacity:0;" class="frame">
        <path d="M256.90,-247.19L258.50,-252.22L261.21,-256.61L269.55,-265.89" />
        <path d="M357.03,-198.67L350.47,-197.28L332.12,-196.89" />
        <path d="M290.81,-89.80L294.46,-85.95L306.84,-67.50" />
        <path d="M179.36,-78.84L178.51,-71.08L170.63,-45.55" />
        <path d="M127.52,-148.19L123.75,-146.19L114.02,-143.74L107.60,-141.16" />
        <path d="M133.55,-263.03L117.60,-269.94" />
      </g>
      <g id="f11" style="--index:11; opacity:0;" class="frame">
        <path d="M274.32,-271.47L276.70,-274.39L280.54,-277.30L300.55,-290.50" />
        <path d="M393.72,-201.60L375.37,-200.67" />
        <path d="M318.28,-59.94L320.35,-56.63L329.14,-47.33L333.85,-38.97" />
        <path d="M167.65,-36.78L166.98,-33.33L163.48,-25.97L159.70,-14.55" />
        <path d="M96.46,-133.19L91.17,-130.35L75.48,-127.08" />
        <path d="M102.88,-276.85L89.84,-278.83L80.58,-279.24" />
      </g>
    </g>
    <g id="t4" transform="translate(-393.58 -67.68)" class="thread">
      <g id="f0" style="--index:0; opacity:1;" class="frame">
        <path d="M-267.20,-408.22L-281.68,-396.14" />
        <path d="M-177.73,-290.17L-181.78,-290.97L-195.01,-296.67L-206.79,-300.39L-212.29,-301.13" />
        <path d="M-180.57,-230.13L-210.50,-238.36" />
        <path d="M-325.79,-157.88L-312.47,-115.55" />
        <path d="M-425.77,-187.39L-426.30,-183.81L-429.09,-180.03L-442.99,-164.31" />
        <path d="M-480.20,-261.64L-488.01,-260.25L-510.40,-253.96" />
        <path d="M-452.98,-357.13L-460.46,-361.64L-477.88,-369.07" />
        <path d="M-381.88,-410.88L-380.67,-414.99L-381.61,-421.69L-383.52,-428.52L-388.42,-440.07" />
      </g>
      <g id="f1" style="--index:1; opacity:0;" class="frame">
        <path d="M-227.66,-435.22L-234.47,-432.24L-241.77,-426.72L-256.34,-409.88" />
        <path d="M-138.13,-276.17L-164.75,-287.66" />
        <path d="M-125.23,-207.64L-150.45,-217.19" />
        <path d="M-312.07,-101.41L-309.63,-94.97L-304.01,-69.50" />
        <path d="M-458.75,-144.74L-461.79,-139.50L-475.11,-124.70" />
        <path d="M-532.85,-251.16L-554.42,-246.72" />
        <path d="M-499.39,-379.49L-503.31,-382.21L-508.54,-384.07L-532.64,-390.44" />
        <path d="M-401.41,-456.85L-398.95,-459.38L-399.16,-462.22L-401.60,-468.54L-410.68,-487.24L-417.50,-496.93" />
      </g>
      <g id="f2" style="--index:2; opacity:0;" class="frame">
        <path d="M-211.90,-448.96L-206.67,-452.74" />
        <path d="M-123.10,-273.72L-115.62,-271.41" />
        <path d="M-109.87,-195.96L-103.57,-190.66" />
        <path d="M-309.09,-53.50L-308.05,-39.38" />
        <path d="M-489.41,-103.80L-490.79,-101.20L-495.04,-98.49" />
        <path d="M-567.28,-239.08L-578.73,-236.71" />
        <path d="M-555.09,-399.60L-563.97,-400.46" />
        <path d="M-424.92,-494.27L-423.86,-497.79L-424.98,-499.72L-431.59,-505.22" />
      </g>
      <g id="f3" style="--index:3; opacity:0;" class="frame" />
      <g id="f4" style="--index:4; opacity:0;" class="frame">
        <path d="M-481.66,-83.77L-473.51,-122.64" />
      </g>
      <g id="f5" style="--index:5; opacity:0;" class="frame">
        <path d="M-471.40,-123.97L-462.71,-148.45" />
      </g>
      <g id="f6" style="--index:6; opacity:0;" class="frame">
        <path d="M-436.49,-188.06L-444.51,-176.58L-450.87,-162.39" />
      </g>
      <g id="f7" style="--index:7; opacity:0;" class="frame">
        <path d="M-406.31,-223.83L-408.68,-222.50L-414.64,-216.00L-424.44,-201.47" />
      </g>
      <g id="f8" style="--index:8; opacity:0;" class="frame">
        <path d="M-365.72,-252.75L-385.90,-236.97L-396.91,-227.02" />
      </g>
      <g id="f9" style="--index:9; opacity:0;" class="frame">
        <path d="M-344.86,-263.71L-343.34,-242.67" />
        <path d="M-359.22,-274.66L-361.01,-271.14L-365.79,-266.10L-370.14,-259.33" />
        <path d="M-371.94,-285.41L-374.19,-287.07L-381.67,-288.85L-402.14,-289.46" />
        <path d="M-367.31,-302.66L-379.96,-316.25" />
        <path d="M-354.20,-312.21L-353.20,-318.11L-353.59,-333.38" />
        <path d="M-320.89,-334.30L-326.91,-325.88L-332.87,-314.86" />
        <path d="M-293.00,-303.72L-308.30,-300.86" />
        <path d="M-301.30,-269.61L-312.07,-269.47L-319.37,-271.27" />
      </g>
      <g id="f10" style="--index:10; opacity:0;" class="frame">
        <path d="M-306.78,-360.64L-314.14,-351.22L-318.10,-344.78" />
        <path d="M-257.52,-301.46L-260.63,-303.05L-278.24,-302.78" />
        <path d="M-261.76,-257.80L-281.83,-262.11" />
        <path d="M-340.36,-237.96L-332.21,-201.00" />
        <path d="M-380.88,-248.11L-382.21,-244.46L-387.30,-238.49L-392.99,-229.27" />
        <path d="M-409.81,-284.27L-420.33,-284.53L-430.80,-281.82" />
        <path d="M-386.90,-313.68L-408.10,-334.24" />
        <path d="M-360.10,-336.03L-358.76,-341.33L-362.08,-360.38" />
      </g>
      <g id="f11" style="--index:11; opacity:0;" class="frame">
        <path d="M-286.33,-385.39L-293.42,-380.75L-299.84,-372.58" />
        <path d="M-229.51,-299.00L-256.59,-303.99" />
        <path d="M-229.05,-247.46L-247.06,-252.75" />
        <path d="M-334.67,-201.86L-333.00,-196.75L-329.10,-169.61" />
        <path d="M-403.66,-219.52L-404.18,-215.39L-411.93,-206.91" />
        <path d="M-435.45,-278.71L-438.43,-276.64L-458.29,-272.39" />
        <path d="M-413.12,-332.52L-419.88,-339.28L-433.38,-350.16" />
        <path d="M-363.26,-366.28L-361.74,-371.13L-362.14,-376.71L-366.97,-392.83" />
      </g>
    </g>
  </g>
</svg>