<?xml version="1.0" encoding="utf-8"?>
<svg width="1366" height="1024" viewBox="-683 -512 1366 1024" xmlns="http://www.w3.org/2000/svg">
  <style>
svg { background-color:#48BCFC; }

#looom {
--version:2; --tempo:120; --musicTime:0; 
}

#t0 {
--visible:1; --timeOffset:12; --speed:12; --bookmarkIndex:-1; --latched:0; --playMode:0; --masked:0; --blendMode:0; --pressureEnabled:0; 
stroke:#0098FF; stroke-opacity:1; fill-opacity:0; stroke-width:10; stroke-linecap:round; stroke-linejoin:round;
}
@keyframes t0 { 0% { opacity: 1; } 6.25% { opacity: 0; } }
#t0 .frame { animation:t0 1.333333s calc(var(--index) * 0.08333334s) steps(1) infinite; }

#t1 {
--visible:1; --timeOffset:14.66667; --speed:12; --bookmarkIndex:-1; --latched:0; --playMode:0; --masked:0; --blendMode:0; --pressureEnabled:0; 
stroke:#FF6900; stroke-opacity:1; fill-opacity:0; stroke-width:10; stroke-linecap:round; stroke-linejoin:round;
}
@keyframes t1 { 0% { opacity: 1; } 6.25% { opacity: 0; } }
#t1 .frame { animation:t1 1.333333s calc(var(--index) * 0.08333334s) steps(1) infinite; }

#t2 {
--visible:1; --timeOffset:13.33333; --speed:12; --bookmarkIndex:-1; --latched:0; --playMode:0; --masked:0; --blendMode:0; --pressureEnabled:0; 
stroke:#000000; stroke-opacity:1; fill-opacity:0; stroke-width:1; stroke-linecap:round; stroke-linejoin:round;
}
@keyframes t2 { 0% { opacity: 1; } 6.25% { opacity: 0; } }
#t2 .frame { animation:t2 1.333333s calc(var(--index) * 0.08333334s) steps(1) infinite; }

#t3 {
--visible:1; --timeOffset:1.333333; --speed:12; --bookmarkIndex:-1; --latched:0; --playMode:0; --masked:0; --blendMode:0; --pressureEnabled:0; 
stroke:#06F7FF; stroke-opacity:1; fill-opacity:0; stroke-width:13.0542; stroke-linecap:round; stroke-linejoin:round;
}
@keyframes t3 { 0% { opacity: 1; } 6.25% { opacity: 0; } }
#t3 .frame { animation:t3 1.333333s calc(var(--index) * 0.08333334s) steps(1) infinite; }

</style>
  <g id="w0" transform="translate(-425.75 -93.75) scale(0.99 0.99) rotate(-10.01)" class="weave">
    <g id="t0" transform="translate(691.63 74.16)" class="thread">
      <g id="f0" style="--index:0; opacity:1;" class="frame">
        <path d="M-358.75,-101.65L-376.37,-96.38L-392.04,-88.37" />
        <path d="M-316.28,-66.56L-312.58,-65.06L-285.26,-65.19L-277.90,-64.56" />
        <path d="M-359.19,-147.76L-354.87,-147.28L-344.93,-149.19L-317.73,-150.66" />
      </g>
      <g id="f1" style="--index:1; opacity:0;" class="frame">
        <path d="M-310.47,-121.61L-314.14,-122.49L-323.11,-120.74L-338.69,-115.45L-355.66,-107.74" />
        <path d="M-322.13,-78.84L-319.56,-78.68L-313.41,-80.12L-300.38,-80.75L-289.53,-80.86L-274.76,-79.70" />
        <path d="M-340.02,-148.52L-332.23,-152.41L-325.08,-153.91L-287.11,-157.60" />
      </g>
      <g id="f2" style="--index:2; opacity:0;" class="frame">
        <path d="M-295.54,-118.49L-312.54,-114.70L-326.63,-110.50" />
        <path d="M-284.67,-82.87L-280.44,-82.97L-268.90,-85.41L-263.03,-85.27L-256.19,-84.15L-243.83,-79.47" />
        <path d="M-309.32,-156.38L-280.70,-156.54L-270.90,-154.86" />
      </g>
      <g id="f3" style="--index:3; opacity:0;" class="frame">
        <path d="M-249.97,-119.90L-270.09,-126.10" />
        <path d="M-240.87,-67.76L-232.74,-61.12L-225.88,-53.46L-220.18,-41.82L-218.87,-36.86" />
        <path d="M-218.79,-151.90L-216.41,-150.33L-202.95,-145.49L-193.46,-138.98" />
      </g>
      <g id="f4" style="--index:4; opacity:0;" class="frame">
        <path d="M-186.95,-91.35L-197.80,-96.76L-213.62,-107.26" />
        <path d="M-210.21,-27.85L-207.40,-23.49L-205.06,-15.34L-203.31,1.53L-203.72,7.30" />
        <path d="M-140.58,-100.78L-136.26,-100.18L-133.06,-97.31L-126.69,-88.69L-118.86,-75.07" />
      </g>
      <g id="f5" style="--index:5; opacity:0;" class="frame">
        <path d="M-119.99,-8.96L-130.25,-22.65" />
        <path d="M-188.41,16.18L-183.57,22.74L-176.54,39.66L-172.94,59.33L-172.82,67.34" />
        <path d="M-76.42,-21.30L-71.53,-15.85L-65.29,-4.57L-59.51,9.19L-57.10,18.16" />
      </g>
      <g id="f6" style="--index:6; opacity:0;" class="frame">
        <path d="M-74.22,103.67L-72.48,95.96L-71.56,84.79L-73.70,63.58" />
        <path d="M-166.68,89.42L-164.78,93.03L-163.83,100.54L-166.18,125.16L-167.77,133.20L-175.07,154.59L-178.82,162.52" />
        <path d="M-25.17,131.90L-23.18,134.53L-22.90,136.61L-23.51,144.60L-27.46,158.39L-32.72,168.65" />
      </g>
      <g id="f7" style="--index:7; opacity:0;" class="frame">
        <path d="M-97.28,213.85L-93.69,212.00L-91.51,208.32L-89.76,203.29L-87.49,189.95" />
        <path d="M-174.06,188.68L-174.14,192.33L-178.85,198.26L-198.98,218.38L-203.86,222.36L-218.29,230.91L-225.27,233.49L-234.48,235.64" />
        <path d="M-67.83,258.00L-68.15,260.69L-91.36,281.32" />
      </g>
      <g id="f8" style="--index:8; opacity:0;" class="frame">
        <path d="M-164.51,298.03L-160.42,299.34L-158.38,298.57L-152.49,294.85L-135.52,280.50" />
        <path d="M-265.18,259.20L-268.86,261.29L-295.75,262.24L-315.18,261.17L-325.55,259.62L-329.98,258.13" />
        <path d="M-159.51,342.16L-159.93,345.26L-162.48,346.21L-191.27,354.22L-206.98,357.58" />
      </g>
      <g id="f9" style="--index:9; opacity:0;" class="frame">
        <path d="M-284.52,335.22L-277.60,335.85L-254.30,332.55" />
        <path d="M-323.78,275.62L-326.87,277.25L-329.07,277.06L-342.75,275.23L-350.77,273.32L-365.97,268.49L-378.70,262.52" />
        <path d="M-306.86,373.27L-312.73,374.95L-328.72,373.29L-337.79,370.80L-351.49,365.56" />
      </g>
      <g id="f10" style="--index:10; opacity:0;" class="frame">
        <path d="M-415.43,297.05L-413.34,299.82L-391.63,308.21" />
        <path d="M-413.55,234.94L-416.95,234.41L-420.31,232.77L-434.06,222.99L-442.93,214.50L-449.69,205.70" />
        <path d="M-452.13,334.17L-455.72,333.31L-476.51,315.17L-485.42,305.32L-492.67,294.52" />
      </g>
      <g id="f11" style="--index:11; opacity:0;" class="frame">
        <path d="M-516.74,188.44L-512.38,198.60L-505.85,208.80L-496.28,218.88L-486.41,226.32" />
        <path d="M-450.56,173.31L-454.74,171.80L-460.94,166.85L-466.17,160.42L-469.50,153.63L-471.74,141.40L-471.35,119.37" />
        <path d="M-574.20,199.24L-577.04,196.50L-578.62,193.55L-580.77,184.38L-579.98,170.65L-577.09,162.24" />
      </g>
      <g id="f12" style="--index:12; opacity:0;" class="frame">
        <path d="M-548.45,84.40L-547.57,101.34L-544.72,113.03L-540.67,124.45" />
        <path d="M-467.62,68.50L-467.51,59.21L-465.85,49.44L-462.33,42.30L-456.87,35.05L-449.18,27.36L-440.21,19.29L-424.17,6.72" />
        <path d="M-601.58,56.03L-599.84,49.39L-592.66,37.59L-589.90,34.68L-577.39,25.24" />
      </g>
      <g id="f13" style="--index:13; opacity:0;" class="frame">
        <path d="M-530.28,12.32L-536.71,49.17" />
        <path d="M-451.87,18.61L-449.80,13.93L-443.02,6.05L-437.75,1.01L-430.36,-4.49L-414.51,-13.41L-401.48,-17.69" />
        <path d="M-559.88,-28.06L-552.55,-38.48L-546.81,-43.76L-535.82,-49.82L-527.56,-52.65" />
      </g>
      <g id="f14" style="--index:14; opacity:0;" class="frame">
        <path d="M-469.67,-46.33L-471.26,-44.14L-477.27,-40.19L-486.14,-32.41L-496.08,-22.37" />
        <path d="M-405.90,-24.63L-403.14,-25.87L-397.16,-31.49L-392.66,-34.46L-377.71,-40.90L-368.01,-43.98L-360.62,-45.37L-349.54,-45.33" />
        <path d="M-488.83,-95.95L-477.41,-103.69L-471.86,-105.77L-445.71,-110.97" />
      </g>
      <g id="f15" style="--index:15; opacity:0;" class="frame">
        <path d="M-411.92,-76.28L-425.11,-69.98L-438.38,-58.53" />
        <path d="M-353.79,-55.91L-351.15,-54.86L-343.84,-59.76L-334.10,-62.56L-315.26,-63.19L-302.07,-62.73" />
        <path d="M-417.78,-128.85L-413.47,-133.71L-409.63,-135.35L-393.83,-137.32" />
      </g>
    </g>
    <g id="t1" transform="translate(436.99 209.66)" class="thread">
      <g id="f0" style="--index:0; opacity:1;" class="frame">
        <path d="M-34.77,-238.16" />
        <path d="M-76.02,-235.71L-70.39,-233.85L-50.00,-231.60L-26.62,-231.72L-19.80,-232.85L-13.65,-235.24L-7.82,-238.75L-6.50,-240.55L-6.84,-242.08L-10.00,-243.66L-22.05,-244.72L-53.32,-245.19L-63.70,-243.21L-81.39,-237.10L-83.65,-239.61L-85.69,-246.13L-86.63,-246.78L-87.61,-229.21L-86.21,-231.52L-82.19,-234.17L-70.20,-237.69L-47.61,-240.55L-15.51,-241.41" />
        <path d="M-15.51,-241.41L-15.51,-241.41" />
        <path d="M-15.51,-241.41L-58.40,-241.28L-50.86,-240.67L-27.89,-241.08" />
      </g>
      <g id="f1" style="--index:1; opacity:0;" class="frame">
        <path d="M-32.58,-255.94L-38.81,-269.02L-39.54,-249.11L-34.83,-254.22L-29.35,-256.27L-9.88,-255.94L8.86,-251.42L14.42,-248.97L18.53,-244.99L9.19,-243.21L-9.34,-243.53L-26.37,-251.83L-30.20,-255.94L-29.26,-256.00L3.23,-249.38L4.56,-249.38L2.38,-250.97L-2.58,-251.24" />
      </g>
      <g id="f2" style="--index:2; opacity:0;" class="frame">
        <path d="M-15.76,-256.74L-23.57,-264.03L-24.30,-248.05L-22.05,-249.03L-15.17,-255.55L-6.75,-257.80L17.47,-258.19L25.16,-256.35L37.21,-250.89L40.58,-248.25L44.48,-242.88L35.48,-240.88L11.78,-241.14L2.17,-243.47L-2.65,-246.31L-12.19,-253.88L-12.32,-254.88L4.81,-254.56" />
        <path d="M4.81,-254.56L26.55,-252.69L37.66,-248.71L23.09,-249.97L4.81,-254.56" />
        <path d="M4.81,-254.56L-1.13,-255.02L-3.52,-253.55L-4.38,-252.22L-3.98,-250.83L22.91,-241.14L23.16,-243.47L20.78,-247.38L15.88,-252.75L11.84,-255.41" />
      </g>
      <g id="f3" style="--index:3; opacity:0;" class="frame">
        <path d="M29.45,-244.92L28.81,-247.01" />
        <path d="M28.81,-247.01L26.41,-260.78L22.70,-252.36L19.07,-240.55L22.03,-241.81L28.81,-247.01" />
        <path d="M28.81,-247.01L29.33,-247.19L25.89,-252.75L22.91,-256.00L23.30,-243.21L26.95,-244.72L29.45,-244.72L36.33,-240.63" />
        <path d="M36.33,-240.63L40.92,-237.16L70.31,-221.17L80.31,-208.77L82.90,-201.39L76.48,-200.94L70.64,-202.99L57.86,-211.88L52.84,-216.66L41.83,-230.99L36.33,-240.63" />
        <path d="M36.33,-240.63L33.10,-245.33L31.52,-245.92L31.70,-243.66L34.43,-240.02L39.47,-235.71" />
        <path d="M39.47,-235.71L49.46,-227.81L59.05,-222.71L62.49,-219.72L58.80,-220.64L55.67,-222.63L39.47,-235.71" />
        <path d="M39.47,-235.71L30.97,-243.60L29.45,-245.66L31.85,-244.13L57.47,-219.25L63.30,-212.88L68.05,-205.91L73.89,-202.27L75.54,-202.00L75.14,-203.72L72.70,-207.83L67.20,-214.08L61.11,-217.60L64.89,-213.81" />
      </g>
      <g id="f4" style="--index:4; opacity:0;" class="frame">
        <path d="M89.65,-198.14L90.27,-200.34" />
        <path d="M90.27,-200.34L94.55,-212.22L86.00,-206.77L81.23,-202.46L78.79,-199.02L86.88,-200.74L90.27,-200.34" />
        <path d="M90.27,-200.34L92.02,-198.35L105.74,-188.92L117.39,-178.38L125.27,-169.55L131.23,-159.13L131.50,-151.17L129.25,-150.31L124.35,-151.03L113.22,-158.41L100.70,-171.61L95.21,-179.11L86.27,-198.28L93.94,-189.13L109.05,-173.39L116.00,-163.64L114.29,-164.70L95.28,-186.80L101.76,-177.19L117.45,-159.39L123.02,-154.63L116.14,-169.88" />
        <path d="M116.14,-169.88L116.14,-169.88" />
        <path d="M116.14,-169.88L114.41,-170.02L106.99,-178.38" />
      </g>
      <g id="f5" style="--index:5; opacity:0;" class="frame">
        <path d="M152.22,-113.69L153.14,-119.59L157.66,-131.14" />
        <path d="M157.66,-131.14L157.66,-131.14" />
        <path d="M157.66,-131.14L145.59,-126.55L142.03,-123.64L141.57,-120.92L143.28,-117.86L145.99,-115.20L148.74,-114.31" />
        <path d="M148.74,-114.31L153.68,-113.42L158.18,-109.44L162.62,-103.66L166.19,-96.89L169.83,-87.47L171.69,-79.19L172.61,-66.50L171.36,-61.73L169.11,-62.19L165.94,-65.70L159.50,-75.92L149.97,-101.61L148.78,-107.38L148.74,-114.31" />
        <path d="M148.74,-114.31L149.24,-121.11L161.35,-85.28L162.08,-79.78L161.50,-79.64L156.94,-91.86" />
        <path d="M156.94,-91.86L152.01,-104.59L156.94,-91.86" />
        <path d="M156.94,-91.86L166.33,-70.95" />
      </g>
      <g id="f6" style="--index:6; opacity:0;" class="frame">
        <path d="M179.05,3.16L184.47,-3.08L191.49,-8.25L176.92,-11.77L173.94,-11.83L173.21,-9.97L173.48,-5.06L177.58,4.81" />
        <path d="M177.58,4.81L181.61,11.66L183.28,19.55L182.88,32.63L180.97,40.31L175.80,54.25L170.96,62.48L163.48,70.38L160.23,71.70L159.64,68.13L159.70,49.34L161.43,35.73L164.27,27.52L170.36,15.56L177.58,4.81" />
        <path d="M177.58,4.81L179.36,2.97L180.69,2.70L180.57,4.83L170.56,33.95L163.27,58.63L173.09,23.59L162.00,62.10" />
        <path d="M162.00,62.10L161.68,63.28L162.00,62.10" />
        <path d="M162.00,62.10L168.77,47.36L170.96,40.45L175.80,1.83L179.17,-8.98L177.84,-6.19L176.51,-5.73" />
        <path d="M176.51,-5.73L176.46,-6.53L176.51,-5.73" />
        <path d="M176.51,-5.73L176.46,-4.20" />
      </g>
      <g id="f7" style="--index:7; opacity:0;" class="frame">
        <path d="M147.78,109.13L150.30,107.47L158.77,104.41L142.43,94.80L143.25,113.15" />
        <path d="M143.25,113.15L140.30,119.41L136.13,125.05L126.13,134.94L119.18,140.52L97.47,151.45L93.03,152.13L90.84,151.13L90.17,149.20L90.65,146.88L95.28,142.70L116.20,127.77L133.75,116.63L136.86,114.77L143.25,113.15" />
        <path d="M143.25,113.15L144.61,111.78L143.22,112.17L126.69,122.69" />
        <path d="M126.69,122.69L112.49,133.20L97.74,148.61L111.89,138.78L119.64,131.88L126.69,122.69" />
        <path d="M126.69,122.69L126.92,121.67L125.21,122.00L120.77,124.85L99.57,143.63L95.88,146.02" />
      </g>
      <g id="f8" style="--index:8; opacity:0;" class="frame">
        <path d="M67.72,171.10L76.93,173.36L76.27,170.77L71.37,163.00L69.12,156.63L68.26,156.36L67.87,157.36L66.41,169.05" />
        <path d="M66.41,169.05L59.32,175.88L48.46,182.58L40.37,186.16L25.01,191.33L8.92,194.31L-3.92,194.99L-11.73,193.25L-15.97,190.41L-16.09,187.81L-15.03,187.16L6.02,180.25L26.81,175.20L50.05,170.70L66.41,169.05" />
        <path d="M66.41,169.05L67.66,169.31L53.69,172.83L0.95,190.75" />
        <path d="M0.95,190.75L0.06,190.94L0.95,190.75" />
        <path d="M0.95,190.75L37.54,178.06L32.89,178.13L8.41,184.28" />
        <path d="M8.41,184.28L2.31,186.42L5.09,186.16L8.41,184.28" />
        <path d="M8.41,184.28L8.46,184.24" />
      </g>
      <g id="f9" style="--index:9; opacity:0;" class="frame">
        <path d="M-62.39,190.21L-54.05,189.74L-46.56,187.69L-59.86,202.94L-60.53,203.08L-60.86,201.96L-61.78,191.33L-66.05,191.02" />
        <path d="M-66.05,191.02L-80.00,185.03L-88.06,180.66L-97.74,178.66L-112.43,174.08L-121.58,172.42L-127.08,172.49L-130.59,173.69L-131.90,176.20L-132.04,178.99L-129.86,181.91L-114.89,187.10L-78.08,192.47L-70.66,192.33L-66.05,191.02" />
        <path d="M-66.05,191.02L-66.43,189.41L-68.20,188.94L-84.83,187.49L-100.89,184.24" />
        <path d="M-100.89,184.24L-117.08,180.45L-122.58,180.52L-124.29,181.78L-113.16,183.83L-100.89,184.24" />
        <path d="M-100.89,184.24L-94.54,184.24" />
        <path d="M-94.54,184.24L-87.21,184.63L-94.54,184.24" />
        <path d="M-94.54,184.24L-105.03,182.78L-120.00,178.66" />
      </g>
      <g id="f10" style="--index:10; opacity:0;" class="frame">
        <path d="M-186.34,138.05L-195.93,121.41L-202.50,113.17L-212.08,104.49L-223.42,96.72L-228.99,94.53L-230.18,96.05L-230.43,97.99L-230.18,106.00L-227.93,111.78L-220.30,122.72L-215.27,128.10L-210.71,131.42L-205.14,134.27L-190.38,139.29" />
        <path d="M-190.38,139.29L-176.07,143.36L-173.75,145.42L-179.11,150.60L-183.61,158.22L-184.49,156.17L-185.74,142.83L-187.86,142.36L-190.38,139.29" />
        <path d="M-190.38,139.29L-218.78,107.27L-222.03,104.88L-223.09,104.75L-221.36,108.33L-197.85,134.80L-199.39,134.35L-212.08,119.55L-224.74,106.88L-224.67,111.19L-222.15,117.69L-215.88,128.24L-210.50,135.20L-208.98,136.33L-209.44,134.53L-217.00,122.66L-220.84,114.97L-220.90,113.91L-220.11,113.83L-217.92,115.36L-211.96,121.94" />
      </g>
      <g id="f11" style="--index:11; opacity:0;" class="frame">
        <path d="M-272.89,20.41L-272.22,14.58L-272.68,-5.66L-273.68,-16.75L-275.60,-24.97L-278.31,-32.08L-283.60,-40.97L-292.94,-51.11L-296.06,-52.23L-296.59,-41.83L-293.08,-16.41L-288.91,-2.81L-283.08,12.39L-279.70,19.22L-276.01,24.05" />
        <path d="M-276.01,24.05L-265.53,33.55L-277.97,38.98L-276.01,24.05" />
        <path d="M-276.01,24.05L-274.93,14.31L-275.07,8.08L-281.68,-25.44L-287.18,-35.59L-291.35,-40.30L-293.00,-41.16L-292.48,-36.92L-287.89,-22.13" />
        <path d="M-287.89,-22.13L-278.64,15.44L-280.83,-1.75L-283.68,-12.97L-287.89,-22.13" />
        <path d="M-287.89,-22.13L-291.81,-27.75L-292.35,-27.89L-292.48,-23.52L-290.96,-15.69L-283.08,5.48" />
      </g>
      <g id="f12" style="--index:12; opacity:0;" class="frame">
        <path d="M-284.54,-78.25L-276.26,-87.81L-270.24,-98.03L-261.15,-115.20L-255.67,-129.55L-254.79,-141.42L-255.92,-142.88L-257.71,-143.08L-259.63,-141.42L-267.59,-128.28L-278.91,-104.45L-281.56,-97.30L-284.54,-86.34L-285.45,-76.33L-286.12,-75.74L-285.98,-71.96" />
        <path d="M-285.98,-71.96L-283.35,-62.59L-285.52,-62.66L-298.11,-67.91L-294.94,-68.30L-285.98,-71.96" />
        <path d="M-285.98,-71.96L-283.68,-81.56L-273.41,-104.99L-266.92,-125.03L-266.38,-127.16L-268.38,-124.44L-271.49,-117.33L-279.16,-94.53" />
        <path d="M-279.16,-94.53L-279.83,-93.11L-279.16,-94.53" />
        <path d="M-279.16,-94.53L-266.53,-119.72" />
      </g>
      <g id="f13" style="--index:13; opacity:0;" class="frame">
        <path d="M-246.52,-150.97L-248.46,-149.25L-246.46,-149.52L-241.62,-151.97L-216.34,-168.22L-206.67,-175.33L-194.22,-187.33L-192.64,-192.97L-198.52,-191.85L-209.98,-187.80L-223.94,-179.11L-236.72,-169.16L-251.10,-151.97L-255.16,-145.06" />
        <path d="M-255.16,-145.06L-257.38,-140.75L-257.52,-135.91L-258.65,-135.91L-263.55,-142.88L-266.99,-146.33L-261.63,-145.06L-255.16,-145.06" />
        <path d="M-255.16,-145.06L-251.96,-145.60L-247.52,-150.05L-208.12,-179.83L-207.39,-181.77L-208.92,-182.03L-220.01,-175.73" />
        <path d="M-220.01,-175.73L-241.95,-162.31L-238.24,-163.19L-232.95,-166.30L-220.01,-175.73" />
        <path d="M-220.01,-175.73L-212.17,-181.69L-216.40,-178.91" />
      </g>
      <g id="f14" style="--index:14; opacity:0;" class="frame">
        <path d="M-161.91,-208.71L-158.33,-208.77L-151.85,-210.56L-138.01,-215.39L-130.19,-219.19L-123.04,-224.63L-115.56,-232.46L-115.41,-233.46L-117.02,-233.85L-126.94,-233.38L-150.51,-224.03L-165.08,-215.60L-192.83,-191.38L-199.70,-196.49L-203.23,-198.08L-195.87,-181.95" />
        <path d="M-195.87,-181.95L-195.87,-181.95" />
        <path d="M-195.87,-181.95L-193.89,-190.85L-192.10,-193.71L-187.99,-197.02L-164.08,-211.55L-144.09,-219.25L-132.84,-225.28L-126.87,-229.95" />
        <path d="M-126.87,-229.95L-125.75,-230.92L-126.87,-229.95" />
        <path d="M-126.87,-229.95L-134.88,-222.03L-149.60,-211.49L-159.73,-206.85L-165.59,-205.84" />
        <path d="M-165.59,-205.84L-173.29,-204.52L-176.73,-202.92L-175.15,-204.52L-150.24,-217.33L-154.22,-213.14L-165.59,-205.84" />
        <path d="M-165.59,-205.84L-190.45,-192.17L-196.33,-190.25" />
        <path d="M-196.33,-190.25L-196.33,-190.25" />
        <path d="M-196.33,-190.25L-196.20,-190.25" />
      </g>
      <g id="f15" style="--index:15; opacity:0;" class="frame">
        <path d="M-111.91,-224.96L-104.30,-224.36L-96.42,-225.49L-80.79,-228.53L-68.08,-232.66L-57.42,-238.56L-51.65,-244.39L-52.26,-245.78L-54.96,-246.66L-61.45,-247.25L-82.77,-243.41L-100.32,-238.56L-119.46,-229.21L-124.90,-224.36" />
        <path d="M-124.90,-224.36L-129.73,-219.05L-138.53,-212.35L-141.51,-222.24L-124.90,-224.36" />
        <path d="M-124.90,-224.36L-79.60,-234.91L-69.80,-239.26" />
        <path d="M-69.80,-239.26L-67.01,-242.41L-75.89,-241.88L-99.13,-234.17L-105.62,-231.46L-107.14,-230.06L-100.38,-230.46L-69.80,-239.26" />
        <path d="M-69.80,-239.26L-59.34,-242.35L-65.09,-242.41L-84.29,-236.83" />
      </g>
    </g>
    <g id="t2" transform="translate(436.99 209.66)" class="thread">
      <g id="f0" style="--index:0; opacity:1;" class="frame">
        <path d="M-15.60,-242.56" />
        <path d="M-17.42,-241.94L-16.17,-242.64" />
        <path d="M-16.17,-242.64L-15.29,-243.13L-15.52,-243.73L-17.78,-243.91L-18.28,-241.13L-17.12,-239.79L-15.84,-239.61L-15.25,-242.02L-16.17,-242.64" />
        <path d="M-16.17,-242.64L-17.21,-242.23L-16.08,-241.82L-16.42,-242.54" />
      </g>
      <g id="f1" style="--index:1; opacity:0;" class="frame">
        <path d="M13.06,-248.82" />
        <path d="M13.76,-248.52L13.78,-248.58" />
        <path d="M13.78,-248.58L14.24,-250.00L13.37,-250.31L12.48,-248.44L13.49,-248.25L13.53,-249.09L12.74,-248.44L13.78,-248.58" />
        <path d="M13.78,-248.58L14.26,-249.91L13.09,-250.01L13.07,-248.62L13.86,-248.43L14.33,-249.28" />
      </g>
      <g id="f2" style="--index:2; opacity:0;" class="frame">
        <path d="M40.59,-246.40L39.20,-246.71" />
        <path d="M39.20,-246.71L38.17,-245.33L40.10,-245.13L41.20,-247.94L39.74,-248.22L39.20,-246.71" />
        <path d="M39.20,-246.71L39.45,-246.51" />
        <path d="M39.45,-246.51L39.91,-247.27L39.37,-247.78L38.97,-245.83L39.45,-246.51" />
        <path d="M39.45,-246.51L39.08,-246.89" />
      </g>
      <g id="f3" style="--index:3; opacity:0;" class="frame">
        <path d="M79.37,-204.68L79.21,-206.26" />
        <path d="M79.21,-206.26L78.31,-205.14L79.57,-203.96L80.08,-205.65L79.21,-206.26" />
        <path d="M79.21,-206.26L78.49,-205.50" />
        <path d="M78.49,-205.50L78.49,-205.50" />
        <path d="M78.49,-205.50L78.37,-205.52" />
      </g>
      <g id="f4" style="--index:4; opacity:0;" class="frame">
        <path d="M127.00,-157.47L128.05,-158.40" />
        <path d="M128.05,-158.40L127.45,-159.49L126.34,-158.76L125.80,-156.38L126.33,-155.57L127.27,-155.70L128.05,-158.40" />
        <path d="M128.05,-158.40L127.17,-158.78" />
        <path d="M127.17,-158.78L126.12,-157.03L127.06,-157.39L127.17,-158.78" />
        <path d="M127.17,-158.78L125.69,-157.01L126.76,-156.32L127.10,-157.66" />
      </g>
      <g id="f5" style="--index:5; opacity:0;" class="frame">
        <path d="M170.79,-70.60L169.82,-69.40L170.66,-69.43L170.83,-71.41" />
        <path d="M170.83,-71.41L169.60,-69.81L170.83,-71.41" />
        <path d="M170.83,-71.41L170.26,-71.69L169.43,-69.99L170.76,-69.76L171.47,-70.74L171.04,-71.23" />
      </g>
      <g id="f6" style="--index:6; opacity:0;" class="frame">
        <path d="M166.54,62.92L165.28,62.00L164.71,63.39L165.63,63.78" />
        <path d="M165.63,63.78L166.62,63.70L166.54,62.07L164.27,62.63L164.14,63.76L165.63,63.78" />
        <path d="M165.63,63.78L165.86,62.86L164.98,62.50L164.56,63.32L165.13,63.03" />
      </g>
      <g id="f7" style="--index:7; opacity:0;" class="frame">
        <path d="M95.18,146.76L95.84,148.29L96.65,146.63L94.95,146.38" />
        <path d="M94.95,146.38L94.31,148.22L96.65,148.48L97.09,146.23L95.59,145.75L94.95,146.38" />
        <path d="M94.95,146.38L96.09,146.20" />
      </g>
      <g id="f8" style="--index:8; opacity:0;" class="frame">
        <path d="M-9.74,189.27L-7.43,188.73L-7.31,187.43L-8.46,187.15" />
        <path d="M-8.46,187.15L-10.05,187.93L-10.62,189.40L-7.91,190.40L-6.44,187.37L-8.46,187.15" />
        <path d="M-8.46,187.15L-9.55,188.44L-8.95,189.44L-8.71,188.11" />
      </g>
      <g id="f9" style="--index:9; opacity:0;" class="frame">
        <path d="M-127.25,176.10L-127.59,176.06" />
        <path d="M-127.59,176.06L-129.88,175.79L-130.48,177.89L-127.59,178.59L-126.28,176.29L-126.74,175.55L-127.59,176.06" />
        <path d="M-127.59,176.06L-127.97,177.68L-127.42,177.81L-126.40,176.16" />
      </g>
      <g id="f10" style="--index:10; opacity:0;" class="frame">
        <path d="M-227.51,100.72L-229.07,102.55L-228.65,102.97" />
        <path d="M-228.65,102.97L-227.30,102.73L-226.98,100.96L-227.64,100.26L-228.70,100.86L-229.32,103.07L-228.65,102.97" />
        <path d="M-228.65,102.97L-227.68,100.50" />
        <path d="M-227.68,100.50L-228.00,99.77L-227.68,100.50" />
        <path d="M-227.68,100.50L-227.60,100.51" />
      </g>
      <g id="f11" style="--index:11; opacity:0;" class="frame">
        <path d="M-291.78,-40.27L-291.66,-40.35" />
        <path d="M-291.66,-40.35L-289.66,-42.27L-291.60,-42.85L-292.14,-41.20L-291.66,-40.35" />
        <path d="M-291.66,-40.35L-290.33,-40.07L-290.15,-41.40L-290.25,-40.61" />
      </g>
      <g id="f12" style="--index:12; opacity:0;" class="frame">
        <path d="M-259.95,-133.67L-258.26,-134.87" />
        <path d="M-258.26,-134.87L-258.19,-135.66L-259.72,-135.75L-260.40,-133.06L-258.96,-133.22L-258.26,-134.87" />
        <path d="M-258.26,-134.87L-258.29,-134.93" />
      </g>
      <g id="f13" style="--index:13; opacity:0;" class="frame">
        <path d="M-199.40,-188.81L-201.62,-189.67L-201.99,-187.98L-199.55,-187.70L-199.82,-189.67" />
      </g>
      <g id="f14" style="--index:14; opacity:0;" class="frame">
        <path d="M-125.24,-232.06L-125.38,-231.98" />
        <path d="M-125.38,-231.98L-127.25,-230.90L-127.47,-229.88L-125.16,-229.56L-124.49,-231.27L-125.38,-231.98" />
        <path d="M-125.38,-231.98L-128.12,-231.40L-128.59,-229.85L-127.84,-228.94L-126.08,-228.64L-125.76,-230.14L-126.35,-230.78" />
      </g>
      <g id="f15" style="--index:15; opacity:0;" class="frame">
        <path d="M-58.56,-244.57L-59.60,-246.95L-60.50,-246.21" />
        <path d="M-60.50,-246.21L-59.84,-244.25L-59.47,-246.07L-60.50,-246.21" />
        <path d="M-60.50,-246.21L-61.54,-243.63L-59.22,-244.74" />
      </g>
    </g>
    <g id="t3" transform="translate(691.63 74.16)" class="thread">
      <g id="f0" style="--index:0; opacity:1;" class="frame">
        <path d="M-257.01,-136.14L-259.65,-135.38L-265.03,-136.37L-280.79,-142.33" />
        <path d="M-391.77,-121.71L-401.65,-119.17L-411.70,-114.60" />
        <path d="M-345.14,-62.54L-363.13,-55.90L-372.66,-49.71" />
        <path d="M-221.63,-125.49L-228.48,-126.61L-253.79,-137.99L-263.96,-141.44" />
        <path d="M-233.51,-57.80L-255.82,-65.74" />
        <path d="M-353.74,-74.64L-357.01,-72.99L-374.17,-70.14" />
      </g>
      <g id="f1" style="--index:1; opacity:0;" class="frame">
        <path d="M-228.80,-139.94L-237.17,-140.78L-251.95,-144.56" />
        <path d="M-287.63,-47.03L-290.07,-48.67L-299.56,-50.79L-308.88,-51.08L-316.91,-50.27" />
        <path d="M-338.57,-88.93L-341.84,-86.84L-359.22,-79.87" />
        <path d="M-221.72,-133.32L-242.50,-137.99L-251.09,-139.04" />
        <path d="M-357.13,-128.23L-363.17,-128.39L-369.63,-126.49L-380.49,-119.98L-385.16,-115.79" />
        <path d="M-321.48,-97.50L-326.61,-92.69L-346.64,-86.14L-354.67,-82.72L-362.12,-77.17" />
      </g>
      <g id="f2" style="--index:2; opacity:0;" class="frame">
        <path d="M-212.27,-143.93L-217.28,-143.07L-235.62,-144.79" />
        <path d="M-333.62,-139.26L-354.97,-132.53" />
        <path d="M-315.77,-80.95L-328.49,-75.82L-337.66,-69.95" />
      </g>
      <g id="f3" style="--index:3; opacity:0;" class="frame">
        <path d="M-151.42,-92.16L-151.91,-95.38L-153.86,-98.33L-166.89,-112.97" />
        <path d="M-267.10,-56.74L-274.16,-64.79L-285.15,-73.62" />
        <path d="M-251.33,-144.54L-264.22,-150.73L-272.88,-152.67" />
      </g>
      <g id="f4" style="--index:4; opacity:0;" class="frame">
        <path d="M-86.99,-30.02L-93.42,-39.47L-102.67,-56.82" />
        <path d="M-168.32,-116.45L-178.24,-123.10L-188.49,-128.24" />
        <path d="M-179.17,-14.07L-180.09,-18.55L-181.91,-22.45L-192.44,-39.98" />
      </g>
      <g id="f5" style="--index:5; opacity:0;" class="frame">
        <path d="M-61.21,46.69L-58.98,49.73L-56.85,57.72L-56.18,67.55L-56.53,77.31" />
        <path d="M-145.86,43.02L-153.66,23.71L-159.60,12.34" />
        <path d="M-113.45,-43.78L-114.53,-46.67L-122.82,-54.82L-132.59,-61.75" />
      </g>
      <g id="f6" style="--index:6; opacity:0;" class="frame">
        <path d="M-42.69,197.80L-43.95,200.74L-59.89,222.05" />
        <path d="M-136.30,153.18L-135.64,143.59L-137.75,117.48" />
        <path d="M-40.93,104.29L-39.07,99.38L-39.06,88.41L-40.54,68.66L-43.31,53.38" />
      </g>
      <g id="f7" style="--index:7; opacity:0;" class="frame">
        <path d="M-108.74,313.85L-110.60,316.21L-114.14,317.52L-119.77,318.92L-133.17,320.41" />
        <path d="M-148.76,212.96L-147.97,215.42L-148.72,216.37L-168.72,236.15" />
        <path d="M-50.85,189.16L-50.93,191.58L-58.08,198.60L-74.24,212.01" />
      </g>
      <g id="f8" style="--index:8; opacity:0;" class="frame">
        <path d="M-238.75,281.82L-241.38,284.63L-246.67,286.26L-273.74,288.04" />
        <path d="M-118.82,315.57L-122.11,319.21L-126.44,321.09L-147.46,327.06" />
        <path d="M-175.73,252.31L-176.96,254.49L-184.82,259.04L-198.22,263.60" />
      </g>
      <g id="f9" style="--index:9; opacity:0;" class="frame">
        <path d="M-237.18,372.33L-240.85,374.18L-244.89,374.37L-285.18,374.22" />
        <path d="M-388.11,357.59L-391.61,357.79L-396.95,355.26L-405.46,349.12" />
        <path d="M-270.88,286.28L-276.26,287.14L-288.65,284.82L-301.57,279.25" />
      </g>
      <g id="f10" style="--index:10; opacity:0;" class="frame">
        <path d="M-365.58,275.12L-367.61,272.74L-383.38,261.44L-392.34,252.32" />
        <path d="M-406.98,339.10L-409.56,339.37L-411.82,337.82L-426.10,324.67" />
        <path d="M-502.14,274.72L-504.88,273.97L-508.62,269.11L-512.15,262.97L-515.76,254.10L-518.23,242.84L-519.15,230.18" />
      </g>
      <g id="f11" style="--index:11; opacity:0;" class="frame">
        <path d="M-574.63,124.66L-576.04,111.56L-575.93,100.41" />
        <path d="M-492.88,146.62L-495.17,143.44L-497.63,132.12L-498.75,109.32" />
        <path d="M-539.99,208.87L-538.87,219.69L-536.79,226.94L-526.70,244.90" />
        <path d="M-494.06,112.07L-494.39,108.24L-491.93,89.41L-484.38,60.23" />
        <path d="M-591.12,125.61L-588.70,119.37L-585.33,97.19L-581.91,84.01" />
        <path d="M-527.59,243.29L-531.00,241.19L-536.27,228.62L-538.37,219.15L-539.52,207.26" />
      </g>
      <g id="f12" style="--index:12; opacity:0;" class="frame">
        <path d="M-483.66,16.88L-499.82,55.06" />
        <path d="M-547.04,-21.89L-549.63,-19.70L-554.86,-18.63L-560.12,-16.43L-565.45,-12.83L-570.32,-7.60" />
        <path d="M-580.01,92.70L-583.28,93.93L-585.31,101.60L-586.13,107.93L-584.12,124.34" />
        <path d="M-488.66,37.85L-484.41,33.24L-472.63,15.94L-463.26,5.06L-449.48,-7.30" />
        <path d="M-536.67,-20.33L-533.66,-20.60L-523.49,-32.84L-512.48,-42.50L-505.16,-47.13L-498.75,-50.04" />
        <path d="M-507.05,94.03L-506.70,109.03L-504.58,119.18" />
      </g>
      <g id="f13" style="--index:13; opacity:0;" class="frame">
        <path d="M-476.56,-92.96L-489.64,-88.69L-495.77,-85.67L-502.53,-80.59L-508.63,-74.11" />
        <path d="M-478.33,24.58L-482.61,33.16L-487.09,44.97L-488.84,51.30L-490.18,61.86" />
        <path d="M-562.39,-2.22L-568.42,6.01L-574.04,18.94" />
        <path d="M-395.73,-47.61L-399.00,-49.92L-400.55,-49.58L-411.64,-45.53L-420.38,-40.96L-428.85,-35.17L-441.24,-23.42" />
        <path d="M-458.74,-91.80L-461.94,-89.82L-471.62,-88.30L-482.32,-85.25L-491.52,-81.43L-497.71,-76.95" />
        <path d="M-484.30,29.71L-488.23,32.46L-494.48,41.90L-497.19,48.10L-499.41,57.97" />
      </g>
      <g id="f14" style="--index:14; opacity:0;" class="frame">
        <path d="M-381.90,-134.07L-388.51,-135.04L-395.86,-133.70L-402.38,-131.43L-408.77,-127.78" />
        <path d="M-434.99,-20.27L-448.05,-5.56L-455.22,4.75" />
        <path d="M-492.92,-68.59L-507.10,-61.30L-511.73,-57.41L-515.21,-53.24" />
        <path d="M-323.45,-83.69L-336.10,-82.70L-344.43,-81.12L-356.61,-77.58L-364.36,-73.51" />
        <path d="M-376.98,-143.14L-380.22,-138.98L-399.59,-129.19" />
        <path d="M-440.46,-26.91L-447.69,-21.58L-453.22,-16.13L-458.60,-8.94L-464.72,3.55" />
      </g>
      <g id="f15" style="--index:15; opacity:0;" class="frame">
        <path d="M-328.87,-142.70L-344.08,-144.68L-358.67,-141.23L-363.17,-139.11" />
        <path d="M-441.11,-98.55L-452.29,-91.10" />
        <path d="M-391.32,-50.92L-406.84,-41.58" />
        <path d="M-268.93,-88.32L-300.02,-83.36" />
        <path d="M-306.35,-149.64L-322.68,-147.18L-337.24,-146.58L-344.24,-145.31L-350.22,-142.79" />
        <path d="M-376.96,-54.39L-387.95,-48.40L-400.74,-39.61L-405.92,-34.44L-410.28,-28.40" />
      </g>
    </g>
  </g>
</svg>