<?xml version="1.0" encoding="utf-8"?>
<svg width="1366" height="1024" viewBox="-683 -512 1366 1024" xmlns="http://www.w3.org/2000/svg">
  <style>
svg { background-color:#000000; }

#looom {
--version:2; --tempo:120; --musicTime:0; 
}

#t0 {
--visible:1; --timeOffset:0; --speed:12; --bookmarkIndex:-1; --latched:0; --playMode:0; --masked:0; --blendMode:0; --pressureEnabled:0; 
stroke:#00C94E; stroke-opacity:1; fill-opacity:0; stroke-width:15.84028; stroke-linecap:round; stroke-linejoin:round;
}
@keyframes t0 { 0% { opacity: 1; } 8.333333% { opacity: 0; } }
#t0 .frame { animation:t0 1s calc(var(--index) * 0.08333334s) steps(1) infinite; }

#t1 {
--visible:1; --timeOffset:0; --speed:12; --bookmarkIndex:-1; --latched:0; --playMode:0; --masked:0; --blendMode:0; --pressureEnabled:0; 
stroke:#FFFFFF; stroke-opacity:1; fill-opacity:0; stroke-width:7.864865; stroke-linecap:round; stroke-linejoin:round;
}
@keyframes t1 { 0% { opacity: 1; } 8.333333% { opacity: 0; } }
#t1 .frame { animation:t1 1s calc(var(--index) * 0.08333334s) steps(1) infinite; }

#t2 {
--visible:1; --timeOffset:0; --speed:12; --bookmarkIndex:-1; --latched:0; --playMode:0; --masked:0; --blendMode:0; --pressureEnabled:0; 
stroke:#0CFF00; stroke-opacity:1; fill-opacity:0; stroke-width:7.864865; stroke-linecap:round; stroke-linejoin:round;
}
@keyframes t2 { 0% { opacity: 1; } 8.333333% { opacity: 0; } }
#t2 .frame { animation:t2 1s calc(var(--index) * 0.08333334s) steps(1) infinite; }

</style>
  <g id="w0" transform="translate(-82.50 -312.25) scale(0.99 0.99) rotate(-359.48)" class="weave">
    <g id="t0" transform="translate(83.50 331.00)" class="thread">
      <g id="f0" style="--index:0; opacity:1;" class="frame">
        <path d="M-357.43,-422.75L-357.18,-407.69" />
        <path d="M-353.32,-141.42L-353.47,-105.99" />
        <path d="M-337.83,352.38L-335.58,379.50" />
        <path d="M-190.91,-230.66L-190.91,-201.92" />
        <path d="M-177.34,17.95L-177.07,32.75" />
        <path d="M-130.71,390.39L-120.85,434.11" />
        <path d="M-6.90,-310.82L-5.90,-297.88" />
        <path d="M-0.60,-119.13L1.19,-98.09" />
        <path d="M22.70,180.45L26.74,213.83" />
        <path d="M33.16,488.19L38.39,506.77" />
        <path d="M174.86,-390.89L174.86,-360.32" />
        <path d="M182.01,-78.13L182.55,-55.95" />
        <path d="M204.60,239.64L206.71,271.96" />
        <path d="M381.40,-497.72L380.00,-494.74L379.67,-484.79" />
        <path d="M379.00,-135.64L379.00,-105.92" />
        <path d="M378.61,259.14L380.27,299.10" />
        <path d="M554.73,-452.74L549.71,-414.93" />
        <path d="M550.38,33.61L548.59,72.89" />
        <path d="M549.19,413.55L550.96,435.18" />
      </g>
      <g id="f1" style="--index:1; opacity:0;" class="frame">
        <path d="M-357.18,-407.69L-355.11,-392.36" />
        <path d="M-353.47,-105.99L-352.68,-66.58" />
        <path d="M-335.58,379.50L-334.27,402.60" />
        <path d="M-198.06,-452.68" />
        <path d="M-190.91,-201.92L-189.84,-173.66" />
        <path d="M-177.07,32.75L-175.48,50.08" />
        <path d="M-120.85,434.11L-110.51,477.24" />
        <path d="M-5.90,-297.88L-5.84,-284.67" />
        <path d="M1.19,-98.09L2.58,-76.27" />
        <path d="M26.74,213.83L28.60,239.38" />
        <path d="M38.39,506.77L39.58,510.82" />
        <path d="M174.86,-360.32L175.13,-336.03" />
        <path d="M182.55,-55.95L183.34,-34.13" />
        <path d="M206.71,271.96L209.10,309.11" />
        <path d="M379.67,-484.79L378.42,-462.90" />
        <path d="M379.00,-105.92L378.81,-76.99" />
        <path d="M380.27,299.10L382.65,330.08" />
        <path d="M549.71,-414.93L546.33,-389.50L545.73,-368.61" />
        <path d="M548.59,72.89L548.46,112.84" />
        <path d="M550.96,435.18L551.02,455.55" />
      </g>
      <g id="f2" style="--index:2; opacity:0;" class="frame">
        <path d="M-355.11,-392.36L-352.86,-377.50" />
        <path d="M-352.68,-66.58L-351.22,-23.52" />
        <path d="M-334.27,402.60L-332.54,427.88" />
        <path d="M-198.06,-452.68L-198.39,-442.19" />
        <path d="M-189.84,-173.66L-187.59,-149.91" />
        <path d="M-175.48,50.08L-173.82,68.92" />
        <path d="M-110.51,477.24L-102.24,504.91" />
        <path d="M-15.70,-421.49" />
        <path d="M-5.84,-284.67L-5.57,-272.07" />
        <path d="M2.58,-76.27L3.90,-50.78" />
        <path d="M28.60,239.38L29.12,269.63" />
        <path d="M175.13,-336.03L175.40,-314.86" />
        <path d="M183.34,-34.13L184.80,-9.52" />
        <path d="M209.10,309.11L211.36,343.82" />
        <path d="M378.42,-462.90L378.94,-438.14" />
        <path d="M378.81,-76.99L378.08,-44.34" />
        <path d="M382.65,330.08L383.90,354.83" />
        <path d="M545.73,-368.61L548.77,-330.13" />
        <path d="M548.46,112.84L547.86,151.39" />
        <path d="M551.02,455.55L551.96,473.99" />
      </g>
      <g id="f3" style="--index:3; opacity:0;" class="frame">
        <path d="M-352.86,-377.50L-350.42,-360.58" />
        <path d="M-351.22,-23.52L-348.90,19.61" />
        <path d="M-332.54,427.88L-330.81,458.33" />
        <path d="M-198.39,-442.19L-200.10,-421.02" />
        <path d="M-187.59,-149.91L-186.20,-127.35" />
        <path d="M-173.82,68.92L-171.50,90.67" />
        <path d="M-15.70,-421.49L-15.97,-412.86" />
        <path d="M-5.57,-272.07L-5.44,-260.58" />
        <path d="M3.90,-50.78L5.15,-28.81" />
        <path d="M29.12,269.63L28.81,294.58" />
        <path d="M175.40,-314.86L175.80,-294.57" />
        <path d="M184.80,-9.52L186.93,17.42" />
        <path d="M211.36,343.82L212.61,373.60" />
        <path d="M378.94,-438.14L379.61,-406.63" />
        <path d="M378.08,-44.34L377.08,-10.77" />
        <path d="M383.90,354.83L384.63,379.24" />
        <path d="M548.77,-330.13L550.50,-307.96L550.84,-285.33" />
        <path d="M547.86,151.39L546.86,187.10" />
        <path d="M551.96,473.99L552.82,491.24" />
      </g>
      <g id="f4" style="--index:4; opacity:0;" class="frame">
        <path d="M-350.42,-360.58L-349.30,-351.69L-349.82,-333.44" />
        <path d="M-348.90,19.61L-347.44,64.67" />
        <path d="M-330.81,458.33L-328.96,497.02" />
        <path d="M-200.10,-421.02L-198.91,-402.25" />
        <path d="M-186.20,-127.35L-185.01,-103.27" />
        <path d="M-171.50,90.67L-169.46,118.55" />
        <path d="M-15.97,-412.86L-16.03,-401.58" />
        <path d="M-5.44,-260.58L-5.44,-247.19" />
        <path d="M5.15,-28.81L6.42,-2.28" />
        <path d="M28.81,294.58L27.81,324.63" />
        <path d="M175.80,-294.57L176.80,-270.67" />
        <path d="M186.93,17.42L189.09,45.69" />
        <path d="M212.61,373.60L213.46,404.79" />
        <path d="M379.61,-406.63L379.15,-368.61" />
        <path d="M377.08,-10.77L376.69,18.42" />
        <path d="M384.63,379.24L385.03,404.85" />
        <path d="M550.84,-285.33L551.57,-240.28" />
        <path d="M546.86,187.10L545.81,219.47" />
        <path d="M552.82,491.24L554.73,508.16" />
      </g>
      <g id="f5" style="--index:5; opacity:0;" class="frame">
        <path d="M-349.82,-333.44L-352.68,-300.86" />
        <path d="M-347.44,64.67L-345.53,106.74" />
        <path d="M-328.96,497.02L-328.71,505.11" />
        <path d="M-198.91,-402.25L-197.33,-384.13" />
        <path d="M-185.01,-103.27L-183.76,-78.66" />
        <path d="M-169.46,118.55L-166.54,153.91" />
        <path d="M-16.03,-401.58L-15.36,-391.36" />
        <path d="M-5.44,-247.19L-5.38,-234.50" />
        <path d="M6.42,-2.28L9.19,25.19" />
        <path d="M27.81,324.63L26.55,358.94" />
        <path d="M176.80,-270.67L177.38,-242.61" />
        <path d="M189.09,45.69L191.16,72.30" />
        <path d="M213.46,404.79L215.32,432.79" />
        <path d="M379.15,-368.61L377.08,-327.80" />
        <path d="M376.69,18.42L376.17,50.80" />
        <path d="M385.03,404.85L385.03,434.64" />
        <path d="M551.57,-240.28L553.21,-198.28" />
        <path d="M545.81,219.47L545.48,248.47" />
        <path d="M554.73,508.16" />
      </g>
      <g id="f6" style="--index:6; opacity:0;" class="frame">
        <path d="M-352.68,-300.86L-352.86,-272.92" />
        <path d="M-345.53,106.74L-344.59,147.47" />
        <path d="M-197.33,-384.13L-195.08,-365.16" />
        <path d="M-183.76,-78.66L-182.63,-53.64" />
        <path d="M-166.54,153.91L-161.77,193.78" />
        <path d="M-15.36,-391.36L-14.38,-380.49" />
        <path d="M-5.38,-234.50L-5.38,-220.05" />
        <path d="M9.19,25.19L12.05,53.25" />
        <path d="M26.55,358.94L25.35,388.07" />
        <path d="M177.92,-492.61L176.80,-490.36" />
        <path d="M177.38,-242.61L178.32,-212.75" />
        <path d="M191.16,72.30L193.01,97.38" />
        <path d="M215.32,432.79L217.96,458.93" />
        <path d="M377.08,-327.80L376.69,-288.19" />
        <path d="M376.17,50.80L375.90,85.30" />
        <path d="M385.03,434.64L384.44,465.36" />
        <path d="M553.21,-198.28L554.01,-158.67" />
        <path d="M545.48,248.47L544.60,276.60" />
      </g>
      <g id="f7" style="--index:7; opacity:0;" class="frame">
        <path d="M-352.86,-272.92L-352.93,-252.16" />
        <path d="M-344.59,147.47L-344.59,191.14" />
        <path d="M-195.08,-365.16L-195.08,-334.30" />
        <path d="M-182.63,-53.64L-181.30,-32.73" />
        <path d="M-161.77,193.78L-156.08,234.80" />
        <path d="M-14.38,-380.49L-13.32,-369.27" />
        <path d="M-5.38,-220.05L-5.38,-202.06" />
        <path d="M12.05,53.25L13.76,76.88" />
        <path d="M25.35,388.07L24.22,412.16" />
        <path d="M176.80,-490.36L177.19,-478.02" />
        <path d="M178.32,-212.75L179.36,-183.08" />
        <path d="M193.01,97.38L194.72,123.25" />
        <path d="M217.96,458.93L220.55,485.94" />
        <path d="M376.69,-288.19L377.08,-249.11" />
        <path d="M375.90,85.30L375.90,120.20" />
        <path d="M384.44,465.36L385.84,495.36" />
        <path d="M554.01,-158.67L553.88,-119.66" />
        <path d="M544.60,276.60L544.42,304.39" />
      </g>
      <g id="f8" style="--index:8; opacity:0;" class="frame">
        <path d="M-352.93,-252.16L-353.20,-230.86" />
        <path d="M-344.59,191.14L-344.00,235.92" />
        <path d="M-195.08,-334.30L-194.68,-321.24L-192.16,-304.32" />
        <path d="M-181.30,-32.73L-179.53,-15.95" />
        <path d="M-156.08,234.80L-149.72,276.80" />
        <path d="M-13.32,-369.27L-12.07,-356.27" />
        <path d="M-5.38,-202.06L-5.04,-183.02" />
        <path d="M13.76,76.88L15.15,98.97" />
        <path d="M24.22,412.16L24.49,433.38" />
        <path d="M177.19,-478.02L176.71,-458.44" />
        <path d="M179.36,-183.08L180.17,-155.75" />
        <path d="M194.72,123.25L196.79,150.60" />
        <path d="M220.55,485.94L223.40,506.77" />
        <path d="M377.08,-249.11L377.42,-218.46" />
        <path d="M375.90,120.20L375.90,150.92" />
        <path d="M385.84,495.36L386.96,508.10" />
        <path d="M553.88,-119.66L553.69,-78.92" />
        <path d="M544.42,304.39L545.00,331.74" />
      </g>
      <g id="f9" style="--index:9; opacity:0;" class="frame">
        <path d="M-353.20,-230.86L-353.20,-204.72" />
        <path d="M-344.00,235.92L-342.88,279.46" />
        <path d="M-192.16,-304.32L-191.03,-292.57L-190.91,-280.75" />
        <path d="M-179.53,-15.95L-177.73,-2.61" />
        <path d="M-149.72,276.80L-143.57,316.00" />
        <path d="M-12.07,-356.27L-11.34,-343.19" />
        <path d="M-5.04,-183.02L-3.86,-163.11" />
        <path d="M15.15,98.97L16.67,124.85" />
        <path d="M24.49,433.38L26.35,452.04" />
        <path d="M176.71,-458.44L177.25,-442.99" />
        <path d="M180.17,-155.75L180.76,-129.28" />
        <path d="M196.79,150.60L199.64,178.99" />
        <path d="M377.42,-218.46L378.42,-187.80" />
        <path d="M375.90,150.92L376.17,185.63" />
        <path d="M562.76,-498.93" />
        <path d="M553.69,-78.92L552.48,-39.23" />
        <path d="M545.00,331.74L545.33,361.19" />
      </g>
      <g id="f10" style="--index:10; opacity:0;" class="frame">
        <path d="M-357.43,-429.85" />
        <path d="M-353.20,-204.72L-353.26,-174.00" />
        <path d="M-342.88,279.46L-340.21,319.00" />
        <path d="M-190.91,-280.75L-190.91,-256.35" />
        <path d="M-177.73,-2.61L-177.34,7.67" />
        <path d="M-143.57,316.00L-137.13,353.24" />
        <path d="M-11.34,-343.19L-9.00,-326.80" />
        <path d="M-3.86,-163.11L-2.40,-141.35" />
        <path d="M16.67,124.85L20.05,155.50" />
        <path d="M26.35,452.04L29.26,470.47" />
        <path d="M177.25,-442.99L175.59,-419.50" />
        <path d="M180.76,-129.28L181.36,-102.80" />
        <path d="M199.64,178.99L202.29,208.25" />
        <path d="M378.42,-187.80L378.67,-162.19" />
        <path d="M376.17,185.63L377.29,220.39" />
        <path d="M562.76,-498.93L559.45,-485.11" />
        <path d="M552.48,-39.23L551.57,-2.41" />
        <path d="M545.33,361.19L546.67,389.27" />
      </g>
      <g id="f11" style="--index:11; opacity:0;" class="frame">
        <path d="M-357.43,-429.85L-357.43,-422.75" />
        <path d="M-353.26,-174.00L-353.32,-141.42" />
        <path d="M-340.21,319.00L-337.83,352.38" />
        <path d="M-190.91,-256.35L-190.91,-230.66" />
        <path d="M-177.34,7.67L-177.34,17.95" />
        <path d="M-137.13,353.24L-130.71,390.39" />
        <path d="M-9.00,-326.80L-6.90,-310.82" />
        <path d="M-2.40,-141.35L-0.60,-119.13" />
        <path d="M20.05,155.50L22.70,180.45" />
        <path d="M29.26,470.47L33.16,488.19" />
        <path d="M175.59,-419.50L174.86,-390.89" />
        <path d="M181.36,-102.80L182.01,-78.13" />
        <path d="M202.29,208.25L204.60,239.64" />
        <path d="M381.40,-497.72" />
        <path d="M378.67,-162.19L379.00,-135.64" />
        <path d="M377.29,220.39L378.61,259.14" />
        <path d="M559.45,-485.11L555.73,-463.16L554.73,-452.74" />
        <path d="M551.57,-2.41L550.38,33.61" />
        <path d="M546.67,389.27L549.19,413.55" />
      </g>
    </g>
    <g id="t1" transform="translate(496.25 519.26)" class="thread">
      <g id="f0" style="--index:0; opacity:1;" class="frame">
        <path d="M-716.16,-524.29L-715.63,-508.96" />
        <path d="M-693.71,-193.25L-691.66,-157.28" />
        <path d="M-503.07,-567.62L-502.03,-553.01" />
        <path d="M-503.55,-286.41L-502.61,-253.17" />
        <path d="M-483.60,61.61L-483.14,91.47" />
        <path d="M-315.50,-575.04L-316.81,-552.74" />
        <path d="M-315.96,-221.72L-315.96,-192.99" />
        <path d="M-305.70,233.13L-304.24,279.38" />
        <path d="M-109.17,-367.43L-110.81,-331.60" />
        <path d="M-125.99,34.47L-129.15,75.67" />
        <path d="M66.05,-477.10L65.05,-443.00" />
        <path d="M43.99,-50.39L41.68,-11.91" />
        <path d="M-916.40,-670.46" />
        <path d="M-896.24,-435.56L-894.42,-413.41" />
        <path d="M-884.98,-125.37L-883.93,-90.44" />
        <path d="M-875.14,257.74L-877.84,292.18" />
      </g>
      <g id="f1" style="--index:1; opacity:0;" class="frame">
        <path d="M-715.63,-508.96L-713.97,-491.57" />
        <path d="M-691.66,-157.28L-690.73,-113.56" />
        <path d="M-502.03,-553.01L-501.63,-537.88" />
        <path d="M-502.61,-253.17L-501.03,-224.91" />
        <path d="M-483.14,91.47L-483.02,123.84" />
        <path d="M-316.81,-552.74L-316.81,-532.11" />
        <path d="M-315.96,-192.99L-315.10,-164.39" />
        <path d="M-304.24,279.38L-302.85,314.74" />
        <path d="M-110.81,-331.60L-112.15,-299.61" />
        <path d="M-129.15,75.67L-129.95,119.86" />
        <path d="M65.05,-443.00L64.98,-402.60" />
        <path d="M41.68,-11.91L40.28,22.19" />
        <path d="M-916.40,-670.46L-916.33,-662.83L-915.14,-656.47" />
        <path d="M-894.42,-413.41L-892.61,-390.72" />
        <path d="M-883.93,-90.44L-883.54,-54.41" />
        <path d="M-877.84,292.18L-880.05,308.33" />
      </g>
      <g id="f2" style="--index:2; opacity:0;" class="frame">
        <path d="M-713.97,-491.57L-713.32,-467.61" />
        <path d="M-690.73,-113.56L-692.12,-57.50" />
        <path d="M-501.63,-537.88L-501.03,-522.82" />
        <path d="M-501.03,-224.91L-498.78,-199.49" />
        <path d="M-483.02,123.84L-482.75,154.89" />
        <path d="M-316.81,-532.11L-316.96,-508.55" />
        <path d="M-315.10,-164.39L-313.89,-133.27" />
        <path d="M-103.75,-641.40L-105.06,-635.68" />
        <path d="M-112.15,-299.61L-114.06,-269.42" />
        <path d="M-129.95,119.86L-131.28,160.20" />
        <path d="M64.98,-402.60L63.25,-358.93" />
        <path d="M40.28,22.19L39.89,36.72L38.49,51.13" />
        <path d="M-915.14,-656.47L-910.45,-634.30" />
        <path d="M-892.61,-390.72L-891.59,-366.10" />
        <path d="M-883.54,-54.41L-883.07,-17.45" />
      </g>
      <g id="f3" style="--index:3; opacity:0;" class="frame">
        <path d="M-713.32,-467.61L-710.13,-443.27" />
        <path d="M-692.12,-57.50L-696.44,8.27" />
        <path d="M-501.03,-522.82L-499.90,-508.22" />
        <path d="M-498.78,-199.49L-496.19,-172.28" />
        <path d="M-482.75,154.89L-480.95,183.75" />
        <path d="M-316.96,-508.55L-317.08,-484.33" />
        <path d="M-313.89,-133.27L-312.85,-96.31" />
        <path d="M-105.06,-635.68L-105.39,-623.94L-106.39,-617.37" />
        <path d="M-114.06,-269.42L-116.59,-239.42" />
        <path d="M-131.28,160.20L-131.09,171.16L-128.30,197.63" />
        <path d="M63.25,-358.93L61.34,-325.63" />
        <path d="M38.49,51.13L36.64,69.91L36.30,82.64" />
        <path d="M-910.45,-634.30L-904.39,-613.19" />
        <path d="M-891.59,-366.10L-890.23,-342.15" />
        <path d="M-883.07,-17.45L-882.07,18.36" />
      </g>
      <g id="f4" style="--index:4; opacity:0;" class="frame">
        <path d="M-710.13,-443.27L-706.82,-418.64" />
        <path d="M-696.44,8.27L-697.81,32.88L-698.48,68.05" />
        <path d="M-499.90,-508.22L-499.30,-487.19" />
        <path d="M-496.19,-172.28L-494.00,-144.35" />
        <path d="M-480.95,183.75L-478.25,213.81" />
        <path d="M-317.08,-484.33L-317.08,-456.93" />
        <path d="M-312.85,-96.31L-311.58,-54.31" />
        <path d="M-106.39,-617.37L-109.29,-595.94" />
        <path d="M-116.59,-239.42L-118.50,-209.44" />
        <path d="M-128.30,197.63L-123.13,238.77" />
        <path d="M61.34,-325.63L58.69,-288.53" />
        <path d="M36.30,82.64L36.97,118.06" />
        <path d="M-904.39,-613.19L-902.84,-603.70L-902.55,-595.39" />
        <path d="M-890.23,-342.15L-888.91,-321.00" />
        <path d="M-882.07,18.36L-881.30,52.10" />
      </g>
      <g id="f5" style="--index:5; opacity:0;" class="frame">
        <path d="M-720.59,-593.82" />
        <path d="M-706.82,-418.64L-703.77,-394.36" />
        <path d="M-698.48,68.05L-697.29,120.66" />
        <path d="M-499.30,-487.19L-498.05,-464.30" />
        <path d="M-494.00,-144.35L-492.09,-117.41" />
        <path d="M-478.25,213.81L-475.66,247.39" />
        <path d="M-317.08,-456.93L-316.41,-427.41" />
        <path d="M-311.58,-54.31L-311.52,-12.78" />
        <path d="M-109.29,-595.94L-111.42,-578.62" />
        <path d="M-118.50,-209.44L-119.30,-177.92" />
        <path d="M-123.13,238.77L-116.77,278.91" />
        <path d="M58.69,-288.53L56.44,-252.57" />
        <path d="M36.97,118.06L37.30,156.55" />
        <path d="M-902.55,-595.39L-902.46,-575.90" />
        <path d="M-888.91,-321.00L-888.73,-301.45" />
        <path d="M-881.30,52.10L-880.87,83.77" />
      </g>
      <g id="f6" style="--index:6; opacity:0;" class="frame">
        <path d="M-720.59,-593.82L-720.47,-587.44" />
        <path d="M-703.77,-394.36L-700.94,-365.97" />
        <path d="M-697.29,120.66L-696.02,167.44" />
        <path d="M-498.05,-464.30L-499.78,-440.41" />
        <path d="M-492.09,-117.41L-490.04,-89.47" />
        <path d="M-475.66,247.39L-473.47,286.53" />
        <path d="M-316.41,-427.41L-315.56,-395.82" />
        <path d="M-311.52,-12.78L-311.79,23.78" />
        <path d="M-111.42,-578.62L-114.33,-557.93" />
        <path d="M-119.30,-177.92L-119.57,-142.42" />
        <path d="M-116.77,278.91L-111.15,313.82" />
        <path d="M80.62,-654.33" />
        <path d="M56.44,-252.57L53.67,-217.27" />
        <path d="M37.30,156.55L37.18,194.38" />
        <path d="M-902.46,-575.90L-902.31,-553.01" />
        <path d="M-888.73,-301.45L-888.53,-280.22" />
        <path d="M-880.87,83.77L-880.28,113.62" />
      </g>
      <g id="f7" style="--index:7; opacity:0;" class="frame">
        <path d="M-720.47,-587.44L-718.68,-575.97" />
        <path d="M-700.94,-365.97L-698.48,-334.38" />
        <path d="M-696.02,167.44L-696.02,194.50L-695.10,210.03" />
        <path d="M-499.78,-440.41L-500.82,-410.16" />
        <path d="M-490.04,-89.47L-487.79,-58.42" />
        <path d="M-473.47,286.53L-471.55,311.96" />
        <path d="M-315.56,-395.82L-314.96,-364.77" />
        <path d="M-311.79,23.78L-311.12,56.83" />
        <path d="M-114.33,-557.93L-114.27,-534.24" />
        <path d="M-119.57,-142.42L-119.69,-104.27" />
        <path d="M80.62,-654.33L79.89,-630.83" />
        <path d="M53.67,-217.27L50.41,-182.38" />
        <path d="M37.18,194.38L37.09,208.58L38.89,230.80" />
        <path d="M-902.31,-553.01L-902.13,-525.77" />
        <path d="M-888.53,-280.22L-888.03,-254.45" />
        <path d="M-880.28,113.62L-879.54,142.01" />
      </g>
      <g id="f8" style="--index:8; opacity:0;" class="frame">
        <path d="M-718.68,-575.97L-716.95,-562.69" />
        <path d="M-698.48,-334.38L-696.62,-300.74" />
        <path d="M-695.10,210.03L-690.14,246.72" />
        <path d="M-500.82,-410.16L-501.88,-383.49" />
        <path d="M-487.79,-58.42L-486.00,-25.64" />
        <path d="M-314.96,-364.77L-315.35,-329.47" />
        <path d="M-311.12,56.83L-309.54,93.66" />
        <path d="M-114.27,-534.24L-113.15,-520.96L-112.60,-498.33" />
        <path d="M-119.69,-104.27L-120.55,-65.86" />
        <path d="M79.89,-630.83L75.78,-585.32" />
        <path d="M50.41,-182.38L48.96,-148.92" />
        <path d="M38.89,230.80L39.43,251.64L41.20,273.66" />
        <path d="M-902.13,-525.77L-901.61,-499.52" />
        <path d="M-888.03,-254.45L-886.91,-226.53" />
        <path d="M-879.54,142.01L-878.43,169.78" />
      </g>
      <g id="f9" style="--index:9; opacity:0;" class="frame">
        <path d="M-716.95,-562.69L-715.82,-547.36" />
        <path d="M-696.62,-300.74L-694.83,-265.17" />
        <path d="M-690.14,246.72L-685.43,286.86" />
        <path d="M-504.40,-597.60" />
        <path d="M-501.88,-383.49L-503.88,-355.75" />
        <path d="M-486.00,-25.64L-484.87,7.06" />
        <path d="M-313.83,-615.71" />
        <path d="M-315.35,-329.47L-315.75,-292.05" />
        <path d="M-309.54,93.66L-308.20,137.44" />
        <path d="M-112.60,-498.33L-112.48,-453.29" />
        <path d="M-120.55,-65.86L-122.15,-31.89" />
        <path d="M75.78,-585.32L74.57,-539.21" />
        <path d="M48.96,-148.92L47.83,-118.14" />
        <path d="M41.20,273.66L43.39,309.83" />
        <path d="M-901.61,-499.52L-900.21,-477.17" />
        <path d="M-886.91,-226.53L-886.63,-195.93" />
        <path d="M-878.43,169.78L-876.52,197.03" />
      </g>
      <g id="f10" style="--index:10; opacity:0;" class="frame">
        <path d="M-715.82,-547.36L-715.82,-536.02" />
        <path d="M-694.83,-265.17L-694.64,-228.49" />
        <path d="M-685.43,286.86L-682.39,310.89" />
        <path d="M-504.40,-597.60L-504.47,-585.58" />
        <path d="M-503.88,-355.75L-504.53,-321.64" />
        <path d="M-484.87,7.06L-484.33,33.80" />
        <path d="M-313.83,-615.71L-315.35,-610.33L-315.50,-597.13" />
        <path d="M-315.75,-292.05L-315.96,-254.89" />
        <path d="M-308.20,137.44L-306.16,183.63" />
        <path d="M-112.48,-453.29L-109.69,-408.69" />
        <path d="M-122.15,-31.89L-123.28,0.09" />
        <path d="M74.57,-539.21L72.32,-519.71L68.42,-503.97" />
        <path d="M47.83,-118.14L46.31,-86.69" />
        <path d="M-900.21,-477.17L-898.42,-456.15" />
        <path d="M-886.63,-195.93L-886.19,-160.85" />
        <path d="M-876.52,197.03L-875.71,225.13" />
      </g>
      <g id="f11" style="--index:11; opacity:0;" class="frame">
        <path d="M-715.82,-536.02L-716.16,-524.29" />
        <path d="M-694.64,-228.49L-693.71,-193.25" />
        <path d="M-504.47,-585.58L-503.07,-567.62" />
        <path d="M-504.53,-321.64L-503.55,-286.41" />
        <path d="M-484.33,33.80L-483.60,61.61" />
        <path d="M-315.50,-597.13L-315.50,-575.04" />
        <path d="M-315.96,-254.89L-315.96,-221.72" />
        <path d="M-306.16,183.63L-305.70,233.13" />
        <path d="M-109.69,-408.69L-109.17,-367.43" />
        <path d="M-123.28,0.09L-125.99,34.47" />
        <path d="M68.42,-503.97L66.23,-488.05L66.05,-477.10" />
        <path d="M46.31,-86.69L43.99,-50.39" />
        <path d="M-898.42,-456.15L-896.24,-435.56" />
        <path d="M-886.19,-160.85L-884.98,-125.37" />
        <path d="M-875.71,225.13L-875.14,257.74" />
      </g>
    </g>
    <g id="t2" transform="translate(83.50 331.00)" class="thread">
      <g id="f0" style="--index:0; opacity:1;" class="frame">
        <path d="M-445.01,-184.72L-442.28,-155.41" />
        <path d="M-432.63,95.94L-431.95,120.62" />
        <path d="M-409.18,426.22L-407.35,451.72L-404.24,470.64" />
        <path d="M-241.66,-342.51L-243.38,-335.13" />
        <path d="M-237.29,-105.05L-236.85,-87.18" />
        <path d="M-129.02,-199.78L-129.23,-178.35" />
        <path d="M-126.03,129.43" />
        <path d="M-19.36,250.19L-20.57,272.31" />
        <path d="M134.57,-260.56L134.69,-238.60" />
        <path d="M146.85,18.34L150.02,35.99" />
        <path d="M41.40,-312.33L41.58,-292.99" />
        <path d="M433.03,-306.93L432.32,-289.86" />
        <path d="M426.89,-56.58L426.94,-35.22" />
        <path d="M620.93,-130.93L620.68,-113.79" />
        <path d="M616.03,123.42L616.18,140.69" />
      </g>
      <g id="f1" style="--index:1; opacity:0;" class="frame">
        <path d="M-462.61,-378.93" />
        <path d="M-442.28,-155.41L-440.06,-124.16" />
        <path d="M-431.95,120.62L-431.06,144.13" />
        <path d="M-404.24,470.64L-401.22,478.45" />
        <path d="M-243.38,-335.13L-243.55,-316.92" />
        <path d="M-236.85,-87.18L-236.39,-66.68" />
        <path d="M-129.23,-178.35L-129.41,-154.50" />
        <path d="M-20.57,272.31L-21.65,298.62" />
        <path d="M134.69,-238.60L136.74,-219.19" />
        <path d="M150.02,35.99L150.74,41.67" />
        <path d="M41.58,-292.99L40.97,-272.03" />
        <path d="M432.32,-289.86L432.22,-270.43" />
        <path d="M426.94,-35.22L426.63,-10.85" />
        <path d="M620.68,-113.79L620.25,-93.96" />
        <path d="M616.18,140.69L616.12,156.36" />
      </g>
      <g id="f2" style="--index:2; opacity:0;" class="frame">
        <path d="M-462.61,-378.93L-462.89,-371.83" />
        <path d="M-440.06,-124.16L-438.07,-96.79" />
        <path d="M-431.06,144.13L-429.87,166.08" />
        <path d="M-243.55,-316.92L-242.93,-293.29" />
        <path d="M-236.39,-66.68L-235.62,-40.18" />
        <path d="M-129.41,-154.50L-129.04,-128.07" />
        <path d="M-21.65,298.62L-22.41,326.88" />
        <path d="M136.74,-219.19L136.76,-196.24" />
        <path d="M40.97,-272.03L40.10,-250.26" />
        <path d="M432.22,-270.43L433.53,-251.90" />
        <path d="M426.63,-10.85L425.75,17.02" />
        <path d="M620.25,-93.96L620.46,-70.93" />
        <path d="M616.12,156.36L615.12,171.44" />
      </g>
      <g id="f3" style="--index:3; opacity:0;" class="frame">
        <path d="M-462.89,-371.83L-459.21,-349.71" />
        <path d="M-438.07,-96.79L-436.78,-72.84" />
        <path d="M-429.87,166.08L-427.76,185.94" />
        <path d="M-242.93,-293.29L-242.74,-272.19" />
        <path d="M-235.62,-40.18L-234.83,-4.30" />
        <path d="M-129.04,-128.07L-128.11,-99.14" />
        <path d="M-22.41,326.88L-22.22,353.73" />
        <path d="M136.76,-196.24L136.40,-183.98L134.27,-169.36" />
        <path d="M40.10,-250.26L37.99,-225.12" />
        <path d="M433.53,-251.90L434.17,-232.48" />
        <path d="M425.75,17.02L423.69,47.29" />
        <path d="M620.46,-70.93L620.51,-44.63" />
        <path d="M615.12,171.44L613.74,188.39" />
      </g>
      <g id="f4" style="--index:4; opacity:0;" class="frame">
        <path d="M-459.21,-349.71L-454.49,-330.12" />
        <path d="M-436.78,-72.84L-436.06,-51.54" />
        <path d="M-427.76,185.94L-425.62,206.08" />
        <path d="M-242.74,-272.19L-242.68,-249.56" />
        <path d="M-234.83,-4.30L-233.44,31.38" />
        <path d="M-128.11,-99.14L-127.99,-72.22" />
        <path d="M-24.07,69.99" />
        <path d="M-22.22,353.73L-20.17,381.16" />
        <path d="M134.27,-169.36L133.52,-161.72L133.55,-143.71" />
        <path d="M37.99,-225.12L37.90,-198.47" />
        <path d="M434.17,-232.48L435.49,-211.41" />
        <path d="M423.69,47.29L421.28,82.54" />
        <path d="M620.51,-44.63L620.00,-19.71" />
        <path d="M613.74,188.39L613.02,204.94" />
      </g>
      <g id="f5" style="--index:5; opacity:0;" class="frame">
        <path d="M-454.49,-330.12L-452.53,-313.53" />
        <path d="M-436.06,-51.54L-435.16,-33.42" />
        <path d="M-425.62,206.08L-423.82,227.96" />
        <path d="M-242.68,-249.56L-241.87,-233.84" />
        <path d="M-233.44,31.38L-230.75,63.35" />
        <path d="M-127.99,-72.22L-128.55,-52.94" />
        <path d="M-24.07,69.99L-24.37,80.43L-23.15,89.99" />
        <path d="M-20.17,381.16L-17.86,407.87" />
        <path d="M133.55,-143.71L134.71,-120.15" />
        <path d="M37.90,-198.47L40.48,-173.46" />
        <path d="M435.49,-211.41L435.37,-187.84" />
        <path d="M421.28,82.54L419.88,120.85" />
        <path d="M621.09,-267.94" />
        <path d="M620.00,-19.71L618.76,4.95" />
        <path d="M613.02,204.94L612.56,213.77" />
      </g>
      <g id="f6" style="--index:6; opacity:0;" class="frame">
        <path d="M-452.53,-313.53L-451.42,-292.86" />
        <path d="M-435.16,-33.42L-434.60,-15.93" />
        <path d="M-423.82,227.96L-421.90,249.10" />
        <path d="M-241.87,-233.84L-241.37,-216.76" />
        <path d="M-230.75,63.35L-229.03,90.40" />
        <path d="M-128.55,-52.94L-128.82,-36.87" />
        <path d="M-23.15,89.99L-22.63,110.61L-23.22,119.59" />
        <path d="M-17.86,407.87L-15.64,423.05" />
        <path d="M134.71,-120.15L135.91,-97.06" />
        <path d="M40.48,-173.46L43.72,-147.85" />
        <path d="M435.96,-388.79" />
        <path d="M435.37,-187.84L434.20,-164.13" />
        <path d="M419.88,120.85L418.19,155.09" />
        <path d="M621.09,-267.94L622.63,-258.03" />
        <path d="M618.76,4.95L617.96,28.45" />
        <path d="M612.56,213.77" />
      </g>
      <g id="f7" style="--index:7; opacity:0;" class="frame">
        <path d="M-451.42,-292.86L-450.64,-267.62" />
        <path d="M-434.60,-15.93L-433.96,3.08" />
        <path d="M-421.90,249.10L-419.95,271.65" />
        <path d="M-241.37,-216.76L-240.89,-193.81" />
        <path d="M-229.03,90.40L-227.55,119.38" />
        <path d="M-129.08,-286.61" />
        <path d="M-128.82,-36.87L-128.96,-16.78" />
        <path d="M-23.22,119.59L-23.98,147.12" />
        <path d="M139.04,-356.95" />
        <path d="M135.91,-97.06L135.80,-72.62" />
        <path d="M43.72,-147.85L44.97,-134.93L45.11,-119.40" />
        <path d="M435.96,-388.79L434.24,-386.09L434.29,-380.67" />
        <path d="M434.20,-164.13L433.64,-151.19L431.46,-141.66" />
        <path d="M418.19,155.09L417.72,169.82L418.87,172.22" />
        <path d="M622.63,-258.03L623.18,-234.81" />
        <path d="M617.96,28.45L617.95,48.41" />
      </g>
      <g id="f8" style="--index:8; opacity:0;" class="frame">
        <path d="M-450.64,-267.62L-448.64,-246.62" />
        <path d="M-433.96,3.08L-433.69,23.43" />
        <path d="M-419.95,271.65L-418.23,298.61" />
        <path d="M-240.89,-193.81L-239.76,-171.51" />
        <path d="M-227.55,119.38L-227.03,125.67" />
        <path d="M-129.08,-286.61L-128.83,-266.13" />
        <path d="M-128.96,-16.78L-128.39,11.27" />
        <path d="M-23.98,147.12L-24.05,173.30" />
        <path d="M139.04,-356.95L138.23,-341.35" />
        <path d="M135.80,-72.62L136.22,-63.32L138.15,-50.08" />
        <path d="M45.38,-383.63L45.44,-377.67" />
        <path d="M45.11,-119.40L45.83,-91.09" />
        <path d="M434.29,-380.67L434.41,-360.25" />
        <path d="M431.46,-141.66L429.57,-130.06L428.82,-114.66" />
        <path d="M623.18,-234.81L623.78,-205.76" />
        <path d="M617.95,48.41L617.12,68.03" />
      </g>
      <g id="f9" style="--index:9; opacity:0;" class="frame">
        <path d="M-448.64,-246.62L-447.85,-230.62" />
        <path d="M-433.69,23.43L-433.31,45.19" />
        <path d="M-418.23,298.61L-416.58,334.75" />
        <path d="M-239.76,-171.51L-238.44,-144.00" />
        <path d="M-128.83,-266.13L-128.91,-244.70" />
        <path d="M-128.39,11.27L-127.31,48.49" />
        <path d="M-24.05,173.30L-24.71,198.55" />
        <path d="M138.23,-341.35L136.16,-312.20" />
        <path d="M138.15,-50.08L140.01,-28.07" />
        <path d="M45.44,-377.67L45.32,-360.18" />
        <path d="M45.83,-91.09L46.13,-85.87" />
        <path d="M434.41,-360.25L433.27,-340.61" />
        <path d="M428.82,-114.66L428.87,-102.14L427.80,-94.89" />
        <path d="M623.78,-205.76L623.52,-176.43" />
        <path d="M617.12,68.03L616.57,88.13" />
      </g>
      <g id="f10" style="--index:10; opacity:0;" class="frame">
        <path d="M-447.85,-230.62L-446.72,-210.69" />
        <path d="M-433.31,45.19L-433.02,69.54" />
        <path d="M-416.58,334.75L-412.30,377.31" />
        <path d="M-238.44,-144.00L-237.59,-124.46" />
        <path d="M-128.91,-244.70L-128.90,-222.88" />
        <path d="M-127.31,48.49L-126.78,76.47L-127.65,92.69" />
        <path d="M-24.71,198.55L-21.16,228.18" />
        <path d="M136.16,-312.20L134.60,-284.86" />
        <path d="M140.01,-28.07L142.23,-5.65" />
        <path d="M45.32,-360.18L43.79,-336.73" />
        <path d="M433.27,-340.61L433.01,-322.80" />
        <path d="M427.80,-94.89L427.05,-76.14" />
        <path d="M623.52,-176.43L622.28,-150.76" />
        <path d="M616.57,88.13L616.00,106.47" />
      </g>
      <g id="f11" style="--index:11; opacity:0;" class="frame">
        <path d="M-446.72,-210.69L-445.01,-184.72" />
        <path d="M-433.02,69.54L-432.63,95.94" />
        <path d="M-412.30,377.31L-409.18,426.22" />
        <path d="M-237.59,-124.46L-237.29,-105.05" />
        <path d="M-128.90,-222.88L-129.02,-199.78" />
        <path d="M-127.65,92.69L-127.42,117.46L-126.03,129.43" />
        <path d="M-21.16,228.18L-19.64,239.82L-19.36,250.19" />
        <path d="M134.60,-284.86L134.57,-260.56" />
        <path d="M142.23,-5.65L143.38,4.32L146.85,18.34" />
        <path d="M43.79,-336.73L41.40,-312.33" />
        <path d="M433.01,-322.80L433.03,-306.93" />
        <path d="M427.05,-76.14L426.89,-56.58" />
        <path d="M622.28,-150.76L620.93,-130.93" />
        <path d="M616.00,106.47L616.03,123.42" />
      </g>
    </g>
  </g>
</svg>