<?xml version="1.0" encoding="utf-8"?>
<svg width="1366" height="1024" viewBox="-683 -512 1366 1024" xmlns="http://www.w3.org/2000/svg">
  <style>
svg { background-color:#272727; }

#looom {
--version:2; --tempo:120; --musicTime:0; 
}

#t0 {
--visible:1; --timeOffset:4; --speed:8; --bookmarkIndex:-1; --latched:0; --playMode:0; --masked:0; --blendMode:0; --pressureEnabled:0; 
stroke:#3CD4FF; stroke-opacity:1; fill-opacity:0; stroke-width:1; stroke-linecap:round; stroke-linejoin:round;
}
@keyframes t0 { 0% { opacity: 1; } 12.5% { opacity: 0; } }
#t0 .frame { animation:t0 1s calc(var(--index) * 0.125s) steps(1) infinite; }

</style>
  <g id="w0" transform="translate(254.75 187.00) scale(1.24 1.24) rotate(-0.79)" class="weave">
    <g id="t0" transform="translate(-221.43 -205.76)" class="thread">
      <g id="f0" style="--index:0; opacity:1;" class="frame">
        <path d="M8.67,369.36L7.48,422.97" />
        <path d="M5.02,411.55L4.96,415.86L3.84,418.58L1.31,420.11L-7.57,422.38L-8.02,424.43L-7.48,425.29L-3.31,426.61L21.78,426.75L23.78,425.55" />
        <path d="M23.78,425.55L24.70,423.83L23.82,421.44L20.32,420.44L12.11,419.91L7.73,416.54L6.67,412.43L5.23,417.39L3.11,420.05L-7.69,423.96L-6.75,424.83L-3.13,425.49L23.78,425.55" />
        <path d="M23.78,425.55L27.26,425.29L27.68,422.11L20.66,419.38L12.63,418.79L11.11,414.41L10.26,407.64L8.92,406.64L7.73,406.79L4.69,410.36L2.58,416.80L-0.54,420.79L-3.06,421.91L-11.73,422.97L-11.07,424.36L-7.30,425.36L7.55,425.36" />
        <path d="M427.86,-252.12L428.38,-239.90" />
        <path d="M195.33,270.88L193.38,303.65" />
        <path d="M-155.68,-86.76L-155.94,-82.28" />
        <path d="M-151.15,267.80L-181.45,267.91" />
        <path d="M-181.45,267.91L-181.45,267.91" />
        <path d="M-181.45,267.91L-180.12,267.92" />
      </g>
      <g id="f1" style="--index:1; opacity:0;" class="frame">
        <path d="M23.49,426.35L26.57,426.40" />
        <path d="M26.57,426.40L34.62,426.35L39.06,427.68L26.57,426.40" />
        <path d="M26.57,426.40L9.59,424.16L-16.49,424.83L-22.45,423.50" />
        <path d="M-22.45,423.50L-22.45,423.50" />
        <path d="M-22.45,423.50L3.96,423.89L21.84,425.63" />
        <path d="M428.38,-239.90L425.01,-212.09L421.21,-137.46" />
        <path d="M-155.94,-82.28L-156.82,-65.81L-155.41,-37.20" />
        <path d="M-278.52,303.64L-274.21,304.76L-267.02,304.86" />
        <path d="M-267.02,304.86L-267.02,304.86" />
        <path d="M-267.02,304.86L-272.75,306.76L-285.82,308.07L-292.42,307.93L-293.57,307.22L-290.37,306.04L-280.07,304.16L-276.45,304.16L-275.39,304.86L-289.42,306.26L-281.47,306.32L-274.53,304.87" />
        <path d="M196.42,299.22L196.73,296.40L196.12,294.84L193.77,302.17L188.57,304.66L203.20,302.25" />
        <path d="M203.20,302.25L203.20,302.25" />
        <path d="M203.20,302.25L195.85,302.26" />
        <path d="M195.85,302.26L194.41,302.29L195.85,302.26" />
        <path d="M195.85,302.26L198.31,301.32L198.75,300.43L194.44,299.72" />
        <path d="M194.44,299.72L195.71,296.70L194.44,299.72" />
        <path d="M194.44,299.72L193.80,300.19" />
      </g>
      <g id="f2" style="--index:2; opacity:0;" class="frame">
        <path d="M58.59,429.74L31.31,429.68L3.63,427.29L-35.10,425.82" />
        <path d="M-282.26,-287.28L-279.73,-286.12L-275.46,-255.98L-273.52,-234.62" />
        <path d="M421.21,-137.46L414.82,-2.16L410.72,67.40" />
        <path d="M-155.41,-37.20L-155.51,5.53L-157.43,36.28" />
        <path d="M-260.65,302.07L-298.48,307.68" />
        <path d="M201.17,302.43L209.35,301.80" />
        <path d="M209.35,301.80L209.35,301.80" />
        <path d="M209.35,301.80L187.10,303.52L207.55,303.32" />
        <path d="M207.55,303.32L208.67,303.34L207.55,303.32" />
        <path d="M207.55,303.32L197.01,303.19" />
        <path d="M197.01,303.19L186.40,304.26L197.01,303.19" />
        <path d="M197.01,303.19L199.24,302.99" />
      </g>
      <g id="f3" style="--index:3; opacity:0;" class="frame">
        <path d="M-3.86,-383.47L-5.04,-379.16" />
        <path d="M-273.52,-234.62L-269.63,-137.94L-268.99,-69.49" />
        <path d="M410.72,67.40L403.70,178.75L396.65,268.33" />
        <path d="M219.16,-224.98L218.49,-203.27" />
        <path d="M-157.43,36.28L-157.80,62.80L-155.56,124.12" />
        <path d="M201.63,299.56L203.37,300.87L211.50,301.88L187.81,301.61L184.62,302.20" />
        <path d="M184.62,302.20L184.62,302.20" />
        <path d="M184.62,302.20L190.60,301.05" />
      </g>
      <g id="f4" style="--index:4; opacity:0;" class="frame">
        <path d="M-5.04,-379.16L-4.77,-358.72L-2.52,-341.27L3.04,-309.96L6.54,-282.88" />
        <path d="M-268.99,-69.49L-270.69,27.14L-274.93,98.94L-275.57,121.77" />
        <path d="M396.65,268.33L389.65,385.49" />
        <path d="M218.49,-203.27L213.33,-167.92L211.22,-131.89" />
        <path d="M-155.56,124.12L-156.19,155.10L-161.13,215.06" />
      </g>
      <g id="f5" style="--index:5; opacity:0;" class="frame">
        <path d="M6.54,-282.88L11.44,-232.52L15.15,-174.66L16.55,-133.25L16.82,-89.27" />
        <path d="M-275.57,121.77L-275.87,197.14L-278.97,244.10" />
        <path d="M211.22,-131.89L211.82,-67.28L211.24,-2.89" />
        <path d="M-161.13,215.06L-165.41,263.22" />
        <path d="M390.99,381.78L390.47,384.00L392.40,387.66L394.64,390.14L397.83,391.71" />
        <path d="M397.83,391.71L397.83,391.71" />
        <path d="M397.83,391.71L387.96,388.51L382.02,388.47" />
        <path d="M382.02,388.47L382.42,389.23L391.78,389.79L382.02,388.47" />
        <path d="M382.02,388.47L393.52,386.61L388.52,381.96L390.70,386.83L391.03,385.99" />
        <path d="M391.03,385.99L391.04,385.08L391.03,385.99" />
        <path d="M391.03,385.99L391.20,386.10" />
      </g>
      <g id="f6" style="--index:6; opacity:0;" class="frame">
        <path d="M16.82,-89.27L13.90,55.45L12.44,178.60" />
        <path d="M-278.97,244.10L-280.11,299.93L-280.97,303.82L-282.44,305.77" />
        <path d="M211.24,-2.89L209.59,63.61L203.52,136.66" />
        <path d="M-165.51,262.85L-163.37,265.59L-158.41,268.55L-169.96,267.32" />
        <path d="M-169.96,267.32L-171.91,268.15L-169.96,267.32" />
        <path d="M-169.96,267.32L-165.97,265.84" />
        <path d="M-165.97,265.84L-168.58,265.90L-166.11,263.91L-165.25,263.97L-164.23,266.12L-165.97,265.84" />
        <path d="M-165.97,265.84L-169.11,265.30" />
        <path d="M393.32,386.54L399.63,388.55L405.88,389.28L405.94,389.99L398.66,389.35" />
        <path d="M398.66,389.35L381.87,386.93L382.54,388.05L385.83,388.90L399.75,390.11L398.66,389.35" />
        <path d="M398.66,389.35L388.84,387.12L383.92,387.22L387.44,387.32" />
      </g>
      <g id="f7" style="--index:7; opacity:0;" class="frame">
        <path d="M12.44,178.60L8.67,369.36" />
        <path d="M203.52,136.66L198.15,201.03L195.33,270.88" />
        <path d="M-281.78,305.89L-282.22,302.63" />
        <path d="M-282.22,302.63L-283.94,302.92L-285.10,306.65L-288.04,307.14L-283.79,307.57L-279.98,306.23L-276.16,306.07L-275.98,305.54L-281.03,304.78L-280.35,301.27L-282.22,302.63" />
        <path d="M-282.22,302.63L-282.94,304.54L-284.97,304.89" />
        <path d="M-160.13,266.39L-153.02,267.45L-154.25,267.86L-176.34,267.98L-170.36,267.21" />
        <path d="M410.57,389.56L380.47,387.33" />
      </g>
    </g>
  </g>
</svg>