<?xml version="1.0" encoding="utf-8"?>
<svg width="1366" height="1024" viewBox="-683 -512 1366 1024" xmlns="http://www.w3.org/2000/svg">
  <style>
svg { background-color:#1800AC; }

#looom {
--version:2; --tempo:120; --musicTime:0; 
}

#t0 {
--visible:1; --timeOffset:0.08333334; --speed:12; --bookmarkIndex:-1; --latched:0; --playMode:0; --masked:0; --blendMode:0; --pressureEnabled:0; 
stroke:#000000; stroke-opacity:1; fill-opacity:0; stroke-width:46.49933; stroke-linecap:round; stroke-linejoin:round;
}
@keyframes t0 { 0% { opacity: 1; } 100% { opacity: 0; } }
#t0 .frame { animation:t0 0.08333334s calc(var(--index) * 0.08333334s) steps(1) infinite; }

#t1 {
--visible:1; --timeOffset:0.08333334; --speed:12; --bookmarkIndex:-1; --latched:0; --playMode:0; --masked:0; --blendMode:0; --pressureEnabled:0; 
stroke:#FFFA86; stroke-opacity:1; fill-opacity:0; stroke-width:28.70731; stroke-linecap:round; stroke-linejoin:round;
}
@keyframes t1 { 0% { opacity: 1; } 100% { opacity: 0; } }
#t1 .frame { animation:t1 0.08333334s calc(var(--index) * 0.08333334s) steps(1) infinite; }

#t2 {
--visible:1; --timeOffset:0; --speed:12; --bookmarkIndex:-1; --latched:0; --playMode:0; --masked:0; --blendMode:0; --pressureEnabled:0; 
stroke:#797978; stroke-opacity:1; fill-opacity:0; stroke-width:28.70731; stroke-linecap:round; stroke-linejoin:round;
}
@keyframes t2 { 0% { opacity: 1; } 8.333333% { opacity: 0; } }
#t2 .frame { animation:t2 1s calc(var(--index) * 0.08333334s) steps(1) infinite; }

#t3 {
--visible:1; --timeOffset:0.1666667; --speed:12; --bookmarkIndex:-1; --latched:0; --playMode:0; --masked:0; --blendMode:0; --pressureEnabled:0; 
stroke:#FFF506; stroke-opacity:1; fill-opacity:0; stroke-width:28.70731; stroke-linecap:round; stroke-linejoin:round;
}
@keyframes t3 { 0% { opacity: 1; } 100% { opacity: 0; } }
#t3 .frame { animation:t3 0.08333334s calc(var(--index) * 0.08333334s) steps(1) infinite; }

</style>
  <g id="w0" transform="translate(319.50 115.00) scale(0.21 0.21) rotate(-354.89)" class="weave">
    <g id="t0" transform="translate(-1265.69 809.50)" class="thread">
      <g id="f0" style="--index:0; opacity:1;" class="frame">
        <path d="M1041.35,1086.48" />
        <path d="M1035.54,1079.95L1027.14,1064.18L1022.00,996.99L1005.15,899.00L1001.58,870.50L997.24,833.13L989.09,739.19L986.86,690.41L986.05,584.83L982.47,455.13L982.69,386.84L981.39,283.53L975.68,101.52L973.70,-7.22L974.62,-42.00L981.80,-176.36L983.81,-251.89L983.48,-293.80L979.48,-347.91L975.34,-375.01L968.94,-405.85L957.78,-451.01L932.46,-545.68L893.48,-707.22L889.75,-727.94L887.37,-753.02L887.44,-784.89L884.28,-823.66L878.48,-852.37L871.77,-879.67L851.42,-944.92L850.09,-952.26L847.54,-981.67L845.91,-988.56L840.89,-1003.48L835.30,-1017.07L823.80,-1040.69L809.78,-1066.26L798.58,-1081.73L774.53,-1106.02L760.48,-1116.91L752.16,-1121.41L729.86,-1128.73L707.38,-1137.33L692.58,-1141.74L638.55,-1153.08L573.20,-1161.28L552.31,-1161.85L524.92,-1159.47L503.94,-1153.26L463.58,-1148.46L435.39,-1140.28L402.71,-1135.27L384.01,-1133.65L371.17,-1135.38L347.33,-1135.07L310.13,-1132.06L296.90,-1132.67L280.60,-1131.25L236.24,-1124.15L214.38,-1118.48L188.77,-1116.26L176.89,-1116.37L133.81,-1112.84L114.43,-1111.16L93.66,-1108.01L-62.56,-1094.93L-86.74,-1091.28L-80.22,-1091.64L-73.90,-1089.55" />
      </g>
    </g>
    <g id="t1" transform="translate(-437.69 1367.12)" class="thread">
      <g id="f0" style="--index:0; opacity:1;" class="frame">
        <path d="M-800.60,-1632.90L-714.10,-1634.24L-686.42,-1636.44L-677.48,-1639.18L-677.67,-1641.38L-674.42,-1644.51L-674.11,-1646.50L-681.25,-1647.64L-728.91,-1643.51L-763.26,-1637.89L-800.60,-1632.90" />
        <path d="M-874.87,-1625.79L-874.87,-1625.79" />
        <path d="M-873.36,-1625.92L-874.87,-1625.79L-873.36,-1625.92" />
        <path d="M-841.47,-1627.60L-873.36,-1625.92L-841.47,-1627.60" />
        <path d="M-891.26,-1612.82L-891.79,-1618.84L-889.70,-1624.96L-886.69,-1628.53L-884.15,-1629.38L-854.77,-1631.92L-800.60,-1632.90L-821.02,-1629.37L-841.47,-1627.60L-768.33,-1633.52L-715.37,-1639.41L-679.67,-1646.90L-673.54,-1649.40L-666.97,-1654.83L-686.85,-1654.19L-708.83,-1652.28L-817.67,-1638.45L-908.57,-1630.16L-910.12,-1625.83L-909.48,-1620.82L-903.97,-1617.78L-891.26,-1612.82" />
        <path d="M-861.20,-1605.09L-876.75,-1604.57L-884.26,-1605.22L-890.64,-1607.97L-891.26,-1612.82L-882.65,-1609.75L-861.20,-1605.09" />
        <path d="M-661.67,-1651.77L-668.15,-1635.85L-673.40,-1627.89L-682.70,-1618.97L-689.27,-1615.97L-714.28,-1611.63L-783.50,-1605.63L-814.28,-1607.35L-861.20,-1605.09L-841.74,-1602.54L-827.87,-1601.78L-814.27,-1601.61L-787.25,-1603.54" />
        <path d="M-902.86,-1604.95L-886.46,-1597.99L-854.86,-1600.32L-824.33,-1603.84" />
      </g>
    </g>
    <g id="t2" transform="translate(-437.69 1367.12)" class="thread">
      <g id="f0" style="--index:0; opacity:1;" class="frame">
        <path d="M-716.35,-1543.48L-725.12,-1540.06L-729.97,-1539.64L-732.56,-1541.45" />
        <path d="M-889.61,-1515.59L-894.81,-1514.46L-902.65,-1507.55L-908.28,-1504.19" />
        <path d="M-845.57,-1450.14L-838.44,-1452.33L-833.40,-1452.97" />
        <path d="M-868.38,-1360.22L-890.04,-1380.77L-894.93,-1383.28L-900.35,-1384.58L-905.90,-1384.31" />
        <path d="M-648.46,-1356.67L-638.56,-1357.53L-636.20,-1358.42" />
        <path d="M-869.91,-1446.93L-871.00,-1446.62" />
        <path d="M-892.10,-1369.26L-900.10,-1372.77L-904.76,-1373.00L-910.27,-1371.29L-913.98,-1365.94" />
        <path d="M-858.60,-1324.90L-864.10,-1320.60L-867.03,-1319.43" />
      </g>
      <g id="f1" style="--index:1; opacity:0;" class="frame">
        <path d="M-732.56,-1541.45L-737.61,-1546.55" />
        <path d="M-908.28,-1504.19L-916.94,-1501.87" />
        <path d="M-905.90,-1384.31L-908.74,-1384.06L-923.11,-1373.72L-934.52,-1369.38" />
        <path d="M-839.59,-1513.05" />
        <path d="M-913.98,-1365.94L-919.67,-1349.53L-922.72,-1344.55L-926.75,-1340.31" />
      </g>
      <g id="f2" style="--index:2; opacity:0;" class="frame">
        <path d="M-671.07,-1545.64" />
        <path d="M-775.79,-1452.85" />
        <path d="M-934.52,-1369.38L-955.15,-1367.59" />
        <path d="M-839.59,-1513.05L-847.51,-1518.95L-856.83,-1522.23" />
        <path d="M-926.75,-1340.31L-939.58,-1330.52L-947.99,-1327.13" />
      </g>
      <g id="f3" style="--index:3; opacity:0;" class="frame">
        <path d="M-671.07,-1545.64" />
        <path d="M-762.28,-1529.51" />
        <path d="M-952.13,-1495.94" />
        <path d="M-775.79,-1452.85" />
        <path d="M-955.15,-1367.59L-956.93,-1369.64" />
        <path d="M-763.80,-1441.60" />
        <path d="M-856.83,-1522.23L-866.13,-1522.80L-874.43,-1521.05L-878.41,-1517.57L-881.06,-1512.71" />
        <path d="M-947.99,-1327.13L-956.02,-1325.22L-957.32,-1326.52" />
      </g>
      <g id="f4" style="--index:4; opacity:0;" class="frame">
        <path d="M-671.07,-1545.64L-654.62,-1536.87" />
        <path d="M-762.28,-1529.51" />
        <path d="M-952.13,-1495.94L-961.93,-1476.22" />
        <path d="M-775.79,-1452.85L-757.79,-1452.01L-751.21,-1452.58L-747.40,-1452.02L-742.12,-1449.81" />
        <path d="M-728.74,-1349.50" />
        <path d="M-763.80,-1441.60" />
        <path d="M-795.09,-1442.74" />
        <path d="M-761.68,-1508.05L-754.62,-1512.08" />
        <path d="M-881.06,-1512.71L-885.75,-1501.40L-891.06,-1481.73" />
      </g>
      <g id="f5" style="--index:5; opacity:0;" class="frame">
        <path d="M-654.62,-1536.87L-647.38,-1530.60L-640.60,-1520.78" />
        <path d="M-762.28,-1529.51L-779.72,-1536.00L-782.62,-1536.43L-791.16,-1535.21L-797.51,-1529.59" />
        <path d="M-961.93,-1476.22L-967.88,-1452.38L-968.08,-1447.51" />
        <path d="M-742.12,-1449.81L-732.26,-1443.97" />
        <path d="M-728.74,-1349.50L-740.30,-1365.38L-742.49,-1370.52" />
        <path d="M-763.80,-1441.60" />
        <path d="M-795.09,-1442.74L-802.32,-1448.47L-811.26,-1452.38L-818.12,-1454.33" />
        <path d="M-754.62,-1512.08L-747.79,-1514.55L-743.69,-1513.62L-737.48,-1510.76" />
        <path d="M-891.06,-1481.73L-895.13,-1469.15L-901.97,-1452.99" />
      </g>
      <g id="f6" style="--index:6; opacity:0;" class="frame">
        <path d="M-640.60,-1520.78L-638.00,-1516.56L-637.31,-1513.49" />
        <path d="M-797.51,-1529.59L-808.21,-1517.11L-817.61,-1510.49" />
        <path d="M-968.08,-1447.51L-967.87,-1445.07L-950.45,-1441.25" />
        <path d="M-742.49,-1370.52L-747.76,-1379.84L-753.55,-1385.51L-759.73,-1387.64L-774.05,-1387.07" />
        <path d="M-758.94,-1335.11" />
        <path d="M-763.80,-1441.60L-754.08,-1442.86L-750.73,-1441.11" />
        <path d="M-818.12,-1454.33L-827.13,-1455.10L-833.92,-1453.40L-837.04,-1449.49L-839.40,-1444.81" />
        <path d="M-737.48,-1510.76L-725.38,-1504.08L-711.42,-1490.96" />
        <path d="M-901.97,-1452.99L-905.69,-1448.50L-910.63,-1444.67L-918.81,-1439.83L-926.17,-1436.59" />
      </g>
      <g id="f7" style="--index:7; opacity:0;" class="frame">
        <path d="M-817.61,-1510.49L-826.70,-1505.94" />
        <path d="M-950.45,-1441.25L-939.19,-1438.46L-931.22,-1438.94" />
        <path d="M-774.05,-1387.07L-781.24,-1385.56L-795.08,-1378.61L-802.30,-1377.51" />
        <path d="M-758.94,-1335.11L-781.77,-1353.10L-784.52,-1354.22L-791.12,-1353.86" />
        <path d="M-750.73,-1441.11L-742.55,-1433.75L-738.16,-1428.27" />
        <path d="M-839.40,-1444.81L-845.29,-1432.21L-851.64,-1422.64" />
        <path d="M-711.42,-1490.96L-694.86,-1473.40L-686.33,-1466.82" />
        <path d="M-926.17,-1436.59L-935.52,-1433.06" />
        <path d="M-669.24,-1408.40L-664.89,-1415.10L-663.98,-1414.04" />
      </g>
      <g id="f8" style="--index:8; opacity:0;" class="frame">
        <path d="M-683.16,-1442.28" />
        <path d="M-802.30,-1377.51L-804.47,-1377.59" />
        <path d="M-717.39,-1369.83" />
        <path d="M-791.12,-1353.86L-805.76,-1341.04L-817.67,-1335.14L-828.48,-1331.95" />
        <path d="M-819.45,-1473.06" />
        <path d="M-738.16,-1428.27L-727.79,-1415.65L-718.74,-1408.74" />
        <path d="M-851.64,-1422.64L-856.90,-1416.15L-863.60,-1410.28L-877.27,-1403.30" />
        <path d="M-686.33,-1466.82L-673.21,-1459.08L-656.18,-1453.86" />
        <path d="M-663.98,-1414.04L-657.26,-1402.23L-648.70,-1383.99" />
      </g>
      <g id="f9" style="--index:9; opacity:0;" class="frame">
        <path d="M-696.38,-1523.05" />
        <path d="M-868.71,-1510.29" />
        <path d="M-887.77,-1443.81" />
        <path d="M-683.16,-1442.28L-657.81,-1423.36" />
        <path d="M-717.39,-1369.83L-697.48,-1377.51L-690.70,-1378.10" />
        <path d="M-828.48,-1331.95L-841.72,-1329.50L-850.31,-1328.75L-856.58,-1329.52" />
        <path d="M-819.45,-1473.06L-836.94,-1459.98" />
        <path d="M-718.74,-1408.74L-704.71,-1402.12L-690.05,-1397.71" />
        <path d="M-877.27,-1403.30L-892.11,-1397.73L-899.49,-1396.22L-902.69,-1396.94" />
        <path d="M-656.18,-1453.86L-651.03,-1454.82L-650.20,-1456.66" />
        <path d="M-648.70,-1383.99L-644.96,-1377.59L-636.47,-1366.55L-632.13,-1362.46L-627.42,-1359.64" />
        <path d="M-818.34,-1358.90" />
      </g>
      <g id="f10" style="--index:10; opacity:0;" class="frame">
        <path d="M-696.38,-1523.05L-704.30,-1545.21" />
        <path d="M-868.71,-1510.29" />
        <path d="M-887.77,-1443.81" />
        <path d="M-657.81,-1423.36L-645.08,-1417.35L-639.86,-1415.82" />
        <path d="M-690.70,-1378.10L-687.17,-1378.41L-683.00,-1376.10L-671.51,-1364.24" />
        <path d="M-856.58,-1329.52L-863.78,-1332.92L-866.49,-1335.97" />
        <path d="M-836.94,-1459.98L-840.90,-1454.99L-843.84,-1452.75L-854.12,-1451.38" />
        <path d="M-690.05,-1397.71L-672.05,-1392.94" />
        <path d="M-902.69,-1396.94L-905.40,-1398.30L-908.21,-1401.38" />
        <path d="M-627.42,-1359.64L-622.42,-1357.67L-607.48,-1354.70" />
        <path d="M-818.34,-1358.90L-826.04,-1361.62L-834.25,-1360.43L-838.17,-1357.29L-841.16,-1352.02" />
      </g>
      <g id="f11" style="--index:11; opacity:0;" class="frame">
        <path d="M-704.30,-1545.21L-706.05,-1547.72L-710.05,-1548.06L-716.35,-1543.48" />
        <path d="M-868.71,-1510.29L-885.12,-1515.30L-889.61,-1515.59" />
        <path d="M-887.77,-1443.81L-869.81,-1445.84L-865.27,-1447.33L-851.65,-1448.72L-845.57,-1450.14" />
        <path d="M-868.38,-1360.22" />
        <path d="M-671.51,-1364.24L-665.19,-1360.55L-648.46,-1356.67" />
        <path d="M-866.49,-1335.97" />
        <path d="M-854.12,-1451.38L-861.80,-1450.72L-864.69,-1448.69L-869.91,-1446.93" />
        <path d="M-672.05,-1392.94L-670.11,-1393.30L-669.44,-1394.56" />
        <path d="M-892.10,-1369.26" />
        <path d="M-607.48,-1354.70L-607.11,-1354.59" />
        <path d="M-841.16,-1352.02L-845.19,-1341.84L-848.57,-1335.61L-850.56,-1332.73L-858.60,-1324.90" />
      </g>
    </g>
    <g id="t3" transform="translate(-265.04 709.14)" class="thread">
      <g id="f0" style="--index:0; opacity:1;" class="frame" />
    </g>
  </g>
</svg>