<?xml version="1.0" encoding="utf-8"?>
<svg width="1366" height="1024" viewBox="-683 -512 1366 1024" xmlns="http://www.w3.org/2000/svg">
  <style>
svg { background-color:#D7C2A1; }

#looom {
--version:2; --tempo:120; --musicTime:0; 
}

#t0 {
--visible:1; --timeOffset:5.5; --speed:12; --bookmarkIndex:-1; --latched:0; --playMode:0; --masked:0; --blendMode:0; --pressureEnabled:0; 
fill:#FFFFFF; stroke-opacity:0; fill-opacity:1; stroke-width:10; stroke-linecap:round; stroke-linejoin:round;
}
@keyframes t0 { 0% { opacity: 1; } 9.090909% { opacity: 0; } }
#t0 .frame { animation:t0 0.9166667s calc(var(--index) * 0.08333334s) steps(1) infinite; }

</style>
  <g id="w0" transform="translate(280.00 96.50) scale(0.93 0.93) rotate(-355.85)" class="weave">
    <g id="t0" transform="translate(-273.50 38.43)" class="thread">
      <g id="f0" style="--index:0; opacity:1;" class="frame">
        <path d="M20.00,59.00L20.50,51.50L26.00,37.50L31.00,16.00L37.00,-4.00L39.50,-19.50L40.00,-38.50L39.00,-49.50L35.50,-67.50L27.50,-91.50L18.00,-113.00L12.00,-123.50L-3.50,-147.00L-17.00,-159.50L-25.50,-165.00L-31.50,-167.00L-40.50,-168.50L-48.50,-168.00L-53.50,-165.00L-58.50,-159.00L-62.50,-151.50L-65.50,-143.00L-72.50,-114.00L-78.50,-76.00L-79.00,-7.00L-77.00,12.00L-72.50,30.50L-65.00,47.00L-57.00,58.00L-53.50,61.50L-46.50,66.50L-35.00,71.50L-19.00,74.50L-12.50,75.00L-3.50,74.50L16.50,63.50L25.50,57.00" />
        <path d="M11.59,63.52L16.88,62.33L20.20,59.08L27.89,45.47L33.64,30.22L38.60,7.98L40.60,-14.25L41.40,-33.81L39.87,-51.53L37.08,-61.69L33.91,-68.45L29.08,-76.81L24.76,-82.05L20.53,-86.03L11.74,-91.74" />
        <path d="M11.46,62.19L18.22,61.66L23.57,57.16L30.47,46.67L35.56,35.06L40.27,21.66L41.98,14.02L44.04,-6.61L43.98,-22.53L42.85,-30.17L36.10,-57.30L33.06,-66.33L29.47,-73.63L21.66,-85.70L12.92,-95.66L-0.19,-107.47L-3.77,-109.86L-11.38,-112.91" />
      </g>
      <g id="f1" style="--index:1; opacity:0;" class="frame">
        <path d="M-56.83,-307.02L-68.60,-307.36L-71.91,-306.77L-80.92,-303.11L-85.69,-298.94L-89.40,-294.03L-92.65,-287.25L-96.67,-275.78L-100.45,-261.64L-103.70,-233.25L-103.51,-209.42L-101.05,-188.66L-95.36,-157.88L-92.98,-133.86L-83.56,-93.58L-77.62,-73.74L-73.04,-63.52L-64.97,-51.25L-60.01,-46.00L-54.24,-41.56L-39.08,-35.66L-27.83,-34.27L-11.53,-35.59L-4.38,-37.97L0.33,-41.83L8.27,-51.78L13.57,-60.53L18.07,-70.55L32.25,-115.08L37.94,-137.50L40.52,-157.20L40.79,-183.55L38.12,-212.55L33.31,-236.97L23.70,-263.97L15.76,-279.16L5.15,-291.30L-4.77,-299.41L-27.22,-308.22L-35.83,-309.55L-46.09,-309.55L-56.83,-307.02" />
        <path d="M-51.53,-300.80L-51.53,-300.80" />
        <path d="M1.86,-106.72L3.11,-113.28L3.50,-146.27L6.82,-187.33L7.27,-206.38L4.29,-233.46L0.52,-252.03L-3.38,-264.17L-6.57,-270.94L-13.19,-280.36L-24.12,-292.57L-33.91,-300.19L-43.50,-304.77L-56.83,-307.02L-59.40,-306.17L-65.89,-302.25L-56.30,-302.39L-51.53,-300.80L-53.32,-300.80" />
      </g>
      <g id="f2" style="--index:2; opacity:0;" class="frame">
        <path d="M-111.00,-181.00L-106.00,-174.00L-97.00,-166.50L-90.50,-163.50L-74.50,-158.50L-64.00,-157.00L-40.00,-157.00L-27.50,-158.00L-11.00,-161.00L-6.00,-162.50L2.00,-166.50L13.50,-176.00L17.50,-180.50L35.50,-204.50L41.00,-215.50L45.00,-229.50L49.00,-253.00L48.50,-271.50L43.00,-292.50L38.50,-303.50L26.50,-320.50L16.50,-331.50L-0.50,-345.00L-7.50,-349.00L-25.00,-356.00L-40.00,-358.50L-50.50,-358.50L-78.50,-354.50L-95.00,-350.50L-114.00,-343.50L-123.00,-339.00L-130.50,-333.00L-145.00,-318.00L-150.00,-310.50L-157.50,-295.50L-164.00,-275.00L-164.50,-244.00L-161.00,-234.00L-156.00,-223.50L-149.50,-214.50L-139.00,-205.00L-131.00,-195.00L-125.50,-189.50L-121.50,-187.00L-115.00,-184.50L-110.50,-181.50" />
        <path d="M-114.49,-329.33L-122.58,-327.41L-136.21,-320.83L-143.88,-315.33L-149.20,-309.10L-154.49,-300.19L-158.33,-291.71L-165.29,-268.22L-168.06,-255.47L-168.33,-237.36L-166.81,-230.00L-163.23,-219.31L-154.16,-200.00L-149.78,-192.50L-144.49,-185.14L-135.88,-176.52L-130.06,-172.14L-121.25,-167.89L-111.12,-165.50L-86.63,-157.74L-77.93,-155.95L-67.80,-155.02L-57.28,-155.16L-50.07,-156.81L-32.85,-163.72L-17.76,-171.67L-8.48,-181.63L-5.50,-186.00L-1.61,-198.67L-1.40,-210.89L-3.65,-219.38L-6.57,-226.28L-16.88,-244.60L-24.64,-255.67L-34.50,-264.10" />
      </g>
      <g id="f3" style="--index:3; opacity:0;" class="frame">
        <path d="M-42.00,14.50L-39.50,21.00L-38.00,22.50L-19.00,27.00L-5.00,27.50L13.50,25.50L38.50,19.50L53.00,14.50L66.00,7.00L79.00,-5.00L84.50,-12.00L92.50,-25.50L101.50,-49.50L103.50,-63.00L104.00,-86.50L102.00,-102.00L99.00,-117.50L91.00,-140.50L84.00,-155.00L79.50,-162.50L64.50,-181.50L59.00,-187.00L41.00,-201.50L34.00,-205.50L20.50,-212.50L6.50,-217.00L-6.00,-218.50L-18.50,-218.50L-36.50,-214.50L-53.50,-208.50L-64.00,-203.50L-82.50,-190.00L-90.50,-182.50L-101.00,-170.50L-109.00,-158.50L-117.00,-143.00L-121.50,-132.00L-123.50,-124.50L-125.00,-112.50L-125.00,-98.00L-124.00,-88.00L-122.00,-79.50L-112.00,-53.00L-107.00,-42.50L-103.50,-36.00L-96.50,-26.50L-80.00,-7.00L-61.50,12.50L-56.50,16.00L-45.00,19.00L-36.00,28.00" />
        <path d="M-65.22,-3.28L-60.93,4.42L-59.28,10.92L-57.74,13.11L-49.67,18.83L-42.58,20.48L-31.79,20.41L-12.65,15.77L1.25,9.27L7.40,4.95L9.65,2.83L8.13,3.50" />
        <path d="M-60.66,0.31L-56.69,10.06L-50.53,17.83L-45.29,20.34L-33.18,23.27L-12.86,23.59L-9.73,23.06L-4.11,20.94L11.38,12.19" />
        <path d="M-63.05,7.61L-59.59,12.31L-50.00,18.75L-43.04,22.41L-36.89,23.59L-13.59,23.80L-8.75,22.73L3.56,17.63L11.38,12.84L13.30,10.19" />
        <path d="M-62.18,8.08L-58.74,13.78L-50.98,20.41L-43.77,24.00L-36.89,25.19L-24.97,25.92L-16.09,25.52L-5.44,22.00L10.71,14.11" />
        <path d="M-56.69,16.63L-50.73,20.08L-43.04,22.88L-23.12,26.05L-14.24,26.52L-9.00,26.31L-3.46,24.98L6.42,20.81L12.78,16.83" />
        <path d="M43.04,3.30L44.88,9.00L44.08,10.45L38.73,15.44L31.18,19.09L14.57,24.72L1.38,28.11L-14.51,29.50L-22.99,29.23L-49.94,21.88L-60.20,16.09L-73.43,2.03L-81.64,-10.58L-87.27,-21.39" />
        <path d="M-111.78,-117.33L-114.16,-110.17L-114.29,-92.99L-113.31,-84.36L-110.51,-69.50L-102.84,-44.67L-96.42,-29.81L-80.19,-0.75L-76.35,4.22L-63.97,14.31L-52.59,20.41L-37.48,25.59L-5.11,25.98L10.53,23.20L22.91,18.36L33.62,12.39L38.12,8.80L41.65,3.36" />
      </g>
      <g id="f4" style="--index:4; opacity:0;" class="frame">
        <path d="M-47.00,90.00L-38.00,96.50L-27.50,101.00L-12.50,105.00L-2.50,106.50L8.50,106.50L26.50,104.50L46.00,100.00L58.50,95.00L70.00,88.00L81.50,79.00L88.50,69.00L92.50,59.00L95.00,47.50L95.50,25.50L89.50,-5.50L80.50,-31.00L76.50,-39.50L63.00,-64.00L52.50,-78.50L42.00,-89.50L36.00,-94.50L23.00,-104.50L10.00,-112.50L-9.50,-120.00L-22.00,-122.00L-40.00,-122.50L-55.00,-120.00L-60.00,-118.50L-76.50,-110.50L-88.00,-103.50L-101.00,-92.50L-107.50,-83.50L-111.50,-75.50L-116.00,-69.00L-122.00,-55.00L-123.00,-47.00L-122.50,-23.50L-119.50,-5.50L-114.00,14.00L-109.00,27.00L-105.00,33.50L-89.00,53.50L-77.00,66.50L-72.00,73.50L-50.50,96.50L-46.00,99.00" />
        <path d="M-53.63,87.61L-50.19,92.31L-37.60,102.34L-27.68,105.99L-21.05,107.19L-13.17,107.45L-6.48,105.72L-0.40,101.08L5.32,93.78" />
        <path d="M-48.52,88.53" />
        <path d="M-54.21,87.55L-51.63,96.09L-39.73,107.05L-31.97,110.63L-17.34,112.89L-10.46,112.81L2.19,110.24L31.66,99.16L49.61,94.91L55.09,92.05" />
        <path d="M-118.13,-31.10L-120.18,-34.98L-119.66,-40.83L-115.10,-59.61L-111.39,-70.89L-108.35,-77.19L-104.03,-82.24L-97.80,-88.08L-93.17,-91.13L-75.37,-100.02L-67.47,-102.27L-59.13,-105.78L-42.13,-110.09L-20.20,-110.36L2.04,-99.34L15.49,-89.06L22.64,-81.77L46.09,-51.31L58.65,-37.17L63.70,-25.03L66.74,-14.02L68.60,-3.28L69.85,13.19L69.97,29.11L66.53,59.56L63.03,71.38L60.11,77.41L53.48,85.50L41.19,97.31L36.54,100.77L19.72,108.86L5.09,112.78L-2.86,114.44L-28.62,116.16L-44.23,112.97L-55.49,106.61L-60.93,102.30L-87.54,74.36L-98.67,60.63L-102.38,54.25L-108.41,37.86L-112.43,6.02L-116.62,-14.22L-118.13,-31.10" />
        <path d="M-117.81,-30.48L-118.00,-37.97L-116.22,-46.08L-109.47,-63.59L-104.70,-69.36L-93.84,-76.99L-96.21,-76.92L-100.38,-75.39L-106.55,-71.75L-117.41,-58.08L-121.19,-52.17L-123.71,-47.20L-124.56,-42.95L-124.56,-26.17L-120.91,-7.39L-114.89,15.50L-108.74,31.95L-100.45,42.58L-84.17,57.56L-69.41,72.89" />
      </g>
      <g id="f5" style="--index:5; opacity:0;" class="frame">
        <path d="M-33.00,210.00L-28.00,211.50L9.00,212.50L17.50,214.00L34.00,218.50L45.00,219.00L57.50,221.50L61.00,208.00L62.00,198.50L63.00,182.00L63.00,156.50L59.00,133.00L51.00,110.00L41.50,94.50L36.00,87.00L29.50,79.50L21.50,72.00L5.00,62.50L-5.00,59.00L-11.50,58.00L-35.00,58.00L-47.50,60.50L-65.50,67.50L-71.00,71.50L-76.00,76.50L-83.50,87.50L-96.00,129.50L-97.00,137.50L-97.00,168.00L-90.50,199.50L-89.50,202.00L-88.00,202.50L-74.50,204.50L-64.50,207.50L-50.50,209.50L-40.50,209.50L-30.50,215.00" />
        <path d="M-42.00,-467.50" />
        <path d="M-88.25,193.38L-86.00,201.80L-85.94,207.03L-84.54,207.64L-66.01,207.83L-47.54,209.10L-14.24,215.39L12.59,218.46L27.56,219.58L56.95,220.05" />
        <path d="M-88.71,195.63L-89.13,210.63L-54.21,210.63L-28.47,211.81L1.00,215.06L44.90,221.77L56.69,221.97L57.88,220.71" />
        <path d="M-91.77,190.58L-88.92,201.14L-87.13,218.85L-65.95,215.92L-40.19,215.14L-20.05,216.86L32.00,225.16L48.94,226.28L53.44,226.28L56.55,225.28L58.07,224.03L57.88,220.64" />
      </g>
      <g id="f6" style="--index:6; opacity:0;" class="frame">
        <path d="M-99.50,213.00L-94.50,214.00L-79.50,214.00L-74.00,215.00L-61.00,215.50L-44.00,219.50L36.00,220.00L51.50,219.50L60.50,217.50L70.00,214.50L81.00,209.50L88.50,202.50L95.50,190.00L98.00,181.50L98.50,168.50L94.00,160.00L85.50,151.00L71.00,141.00L62.00,136.50L32.50,128.50L20.50,126.00L7.50,125.00L-5.00,122.50L-18.00,121.50L-62.50,121.00L-79.00,123.00L-87.00,125.00L-106.50,134.50L-116.00,141.00L-122.50,147.00L-130.00,156.50L-136.00,167.00L-139.00,176.00L-139.50,180.00L-139.50,185.00L-137.50,194.50L-132.50,201.00L-126.50,206.50L-114.00,212.50L-104.50,215.50" />
        <path d="M-42.00,-467.50" />
        <path d="M-110.64,205.64L-109.85,211.16L-104.01,214.27L-12.32,221.71L23.97,222.17L46.90,220.11L72.97,214.08L79.00,211.16" />
        <path d="M31.37,-411.74" />
      </g>
      <g id="f7" style="--index:7; opacity:0;" class="frame">
        <path d="M-126.33,213.00L-123.00,214.00L-108.00,213.50L-102.50,215.00L-96.50,215.50L-78.50,215.50L-69.50,216.50L-27.50,216.50L-20.50,217.50L-3.00,218.00L18.00,218.00L39.00,215.50L70.00,213.50L78.00,212.00L96.00,206.50L100.00,203.50L103.50,199.00L105.00,196.00L105.00,192.50L100.50,188.00L91.50,185.00L68.00,183.00L-10.50,183.00L-23.00,184.00L-85.50,184.00L-99.50,185.00L-104.00,186.00L-116.00,186.00L-123.50,187.50L-130.50,190.50L-140.50,197.00L-142.50,200.00L-142.00,205.50L-138.50,211.00L-135.50,212.50L-126.33,213.00" />
        <path d="M-128.00,212.50L-126.00,213.00" />
        <path d="M-152.43,-419.30" />
        <path d="M-147.68,-398.27" />
      </g>
      <g id="f8" style="--index:8; opacity:0;" class="frame">
        <path d="M7.00,222.50L14.00,221.50L22.00,219.00L28.00,216.00L40.50,212.00L45.00,210.00L54.00,204.00L61.00,197.50L66.00,190.50L68.50,185.50L71.50,173.50L71.50,165.50L69.00,158.00L64.50,149.50L57.50,141.00L51.50,137.00L42.00,132.50L26.00,128.50L14.00,127.00L-5.00,127.00L-34.00,131.50L-57.00,137.50L-76.00,145.50L-88.00,152.00L-98.50,161.00L-104.50,170.00L-106.50,178.00L-106.50,189.50L-104.50,195.00L-100.50,199.00L-82.00,208.50L-74.50,211.50L-61.50,214.50L-52.50,217.50L-22.50,223.50L5.00,224.00L11.00,222.00" />
      </g>
      <g id="f9" style="--index:9; opacity:0;" class="frame">
        <path d="M16.00,218.50L23.00,208.00L27.50,199.00L31.00,189.50L34.00,175.00L35.00,164.00L35.00,145.00L33.00,126.50L26.50,102.00L20.00,86.00L13.50,76.50L7.00,69.50L-1.50,63.50L-9.00,60.50L-28.00,59.00L-43.50,62.00L-48.50,64.00L-57.50,71.00L-65.00,83.50L-68.50,92.50L-73.50,109.00L-76.50,129.50L-77.00,140.00L-77.00,155.50L-76.00,164.00L-74.50,169.00L-67.50,186.50L-59.50,197.00L-55.00,201.50L-52.00,203.50L-42.00,207.00L-23.00,215.50L-14.50,222.50L-11.50,224.00L-8.00,225.00L8.00,226.00L15.00,226.00L19.50,225.00" />
      </g>
      <g id="f10" style="--index:10; opacity:0;" class="frame">
        <path d="M-6.50,218.00L-1.50,213.50L1.00,208.00L8.00,186.50L12.00,168.50L18.00,135.00L20.00,118.50L21.50,99.50L21.50,90.00L21.00,90.50" />
        <path d="M22.00,99.00L24.00,93.00L24.50,79.50L23.50,64.50L19.00,37.00L13.00,20.00L0.00,-4.50L-6.00,-13.00L-12.50,-20.00L-22.50,-27.50L-28.00,-30.00L-35.50,-30.00L-38.50,-28.50L-43.00,-23.50L-52.00,0.00L-60.50,36.00L-63.00,49.50L-65.00,67.50L-65.50,109.50L-61.50,147.00L-57.00,170.00L-54.00,180.00L-38.50,212.00L-36.00,214.00L-25.00,214.50L-22.50,215.00L-20.50,216.50L-18.00,216.50L-16.00,215.00" />
        <path d="M10.46,135.97L12.86,131.47L14.72,129.61L-6.02,192.85L-8.34,197.22L-16.55,206.58L-14.57,205.19" />
        <path d="M14.05,116.80L16.57,123.03L15.97,150.85L12.26,169.49L4.65,191.25L0.33,208.03L-2.50,214.21L-4.69,216.80L-9.25,219.25L-18.34,219.05L-22.03,217.39L-35.41,206.44L-37.54,205.85" />
        <path d="M-25.24,216.66L-20.91,217.19L-18.59,215.53L-25.24,216.66" />
        <path d="M-38.00,199.81L-37.48,205.52L-34.02,207.56L-28.47,215.00L-25.24,216.66L-30.52,216.80L-35.35,213.21L-38.33,209.30L-36.27,214.53L-33.04,218.31L-25.10,220.38L-19.13,220.38L-11.17,216.00" />
        <path d="M-17.53,217.52L-25.74,218.25L-32.58,216.80L-34.83,214.94L-35.81,209.56" />
      </g>
    </g>
  </g>
</svg>