<?xml version="1.0" encoding="utf-8"?>
<svg width="1366" height="1024" viewBox="-683 -512 1366 1024" xmlns="http://www.w3.org/2000/svg">
  <style>
svg { background-color:#AB9380; }

#looom {
--version:2; --tempo:120; --musicTime:0; 
}

#t0 {
--visible:1; --timeOffset:106.3501; --speed:10; --bookmarkIndex:-1; --latched:0; --playMode:0; --masked:0; --blendMode:0; --pressureEnabled:0; 
stroke:#2481D4; stroke-opacity:1; fill-opacity:0; stroke-width:50; stroke-linecap:round; stroke-linejoin:round;
}
@keyframes t0 { 0% { opacity: 1; } 12.5% { opacity: 0; } }
#t0 .frame { animation:t0 0.8s calc(var(--index) * 0.1s) steps(1) infinite; }

#t1 {
--visible:1; --timeOffset:104.7501; --speed:10; --bookmarkIndex:-1; --latched:0; --playMode:0; --masked:0; --blendMode:0; --pressureEnabled:0; 
stroke:#00A2FF; stroke-opacity:1; fill-opacity:0; stroke-width:50; stroke-linecap:round; stroke-linejoin:round;
}
@keyframes t1 { 0% { opacity: 1; } 12.5% { opacity: 0; } }
#t1 .frame { animation:t1 0.8s calc(var(--index) * 0.1s) steps(1) infinite; }

#t2 {
--visible:1; --timeOffset:100.9377; --speed:4; --bookmarkIndex:-1; --latched:0; --playMode:0; --masked:0; --blendMode:0; --pressureEnabled:0; 
stroke:#FFFFFF; stroke-opacity:1; fill-opacity:0; stroke-width:50; stroke-linecap:round; stroke-linejoin:round;
}
@keyframes t2 { 0% { opacity: 1; } 25% { opacity: 0; } }
#t2 .frame { animation:t2 1s calc(var(--index) * 0.25s) steps(1) infinite; }

#t3 {
--visible:1; --timeOffset:99.9377; --speed:4; --bookmarkIndex:-1; --latched:0; --playMode:0; --masked:0; --blendMode:0; --pressureEnabled:0; 
stroke:#000000; stroke-opacity:1; fill-opacity:0; stroke-width:13.7738; stroke-linecap:round; stroke-linejoin:round;
}
@keyframes t3 { 0% { opacity: 1; } 25% { opacity: 0; } }
#t3 .frame { animation:t3 1s calc(var(--index) * 0.25s) steps(1) infinite; }

</style>
  <g id="w0" transform="translate(394.50 319.75) scale(0.70 0.70) rotate(-348.70)" class="weave">
    <g id="t0" transform="translate(-585.74 -316.39)" class="thread">
      <g id="f0" style="--index:0; opacity:1;" class="frame">
        <path d="M83.50,297.98L83.50,297.98" />
        <path d="M83.50,297.98L83.50,297.98" />
        <path d="M43.55,22.84L50.10,31.98L56.92,45.96L64.85,66.62L101.60,135.50L123.26,171.86L153.25,219.80L172.90,247.22L176.24,253.00L187.87,268.34L177.67,266.56L167.21,267.28L161.39,268.59L150.47,272.69L131.62,281.42L119.06,285.48L103.14,292.74L97.49,294.83L83.50,297.98L84.44,294.91L83.64,287.74L84.32,283.51L87.62,274.60L92.65,266.12L97.39,261.78L105.63,256.66L120.99,252.38L131.88,253.60L134.95,254.55L142.09,259.06L150.84,265.26L150.54,265.73" />
      </g>
      <g id="f1" style="--index:1; opacity:0;" class="frame">
        <path d="M167.14,255.90L153.61,266.67L139.84,272.63L128.37,279.71L119.02,287.12L115.32,292.45L115.50,293.22L114.16,292.71L109.67,281.88L109.18,274.23L112.18,265.80L116.05,261.25L122.94,255.62L132.91,250.92L147.29,247.68L156.71,249.64L167.14,255.90" />
        <path d="M41.19,12.35L51.63,36.94L57.51,53.99L83.27,133.92L86.50,144.62L89.44,159.47L92.70,164.86L96.26,173.45L101.16,191.53L104.05,191.70L114.78,195.81L128.80,203.68L157.89,224.07L180.06,242.75L184.26,245.07L167.14,255.90L171.47,258.97L167.18,256.26L162.38,254.90L159.75,255.90L158.81,258.97" />
      </g>
      <g id="f2" style="--index:2; opacity:0;" class="frame">
        <path d="M127.25,255.46L111.57,279.41L106.80,289.06L101.57,302.08L101.68,309.81L93.35,298.21L91.79,294.89L90.38,288.67L91.05,280.77L94.69,269.74L102.74,260.17L111.37,254.96L121.47,252.68L127.25,255.46" />
        <path d="M127.25,255.46L127.25,255.46" />
        <path d="M41.74,9.37L43.62,15.89L42.20,34.98L41.35,67.43L38.47,103.59L38.18,120.40L40.83,168.38L43.65,188.16L46.94,204.57L47.40,213.85L51.37,213.37L63.52,218.38L87.31,226.09L115.88,231.49L132.09,236.41L137.80,240.02L135.86,240.46L129.80,251.62L127.25,255.46L126.23,255.69" />
      </g>
      <g id="f3" style="--index:3; opacity:0;" class="frame">
        <path d="M34.52,8.14L33.86,19.72L28.13,37.75L21.00,53.23L2.70,87.97L-7.90,111.59L-15.40,130.84L-23.10,154.62L-26.31,167.59L-28.94,181.25L-28.82,192.65L-26.55,202.75L-24.24,207.54L-22.30,207.10L-17.03,208.77L1.35,216.06L39.03,232.88L82.59,254.10L91.25,259.90L98.44,266.45L96.20,267.36L93.70,270.78L79.28,300.98L73.64,310.41L67.58,317.90L63.23,322.15L56.54,326.92L51.67,328.83L50.03,328.80L48.51,327.50L45.82,322.80L43.67,311.45L45.58,300.00L49.14,292.25L55.25,283.12L61.67,277.18L65.85,275.83L71.34,276.64L76.49,279.56L76.54,281.59L75.46,282.24L75.64,283.02" />
      </g>
      <g id="f4" style="--index:4; opacity:0;" class="frame">
        <path d="M25.67,52.18L27.30,48.55L31.77,43.05" />
        <path d="M27.50,234.26L27.50,234.26" />
        <path d="M49.13,11.38L43.46,22.45L33.14,38.25L-26.91,123.23L-52.02,163.99L-64.26,187.57L-64.09,188.35L-60.33,188.73L-51.03,191.94L-24.64,203.96L4.26,219.90L18.63,229.32L27.41,233.87L21.16,236.91L5.10,254.41L-11.29,277.70L-21.75,291.08L-27.08,300.04L-28.11,302.72L-27.80,305.91L-37.93,297.17L-40.27,294.03L-40.80,291.70L-39.91,286.60L-37.00,277.78L-31.93,267.65L-28.23,262.33L-23.10,257.91L-15.98,255.08L-8.94,255.53L0.53,259.52" />
      </g>
      <g id="f5" style="--index:5; opacity:0;" class="frame">
        <path d="M-122.28,317.81L-122.28,317.81" />
        <path d="M-122.28,317.81L-122.28,317.81" />
        <path d="M-43.77,294.82L-43.77,294.82" />
        <path d="M-47.84,291.24L-43.77,294.82L-47.84,291.24" />
        <path d="M-47.84,291.24L-47.84,291.24" />
        <path d="M44.25,42.28L30.91,71.82L25.55,86.09L-4.28,151.19L-12.64,173.90L-24.66,229.27L-26.82,243.23L-28.11,257.40L-27.90,285.52L-29.68,299.40L-31.05,300.52L-41.54,302.89L-65.82,303.87L-80.59,303.52L-88.06,304.80L-99.72,307.42L-113.05,311.65L-122.28,317.81L-121.78,312.80L-119.68,305.80L-112.33,293.12L-107.08,287.44L-96.35,278.90L-86.98,275.16L-78.65,274.10L-73.46,275.38L-60.18,281.78L-55.42,284.79L-47.84,291.24L-51.74,288.45L-56.54,287.08L-61.59,288.22L-62.97,289.34" />
      </g>
      <g id="f6" style="--index:6; opacity:0;" class="frame">
        <path d="M12.29,306.27L11.70,310.89L10.84,310.68L4.72,303.49L-1.44,294.26L-2.84,288.04L-2.68,285.15L0.15,275.94L3.59,269.45L8.75,263.39L19.31,254.07L21.85,252.68L28.85,251.10L34.33,251.91L38.92,254.14L43.38,257.62L37.80,256.43L29.26,258.36L23.09,261.79L17.66,266.69L7.82,282.78L5.89,290.57L5.69,295.10L7.35,302.48L10.31,308.35L10.79,308.65L12.29,306.27" />
        <path d="M12.29,306.27L12.29,306.27" />
        <path d="M44.97,36.40L42.62,45.91L38.51,56.64L6.55,117.73L-1.25,137.45L-4.76,150.89L-5.96,169.13L-8.00,178.16L-7.65,179.72L-4.62,182.30L2.14,190.57L26.23,214.13L45.67,229.75L64.69,247.11L60.76,249.62L53.24,261.53L35.59,281.02L29.29,285.70L18.81,291.74L15.93,295.24L13.91,298.97L12.29,306.27L21.63,295.18L26.76,290.76L33.40,287.63" />
      </g>
      <g id="f7" style="--index:7; opacity:0;" class="frame">
        <path d="M11.91,306.76L9.53,308.53L11.49,311.76L12.18,311.20L11.91,306.76" />
        <path d="M48.46,31.94L53.23,67.61L55.34,125.92L57.85,155.16L60.59,174.55L69.88,219.40L80.92,259.37L85.48,279.57L89.31,289.33L87.58,288.90L75.92,291.53L59.14,298.57L29.96,306.78L11.91,306.76L13.56,297.41L20.09,286.55L28.97,278.83L38.55,274.23L44.46,273.30L48.70,273.98L56.74,277.07L68.64,284.59L73.75,289.16L73.24,290.50" />
      </g>
    </g>
    <g id="t1" transform="translate(-585.74 -316.39)" class="thread">
      <g id="f0" style="--index:0; opacity:1;" class="frame">
        <path d="M25.67,52.18L27.30,48.55L31.77,43.05" />
        <path d="M27.50,234.26L27.50,234.26" />
        <path d="M49.13,11.38L43.46,22.45L33.14,38.25L-26.91,123.23L-52.02,163.99L-64.26,187.57L-64.09,188.35L-60.33,188.73L-51.03,191.94L-24.64,203.96L4.26,219.90L18.63,229.32L27.41,233.87L21.16,236.91L5.10,254.41L-11.29,277.70L-21.75,291.08L-27.08,300.04L-28.11,302.72L-27.80,305.91L-37.93,297.17L-40.27,294.03L-40.80,291.70L-39.91,286.60L-37.00,277.78L-31.93,267.65L-28.23,262.33L-23.10,257.91L-15.98,255.08L-8.94,255.53L0.53,259.52" />
        <path d="M41.27,15.40L30.68,19.00L15.09,20.34L-11.96,18.42L-26.22,16.32L-69.14,4.30L-92.19,-7.94L-111.82,-20.62L-119.96,-26.50L-136.48,-40.86L-143.81,-50.48L-161.67,-80.43L-168.09,-93.39L-172.85,-106.78L-176.79,-122.15L-178.52,-134.10L-178.74,-153.96L-176.18,-178.52L-172.43,-194.97L-163.31,-218.11L-152.82,-237.62L-139.20,-255.27L-124.52,-270.54L-112.30,-279.87L-102.04,-284.72L-87.60,-288.86L-69.32,-291.77L-61.52,-292.44L-50.81,-292.09L-39.36,-290.60L-13.53,-283.05L5.13,-275.88L18.27,-269.51L24.64,-265.39L30.59,-261.16L42.09,-250.83L50.15,-241.83L69.02,-216.57L75.85,-203.71L78.80,-197.38L87.19,-168.11L90.67,-142.44L91.47,-130.70L91.56,-97.52L90.00,-79.42L85.25,-56.51L80.66,-41.61L71.93,-22.12L66.79,-12.83L60.91,-4.68L55.43,1.59L46.22,8.82L41.14,11.45L37.40,12.41L35.94,11.89" />
        <path d="M11.18,-179.34L25.93,-134.26L31.00,-121.40L40.26,-102.52L42.99,-98.80L42.55,-102.23L37.99,-116.55L16.34,-173.41L12.98,-179.63L11.18,-179.34" />
        <path d="M23.10,-89.10L23.99,-74.45L23.95,-47.00L23.18,-36.18L21.96,-30.56L22.39,-28.90L26.02,-30.27L27.46,-33.29L29.09,-39.02L29.56,-47.55L29.60,-57.74L28.51,-67.20L23.10,-89.10" />
        <path d="M-23.66,-97.78L-22.76,-84.16L-18.74,-56.42L-16.30,-46.87L-12.28,-36.39L-8.18,-29.03L-1.50,-23.66L0.16,-24.08L1.30,-24.82L2.02,-27.22L1.66,-35.53L-4.51,-57.86L-14.32,-82.34L-20.21,-93.22L-23.66,-97.78" />
        <path d="M-130.27,-222.15L-134.21,-220.26L-141.45,-196.71L-148.03,-165.37L-148.70,-155.90L-148.34,-147.59L-144.02,-120.37L-142.10,-112.89L-133.76,-90.68L-123.55,-69.84L-116.52,-59.69L-96.40,-34.75L-81.44,-19.55L-70.06,-11.40L-56.39,-2.95L-32.50,9.07L-22.50,11.82L-7.93,13.40L2.04,12.61L12.12,10.47L21.25,6.37L34.30,-1.41L41.65,-7.27L63.47,-29.24L66.86,-34.98L68.28,-41.54L68.30,-55.27L60.83,-106.91L58.50,-131.54L56.67,-142.14L50.92,-164.57L40.24,-194.14L32.58,-206.78L4.11,-236.67L-7.78,-243.36L-21.84,-246.40L-46.84,-254.15L-60.68,-254.59L-69.82,-254.02L-90.08,-250.16L-97.13,-246.58L-102.93,-241.55L-109.12,-234.65L-114.38,-225.78L-121.03,-208.58L-122.45,-202.02L-125.61,-172.89L-125.77,-164.88L-124.05,-137.43L-121.45,-120.39L-117.83,-106.27L-112.76,-93.41L-106.56,-81.28L-95.77,-68.55L-89.08,-63.18L-83.45,-60.20L-79.39,-59.91L-78.05,-61.58L-78.00,-70.01L-82.72,-95.35L-92.64,-137.52L-97.75,-174.72L-98.07,-193.22L-96.90,-207.69L-93.48,-227.15L-91.33,-232.57L-89.99,-234.25L-86.05,-236.14L-82.51,-236.16L-78.96,-234.41L-69.66,-225.73L-64.51,-215.99L-61.55,-207.89L-53.14,-175.08L-43.93,-130.52L-38.54,-116.41L-35.40,-112.79L-32.70,-112.60L-32.08,-113.64L-30.57,-121.55L-30.41,-165.86L-28.95,-182.61L-25.42,-201.66L-21.86,-215.41L-18.69,-223.75L-16.30,-224.80L-14.32,-223.98L-4.59,-213.64L0.76,-204.83L5.50,-194.98L11.18,-179.34L10.30,-174.52L11.22,-160.59L19.68,-118.94L23.10,-89.10L17.06,-104.99L12.54,-112.24L6.38,-117.30L0.64,-120.70L-8.12,-123.77L-13.31,-123.32L-15.29,-122.37L-19.00,-117.88L-21.88,-111.83L-23.66,-97.78L-26.60,-100.88L-33.07,-105.42L-39.74,-107.25L-43.27,-107.23L-47.84,-106.06L-52.19,-102.29L-56.82,-94.46L-57.79,-82.71L-56.27,-71.59L-52.23,-55.81L-43.17,-36.00L-34.46,-22.74L-22.73,-9.81L-17.21,-7.24L-14.82,-8.29L-13.93,-15.16L-16.40,-28.25L-23.18,-49.53L-31.83,-71.21L-38.77,-84.48L-40.55,-86.24L-43.67,-86.33L-46.46,-83.40L-48.21,-79.85L-49.09,-71.22L-48.84,-63.31L-47.75,-55.62L-44.03,-41.09L-39.08,-30.41L-33.64,-24.72L-30.72,-23.69" />
      </g>
      <g id="f1" style="--index:1; opacity:0;" class="frame">
        <path d="M-122.28,317.81L-122.28,317.81" />
        <path d="M-122.28,317.81L-122.28,317.81" />
        <path d="M-43.77,294.82L-43.77,294.82" />
        <path d="M-47.84,291.24L-43.77,294.82L-47.84,291.24" />
        <path d="M-47.84,291.24L-47.84,291.24" />
        <path d="M44.25,42.28L30.91,71.82L25.55,86.09L-4.28,151.19L-12.64,173.90L-24.66,229.27L-26.82,243.23L-28.11,257.40L-27.90,285.52L-29.68,299.40L-31.05,300.52L-41.54,302.89L-65.82,303.87L-80.59,303.52L-88.06,304.80L-99.72,307.42L-113.05,311.65L-122.28,317.81L-121.78,312.80L-119.68,305.80L-112.33,293.12L-107.08,287.44L-96.35,278.90L-86.98,275.16L-78.65,274.10L-73.46,275.38L-60.18,281.78L-55.42,284.79L-47.84,291.24L-51.74,288.45L-56.54,287.08L-61.59,288.22L-62.97,289.34" />
        <path d="M14.92,-273.96L38.96,-252.68L35.39,-257.97L26.61,-266.34L14.92,-273.96" />
        <path d="M11.68,-276.23L14.92,-273.96L11.68,-276.23" />
        <path d="M11.68,-276.23L11.68,-276.23" />
        <path d="M3.85,-280.87L11.68,-276.23L3.85,-280.87" />
        <path d="M-15.66,-290.98L-6.68,-285.69L3.85,-280.87L-7.32,-288.18L-15.66,-290.98" />
        <path d="M-32.92,-297.12L-24.21,-295.36L-15.66,-290.98L-32.92,-297.12" />
        <path d="M-91.12,-285.30L-85.09,-285.96L-69.07,-285.64L-38.97,-276.97L-31.14,-272.34L-5.33,-251.07L15.69,-231.23L31.95,-207.51L39.80,-197.57L48.00,-182.85L59.92,-155.36L68.30,-126.09L71.47,-99.90L73.09,-72.87L73.03,-64.45L69.37,-33.85L65.09,-17.71L51.24,14.61L50.85,18.25L52.51,17.83L54.38,16.47L59.02,10.41L67.88,-3.37L79.59,-28.50L83.06,-39.13L87.82,-62.04L88.80,-72.03L88.39,-87.42L86.18,-109.87L76.90,-149.54L70.07,-162.39L60.90,-182.62L52.29,-197.23L35.94,-235.09L31.43,-242.34L27.03,-247.41L11.87,-261.67L-5.24,-271.45L-13.82,-278.99L-19.44,-280.21L-26.42,-283.29L-30.59,-283.99L-39.24,-288.41L-47.16,-289.93L-40.01,-294.86L-32.92,-297.12L-35.56,-298.21L-52.43,-301.85L-58.15,-301.72L-66.87,-299.48L-73.19,-296.53L-91.12,-285.30" />
        <path d="M78.88,-185.01L83.04,-167.04L84.15,-154.05L83.57,-94.15L84.13,-69.50L85.73,-63.27L86.87,-64.01L87.16,-68.07L87.33,-91.57L88.94,-118.10L88.26,-144.92L84.38,-168.72L81.93,-178.27L78.88,-185.01" />
        <path d="M-52.62,-193.80L-59.83,-182.22L-75.47,-153.42L-88.71,-123.92L-93.48,-102.78L-94.65,-90.08L-93.01,-76.78L-90.38,-71.70L-86.10,-68.81L-81.74,-69.05L-79.35,-70.10L-76.37,-75.74L-58.53,-171.93L-50.66,-196.52L-52.62,-193.80" />
        <path d="M-52.62,-193.80L-52.62,-193.80" />
        <path d="M-49.24,-46.05L-41.25,-63.05L-25.68,-104.22L-17.03,-136.09L-10.14,-166.18L-6.62,-187.00L-8.17,-186.16L-12.90,-176.98L-16.43,-175.19L-19.13,-175.39L-22.35,-174.12L-28.48,-154.84L-31.52,-142.55L-49.24,-46.05" />
        <path d="M-28.73,-3.84L-28.73,-3.84" />
        <path d="M-23.28,-13.65L-26.66,-6.14L-28.73,-3.84L-23.28,-13.65" />
        <path d="M37.20,30.61L33.05,33.44L30.45,33.66L12.04,32.63L5.07,31.32L-11.37,31.10L-22.71,30.02L-35.01,25.21L-45.44,19.03L-53.99,15.02L-67.15,6.89L-79.48,-3.23L-102.17,-24.42L-123.06,-40.31L-144.62,-64.00L-160.68,-88.65L-168.89,-105.14L-173.01,-116.04L-178.01,-135.56L-178.91,-147.72L-175.95,-174.15L-174.43,-182.06L-168.12,-204.04L-164.63,-212.90L-144.28,-252.64L-139.74,-259.12L-132.60,-265.82L-119.76,-274.42L-97.76,-283.60L-91.12,-285.30L-103.13,-276.91L-112.55,-268.74L-110.37,-268.86L-103.12,-275.14L-86.35,-287.41L-76.70,-291.21L-57.88,-292.05L-27.62,-291.39L-3.87,-285.08L4.68,-281.08L33.62,-259.72L41.44,-255.09L49.28,-248.69L60.68,-237.00L69.00,-220.10L72.38,-210.35L78.88,-185.01L75.00,-189.77L71.99,-189.44L65.82,-177.24L59.42,-169.40L55.58,-167.09L53.51,-166.56L47.47,-167.67L36.00,-172.69L27.44,-178.47L-7.99,-207.90L-15.85,-217.83L-30.75,-241.46L-46.66,-258.63L-48.33,-259.97L-61.77,-264.05L-69.77,-262.44L-89.68,-252.03L-103.06,-247.27L-110.10,-241.93L-118.36,-230.96L-126.50,-217.81L-136.74,-192.16L-147.23,-153.63L-148.80,-137.29L-147.99,-123.77L-140.75,-95.53L-135.72,-87.97L-132.48,-85.70L-131.23,-86.02L-130.22,-90.71L-128.01,-121.81L-124.07,-140.97L-114.48,-172.64L-103.11,-202.55L-91.69,-223.63L-81.79,-236.79L-77.24,-241.50L-68.85,-246.74L-62.09,-248.03L-60.11,-247.21L-53.73,-241.32L-48.91,-234.59L-45.75,-227.43L-43.73,-219.54L-44.02,-215.48L-46.05,-207.88L-54.47,-188.90L-62.03,-149.34L-67.64,-129.76L-72.20,-109.56L-73.81,-100.29L-74.96,-84.06L-71.36,-56.21L-67.02,-42.72L-63.05,-39.31L-58.05,-38.82L-53.28,-40.93L-49.24,-46.05L-52.41,-16.81L-52.53,-1.73L-50.37,11.88L-47.55,14.26L-45.26,14.56L-28.73,13.42L-12.52,11.04L14.61,9.84L26.35,7.27L31.21,3.81L34.41,-0.99L38.98,-19.43L41.34,-43.05L36.75,-79.94L33.80,-122.56L26.75,-153.51L21.85,-155.35L18.56,-149.19L9.44,-126.05L2.76,-95.13L-2.13,-77.94L-16.72,-31.26L-23.28,-13.65L-3.15,-38.73L8.22,-51.38L11.84,-54.52L15.37,-56.31L26.16,-59.08" />
      </g>
      <g id="f2" style="--index:2; opacity:0;" class="frame">
        <path d="M12.29,306.27L11.70,310.89L10.84,310.68L4.72,303.49L-1.44,294.26L-2.84,288.04L-2.68,285.15L0.15,275.94L3.59,269.45L8.75,263.39L19.31,254.07L21.85,252.68L28.85,251.10L34.33,251.91L38.92,254.14L43.38,257.62L37.80,256.43L29.26,258.36L23.09,261.79L17.66,266.69L7.82,282.78L5.89,290.57L5.69,295.10L7.35,302.48L10.31,308.35L10.79,308.65L12.29,306.27" />
        <path d="M12.29,306.27L12.29,306.27" />
        <path d="M44.97,36.40L42.62,45.91L38.51,56.64L6.55,117.73L-1.25,137.45L-4.76,150.89L-5.96,169.13L-8.00,178.16L-7.65,179.72L-4.62,182.30L2.14,190.57L26.23,214.13L45.67,229.75L64.69,247.11L60.76,249.62L53.24,261.53L35.59,281.02L29.29,285.70L18.81,291.74L15.93,295.24L13.91,298.97L12.29,306.27L21.63,295.18L26.76,290.76L33.40,287.63" />
        <path d="M-130.36,-144.68L-135.11,-127.07L-137.71,-109.59L-135.96,-94.10L-134.68,-89.12L-133.42,-85.90L-131.43,-85.08L-129.46,-86.03L-128.23,-88.12L-123.10,-100.94L-121.09,-112.08L-120.51,-120.19L-121.81,-128.71L-124.46,-137.33L-126.14,-140.44L-130.36,-144.68" />
        <path d="M-21.56,-103.20L-26.31,-139.47L-32.71,-167.92L-34.50,-171.45L-38.69,-175.69L-40.25,-176.61L-43.99,-175.66L-50.49,-166.47L-54.59,-156.56L-61.23,-135.83L-65.07,-118.02L-67.35,-99.29L-67.56,-81.09L-65.69,-63.42L-62.38,-48.78L-57.33,-39.45L-50.86,-34.91L-47.94,-33.89L-45.34,-34.11L-42.12,-35.38L-39.64,-37.79L-37.06,-41.54L-32.87,-52.80L-24.44,-87.27L-21.56,-103.20" />
        <path d="M2.00,-30.75L2.21,-29.92L2.00,-30.75" />
        <path d="M2.00,-30.75L2.00,-30.75" />
        <path d="M34.95,37.38L30.38,38.55L19.67,38.20L-25.81,33.47L-37.89,29.49L-62.83,15.08L-87.48,-3.39L-102.34,-18.18L-115.18,-26.84L-126.06,-38.21L-141.95,-51.85L-161.12,-74.82L-164.68,-80.10L-171.84,-94.20L-180.59,-114.54L-186.54,-136.03L-188.62,-154.53L-189.25,-172.51L-187.77,-185.73L-185.12,-196.14L-180.93,-207.40L-169.08,-226.81L-163.10,-234.54L-155.27,-247.17L-139.58,-267.13L-126.46,-281.56L-116.41,-289.00L-97.75,-299.09L-79.48,-303.77L-75.42,-303.49L-65.10,-299.49L-54.27,-296.96L-39.66,-288.31L-32.16,-286.69L-26.74,-284.53L-21.21,-280.20L-15.57,-277.22L4.33,-270.37L10.70,-266.24L22.48,-261.74L37.40,-253.61L44.92,-246.69L47.65,-242.96L50.91,-237.15L56.19,-223.46L57.44,-222.01L68.44,-191.19L76.44,-156.50L81.25,-117.01L81.81,-92.37L79.88,-67.09L76.96,-50.85L61.33,-3.02L55.26,7.83L41.09,21.64L35.71,24.79L33.06,16.18L32.40,10.15L32.82,-5.45L36.01,-29.29L43.32,-59.49L44.19,-71.66L44.44,-98.28L43.01,-147.05L43.88,-176.48L43.27,-192.70L40.47,-208.81L36.10,-225.84L34.84,-229.05L31.69,-232.67L25.02,-236.27L22.72,-238.34L20.12,-238.12L11.83,-232.45L2.22,-223.35L-1.52,-222.39L-3.94,-226.64L-10.11,-250.73L-12.22,-255.50L-19.66,-265.55L-26.14,-270.08L-33.34,-273.99L-55.51,-277.61L-62.89,-277.04L-70.36,-275.13L-84.58,-270.15L-98.05,-260.51L-119.04,-240.52L-130.09,-228.39L-141.76,-213.45L-149.68,-199.47L-155.53,-186.02L-162.05,-163.11L-165.33,-155.18L-166.34,-148.73L-164.57,-148.74L-160.95,-151.88L-119.77,-205.37L-107.69,-220.41L-99.63,-228.68L-88.34,-236.44L-72.99,-243.91L-66.34,-245.62L-61.76,-245.02L-57.70,-242.96L-54.87,-240.59L-52.46,-236.34L-52.55,-234.99L-56.06,-229.66L-85.34,-204.01L-101.88,-187.38L-116.44,-169.93L-126.74,-153.12L-130.36,-144.68L-134.39,-144.97L-136.88,-144.33L-140.50,-141.19L-141.74,-139.10L-142.95,-133.48L-142.93,-129.94L-140.90,-120.28L-132.55,-98.07L-127.93,-90.41L-97.38,-42.02L-89.21,-30.84L-76.75,-16.77L-68.39,-10.06L-51.27,1.49L-40.32,6.21L-30.21,9.37L-18.97,11.80L-6.18,11.62L4.83,9.69L10.44,7.37L15.51,2.97L22.11,-5.81L30.12,-22.91L33.78,-38.01L36.73,-66.21L36.02,-81.08L32.98,-103.31L31.58,-127.74L22.22,-181.56L19.98,-190.28L16.72,-197.85L12.32,-202.92L6.99,-206.43L-14.69,-215.03L-24.89,-216.85L-32.27,-216.28L-43.17,-213.93L-47.63,-210.58L-52.97,-200.35L-61.59,-180.44L-71.63,-153.97L-77.41,-129.91L-81.10,-102.85L-80.46,-81.33L-76.59,-61.07L-73.19,-47.78L-65.49,-29.83L-58.89,-21.35L-55.13,-18.77L-43.56,-15.09L-35.97,-14.82L-27.66,-16.95L-22.07,-21.04L-17.96,-29.18L-16.06,-42.50L-16.94,-68.39L-21.56,-103.20L-18.81,-120.58L-17.07,-160.42L-16.86,-178.62L-17.89,-194.74L-13.90,-187.79L-2.31,-161.55L2.14,-147.64L5.45,-133.00L5.97,-115.43L0.80,-57.89L2.00,-30.75L0.89,-41.98L-2.00,-56.73" />
      </g>
      <g id="f3" style="--index:3; opacity:0;" class="frame">
        <path d="M11.91,306.76L9.53,308.53L11.49,311.76L12.18,311.20L11.91,306.76" />
        <path d="M48.46,31.94L53.23,67.61L55.34,125.92L57.85,155.16L60.59,174.55L69.88,219.40L80.92,259.37L85.48,279.57L89.31,289.33L87.58,288.90L75.92,291.53L59.14,298.57L29.96,306.78L11.91,306.76L13.56,297.41L20.09,286.55L28.97,278.83L38.55,274.23L44.46,273.30L48.70,273.98L56.74,277.07L68.64,284.59L73.75,289.16L73.24,290.50" />
        <path d="M35.07,-158.17L44.11,-137.59L54.58,-107.08L57.47,-94.10L60.52,-70.09L60.56,-63.02L58.76,-51.05L49.45,-25.21L41.74,-10.39L38.77,-2.99L38.43,-7.77L40.46,-51.67L40.24,-123.32L38.49,-138.81L35.07,-158.17" />
        <path d="M-63.78,-211.08L-62.51,-213.40L-63.78,-211.08" />
        <path d="M-67.74,-203.65L-63.78,-211.08L-67.74,-203.65" />
        <path d="M-79.72,-180.22L-67.74,-203.65L-79.72,-180.22" />
        <path d="M-43.45,-42.40L-41.50,-34.65L-39.81,-31.54L-35.73,-27.72L-33.34,-27.01L-29.49,-27.55L-26.61,-31.83L-24.51,-46.09L-26.21,-87.26L-24.50,-97.88L-22.96,-100.49L-21.09,-101.85L-15.19,-70.17L-14.56,-52.18L-16.57,-41.04L-21.06,-25.73L-22.39,-22.29L-26.00,-17.38L-31.30,-15.58L-34.94,-15.97L-38.27,-16.89L-45.90,-22.46L-54.26,-30.94L-64.22,-43.88L-71.35,-54.45L-78.72,-69.38L-76.74,-68.56L-67.85,-59.77L-54.07,-50.91L-43.45,-42.40" />
        <path d="M31.67,45.30L28.98,48.65L20.98,50.25L11.42,50.93L-0.86,49.65L-18.46,44.87L-32.02,38.60L-53.38,31.24L-77.16,19.63L-88.33,12.31L-102.64,1.37L-113.18,-5.22L-126.98,-17.62L-139.75,-31.16L-168.88,-68.85L-180.65,-88.85L-194.06,-123.92L-195.87,-130.98L-197.67,-153.54L-196.44,-174.65L-193.81,-186.84L-185.72,-208.83L-176.38,-229.37L-163.61,-250.35L-149.48,-271.23L-127.69,-296.73L-117.96,-305.42L-111.13,-309.83L-93.19,-319.29L-82.50,-322.48L-73.14,-322.22L-49.51,-318.09L-20.74,-307.76L1.49,-293.54L15.89,-285.72L29.28,-271.45L34.40,-267.01L39.54,-260.80L45.41,-251.68L50.12,-247.13L55.80,-237.08L60.30,-231.59L70.48,-216.05L74.28,-206.41L76.94,-196.02L77.85,-182.09L77.20,-169.09L78.02,-136.54L76.99,-99.10L73.92,-73.08L64.10,-26.75L50.79,7.65L42.74,17.68L38.08,21.97L31.86,25.33L27.71,26.40L23.96,25.59L-8.18,7.27L-31.57,-9.75L-41.27,-14.79L-57.64,-21.66L-72.99,-31.45L-80.49,-34.84L-85.40,-38.45L-98.79,-50.96L-118.36,-72.06L-124.52,-77.12L-133.11,-86.42L-140.36,-99.17L-145.95,-112.35L-156.35,-147.75L-157.44,-157.20L-157.29,-166.98L-156.15,-184.98L-154.55,-196.01L-151.08,-206.64L-145.63,-218.21L-132.74,-237.01L-120.26,-253.93L-112.41,-263.02L-96.38,-278.20L-81.79,-290.35L-67.81,-299.68L-62.62,-301.90L-53.37,-303.82L-51.09,-303.53L-46.50,-301.16L-39.48,-292.78L-13.06,-257.06L20.72,-189.14L35.07,-158.17L20.20,-223.97L19.21,-233.02L19.51,-235.31L20.56,-234.69L25.71,-224.94L27.72,-218.82L33.68,-195.56L37.77,-172.70L39.75,-154.62L40.23,-142.35L38.45,-126.85L31.63,-101.64L20.76,-40.43L19.62,-39.69L17.22,-42.18L8.58,-60.32L3.61,-74.54L-2.99,-100.29L-13.13,-162.32L-17.79,-211.58L-19.70,-219.06L-24.76,-230.16L-32.08,-238.02L-41.49,-245.35L-52.40,-262.02L-54.18,-263.78L-64.61,-269.96L-70.87,-271.90L-75.85,-270.62L-82.27,-266.32L-90.34,-258.06L-100.35,-245.31L-110.44,-227.68L-123.38,-200.46L-134.34,-172.42L-137.58,-157.43L-140.75,-130.06L-130.29,-154.87L-103.93,-200.57L-95.78,-211.96L-86.68,-219.60L-77.97,-223.60L-70.80,-225.00L-63.50,-222.44L-60.79,-220.48L-56.59,-214.47L-53.74,-206.80L-53.09,-202.54L-52.83,-192.87L-56.68,-176.83L-63.76,-159.52L-77.77,-138.23L-88.43,-127.97L-90.70,-126.50L-93.72,-126.17L-94.87,-127.21L-95.51,-129.70L-95.53,-133.23L-92.40,-148.64L-90.46,-154.90L-79.72,-180.22L-86.67,-166.04L-94.40,-153.00L-104.85,-126.42L-105.85,-119.97L-106.10,-108.84L-104.06,-99.18L-99.34,-91.09L-96.41,-88.30L-90.15,-84.60L-83.49,-84.53L-80.58,-85.28L-74.99,-89.37L-71.79,-92.40L-69.01,-97.10L-48.08,-146.72L-42.74,-156.94L-40.46,-158.41L-37.20,-152.61L-32.95,-137.76L-32.35,-123.31L-34.74,-106.76L-39.73,-88.22L-43.15,-68.75L-44.71,-50.65L-43.45,-42.40L9.76,-2.20L15.79,-1.09L19.01,-2.36L21.07,-6.42L22.48,-12.98" />
      </g>
      <g id="f4" style="--index:4; opacity:0;" class="frame">
        <path d="M83.50,297.98L83.50,297.98" />
        <path d="M83.50,297.98L83.50,297.98" />
        <path d="M43.55,22.84L50.10,31.98L56.92,45.96L64.85,66.62L101.60,135.50L123.26,171.86L153.25,219.80L172.90,247.22L176.24,253.00L187.87,268.34L177.67,266.56L167.21,267.28L161.39,268.59L150.47,272.69L131.62,281.42L119.06,285.48L103.14,292.74L97.49,294.83L83.50,297.98L84.44,294.91L83.64,287.74L84.32,283.51L87.62,274.60L92.65,266.12L97.39,261.78L105.63,256.66L120.99,252.38L131.88,253.60L134.95,254.55L142.09,259.06L150.84,265.26L150.54,265.73" />
        <path d="M6.50,-254.99L6.50,-254.99" />
        <path d="M48.34,-143.54L49.80,-143.03L50.94,-143.77L50.66,-155.21L44.81,-178.05L40.57,-191.13L21.73,-230.12L6.50,-254.99L16.92,-233.31L32.97,-193.16L40.90,-170.85L48.34,-143.54" />
        <path d="M0.44,-101.37L-15.99,-47.39L-28.71,-17.57L-24.79,-23.00L-14.64,-47.29L-9.21,-62.40L-1.67,-88.24L0.44,-101.37" />
        <path d="M-24.69,-180.88L-30.43,-169.39L-36.37,-152.82L-56.78,-87.39L-63.29,-62.71L-65.50,-48.86L-66.34,-33.16L-65.59,-28.48L-62.89,-30.06L-57.45,-41.63L-53.15,-54.24L-38.49,-107.57L-29.48,-148.39L-24.69,-180.88" />
        <path d="M-102.52,-84.52L-102.52,-84.52" />
        <path d="M-112.30,-120.92L-112.42,-105.89L-111.19,-90.71L-108.84,-79.81L-107.46,-76.18L-105.47,-73.59L-100.25,-70.50L-97.97,-70.20L-95.37,-70.42L-92.67,-72.00L-87.52,-79.52L-81.86,-90.26L-71.63,-119.44L-69.18,-127.15L-64.02,-151.93L-63.19,-169.41L-65.32,-194.98L-67.49,-210.36L-71.29,-220.00L-77.27,-229.54L-79.14,-228.17L-80.36,-224.32L-95.42,-167.35L-102.18,-133.30L-104.25,-113.74L-104.48,-99.07L-102.52,-84.52L-107.43,-105.40L-112.30,-120.92" />
        <path d="M45.27,41.37L41.65,44.52L38.84,45.68L18.18,51.41L-0.86,49.65L-15.96,46.00L-23.76,44.90L-50.02,35.70L-60.44,33.05L-84.75,19.36L-103.13,6.37L-120.07,-9.65L-132.81,-17.89L-142.43,-27.82L-152.36,-35.46L-160.31,-44.04L-166.08,-52.74L-171.24,-62.49L-181.98,-85.41L-187.83,-108.25L-189.11,-130.50L-188.07,-148.91L-182.75,-181.70L-174.52,-213.47L-171.79,-227.00L-164.93,-245.14L-156.29,-261.52L-144.52,-276.04L-136.15,-284.83L-127.25,-293.30L-108.62,-308.70L-94.11,-315.96L-80.92,-319.78L-66.15,-319.14L-39.59,-312.22L-31.15,-308.63L-16.54,-299.99L-6.85,-296.71L1.81,-292.29L11.85,-282.47L23.97,-273.19L47.21,-246.39L52.88,-238.10L59.62,-223.89L68.92,-197.95L80.83,-153.20L85.41,-118.08L85.67,-108.41L84.79,-99.77L80.83,-82.38L78.25,-61.36L75.11,-47.72L65.39,-20.00L58.39,-7.58L48.91,7.24L44.37,11.95L35.56,17.30L24.76,20.07L15.92,20.12L8.53,18.92L-12.31,11.87L-21.28,7.97L-35.15,0.46L-61.04,-15.92L-77.94,-24.87L-95.59,-38.50L-104.38,-46.87L-126.58,-73.05L-139.06,-90.65L-151.77,-112.63L-163.82,-145.83L-165.75,-155.08L-165.67,-159.96L-164.59,-169.54L-157.86,-193.39L-146.26,-218.94L-118.72,-256.54L-108.90,-266.58L-95.96,-276.54L-82.90,-284.31L-76.57,-287.26L-71.17,-288.64L-65.76,-288.26L-55.35,-285.61L-51.27,-281.79L-43.09,-270.61L-17.04,-243.20L-5.93,-229.23L5.61,-211.83L19.11,-197.14L27.62,-182.94L46.04,-145.61L48.34,-143.54L55.27,-114.78L56.55,-90.76L52.65,-64.53L49.10,-49.02L45.02,-35.58L42.25,-29.12L33.60,-14.51L24.01,-1.87L18.31,1.81L13.63,2.56L9.26,1.03L5.27,-4.15L1.13,-18.58L0.77,-26.90L1.55,-35.95L3.59,-43.55L7.48,-52.52L18.49,-73.49L21.24,-83.48L23.02,-98.99L21.06,-113.54L15.31,-135.97L9.82,-150.49L7.51,-154.33L8.06,-148.72L6.63,-126.66L3.90,-113.13L0.44,-101.37L2.49,-123.83L2.23,-131.73L-0.18,-153.24L-2.31,-161.55L-11.04,-178.35L-15.33,-183.00L-18.35,-184.44L-20.12,-184.43L-22.20,-183.90L-24.69,-180.88L-24.10,-206.87L-26.69,-222.14L-33.01,-236.45L-38.25,-243.08L-46.40,-248.96L-54.53,-253.07L-57.45,-254.09L-63.28,-254.37L-70.34,-252.56L-81.00,-244.07L-90.59,-231.43L-95.30,-218.72L-102.44,-194.76L-110.50,-150.20L-112.30,-120.92L-118.24,-140.69L-122.77,-166.98L-127.02,-183.59L-129.13,-188.36L-133.42,-193.02L-136.44,-192.69L-137.36,-191.12L-138.69,-187.68L-140.20,-178.00L-140.43,-165.10L-137.14,-134.97L-134.05,-122.92L-129.08,-108.70L-125.49,-99.88L-122.34,-94.50" />
      </g>
      <g id="f5" style="--index:5; opacity:0;" class="frame">
        <path d="M167.14,255.90L153.61,266.67L139.84,272.63L128.37,279.71L119.02,287.12L115.32,292.45L115.50,293.22L114.16,292.71L109.67,281.88L109.18,274.23L112.18,265.80L116.05,261.25L122.94,255.62L132.91,250.92L147.29,247.68L156.71,249.64L167.14,255.90" />
        <path d="M41.19,12.35L51.63,36.94L57.51,53.99L83.27,133.92L86.50,144.62L89.44,159.47L92.70,164.86L96.26,173.45L101.16,191.53L104.05,191.70L114.78,195.81L128.80,203.68L157.89,224.07L180.06,242.75L184.26,245.07L167.14,255.90L171.47,258.97L167.18,256.26L162.38,254.90L159.75,255.90L158.81,258.97" />
        <path d="M42.09,49.71L37.95,52.54L13.34,58.41L1.58,57.44L-17.90,52.25L-59.64,27.54L-86.58,8.77L-104.15,-7.98L-127.46,-28.12L-134.68,-35.56L-147.46,-50.88L-157.60,-61.11L-168.60,-74.67L-173.32,-80.99L-176.06,-86.48L-186.96,-118.66L-189.51,-128.63L-190.07,-136.01L-190.35,-147.44L-189.17,-158.37L-186.03,-173.78L-178.92,-201.28L-172.88,-217.43L-166.31,-233.28L-154.89,-254.35L-145.91,-265.95L-134.24,-279.12L-118.93,-293.66L-109.00,-301.52L-90.66,-312.86L-80.70,-317.18L-69.49,-320.06L-46.29,-319.36L-31.20,-317.47L12.66,-303.48L21.32,-299.06L40.54,-284.51L62.62,-260.52L80.58,-231.92L87.39,-222.60L91.70,-214.41L96.78,-199.78L102.74,-176.52L104.17,-164.05L104.02,-154.27L98.41,-117.43L85.89,-71.28L76.15,-47.10L65.72,-16.98L56.57,0.85L47.20,16.09L42.96,20.28L39.43,22.07L32.06,24.40L24.89,24.02L-4.26,19.10L-12.80,16.86L-28.74,11.65L-41.67,6.11L-66.49,-6.12L-74.83,-9.29L-80.26,-13.21L-94.69,-26.33L-123.26,-56.64L-136.90,-77.04L-151.73,-105.55L-159.11,-122.25L-160.92,-129.31L-161.61,-140.65L-158.21,-163.65L-156.84,-179.05L-153.99,-188.63L-144.75,-209.59L-136.92,-222.22L-130.21,-230.58L-96.32,-267.59L-84.42,-278.16L-68.37,-289.80L-52.61,-297.38L-41.92,-300.56L-29.65,-301.05L-23.40,-299.11L-8.80,-292.23L-0.34,-286.87L15.64,-274.59L27.66,-263.95L43.05,-247.09L49.66,-236.83L63.35,-207.59L70.65,-186.00L77.47,-159.42L80.40,-137.60L78.74,-119.91L72.39,-103.23L66.17,-82.61L56.93,-61.65L38.08,-31.59L21.25,-10.90L15.98,-5.56L11.73,-3.15L6.43,-1.35L-1.05,-1.20L-13.56,-5.08L-23.79,-12.19L-44.49,-30.79L-66.06,-56.24L-91.87,-94.78L-119.43,-129.77L-123.62,-135.77L-127.63,-146.25L-128.51,-153.11L-126.91,-164.14L-121.12,-188.20L-117.43,-196.23L-108.97,-208.13L-101.12,-217.23L-88.30,-231.14L-75.37,-242.86L-66.78,-249.04L-53.82,-255.46L-36.79,-259.83L-27.22,-258.74L-21.38,-256.70L-9.20,-254.06L-1.16,-248.60L10.04,-235.98L21.18,-216.70L26.97,-204.46L31.75,-187.54L34.43,-173.62L36.53,-153.35L34.03,-100.93L33.05,-90.94L30.20,-79.59L25.90,-68.75L19.92,-59.25L15.47,-55.89L0.02,-48.83L-9.84,-45.86L-21.20,-48.71L-30.80,-55.10L-41.47,-65.64L-51.52,-77.23L-77.32,-114.00L-84.37,-127.68L-93.59,-156.75L-94.70,-169.74L-93.70,-176.19L-89.93,-189.11L-84.18,-201.21L-77.38,-212.69L-70.57,-222.40L-65.92,-226.69L-57.85,-233.19L-49.55,-237.08L-42.18,-239.41L-35.00,-239.04L-27.92,-237.31L-22.29,-234.33L-15.49,-228.55L-10.26,-221.92L-3.54,-211.25L1.32,-199.22L6.44,-177.51L10.56,-147.59L11.53,-124.82L9.60,-82.27L6.36,-67.28L4.51,-62.38L1.63,-58.10L-0.34,-57.15L-2.94,-56.93L-5.86,-57.95L-13.28,-64.46L-29.10,-84.75L-39.73,-105.48L-42.58,-113.16L-48.34,-137.36L-49.58,-154.30L-49.05,-169.49L-46.04,-188.85L-42.28,-203.54L-37.97,-212.61L-35.59,-215.43L-33.62,-216.38L-28.00,-215.16L-21.32,-211.56L-15.36,-205.57L-10.11,-197.17L-5.88,-185.86L-2.58,-172.99L-1.23,-155.63L-1.57,-124.12L-1.94,-116.94L-3.88,-110.69L-6.79,-109.94L-7.94,-110.98L-12.67,-119.06L-19.55,-140.75L-22.43,-171.00L-20.84,-182.03" />
      </g>
      <g id="f6" style="--index:6; opacity:0;" class="frame">
        <path d="M127.25,255.46L111.57,279.41L106.80,289.06L101.57,302.08L101.68,309.81L93.35,298.21L91.79,294.89L90.38,288.67L91.05,280.77L94.69,269.74L102.74,260.17L111.37,254.96L121.47,252.68L127.25,255.46" />
        <path d="M127.25,255.46L127.25,255.46" />
        <path d="M41.74,9.37L43.62,15.89L42.20,34.98L41.35,67.43L38.47,103.59L38.18,120.40L40.83,168.38L43.65,188.16L46.94,204.57L47.40,213.85L51.37,213.37L63.52,218.38L87.31,226.09L115.88,231.49L132.09,236.41L137.80,240.02L135.86,240.46L129.80,251.62L127.25,255.46L126.23,255.69" />
        <path d="M-14.46,-53.53L-14.46,-53.53" />
        <path d="M-14.46,-53.53L-14.46,-53.53" />
        <path d="M-14.69,-56.13L-14.46,-53.53L-14.69,-56.13" />
        <path d="M-14.69,-56.13L-14.69,-56.13" />
        <path d="M-15.02,-59.15L-14.69,-56.13L-15.02,-59.15" />
        <path d="M35.70,42.05L32.41,48.21L16.45,56.73L9.08,59.06L-4.13,59.34L-10.58,58.34L-20.69,55.18L-28.51,50.54L-34.46,48.08L-49.39,38.19L-62.74,30.99L-71.82,24.90L-90.53,8.90L-100.26,-1.45L-136.97,-35.86L-155.10,-59.98L-173.18,-92.53L-175.39,-97.72L-180.17,-114.64L-181.26,-122.33L-181.21,-132.52L-179.70,-140.43L-177.36,-148.56L-172.92,-172.71L-162.72,-205.43L-150.72,-234.62L-144.76,-245.88L-124.44,-275.43L-107.39,-293.52L-94.77,-304.72L-83.79,-311.96L-71.14,-317.86L-61.58,-320.31L-54.10,-320.46L-46.81,-319.67L-43.37,-318.34L-20.30,-302.56L1.70,-292.71L9.42,-288.49L20.70,-280.76L33.15,-268.46L42.76,-260.30L48.52,-253.36L71.29,-219.80L76.76,-208.81L81.31,-196.26L90.13,-163.55L93.53,-133.00L93.40,-119.68L85.71,-84.07L72.40,-47.91L61.83,-25.28L51.63,-8.06L41.63,6.45L35.74,12.83L30.25,17.34L22.17,22.06L18.02,23.13L8.96,22.35L-6.98,17.14L-30.44,6.77L-55.16,-6.81L-74.89,-19.90L-87.54,-31.26L-109.31,-54.01L-121.87,-68.50L-128.06,-77.09L-133.32,-87.26L-139.87,-104.17L-146.91,-117.85L-150.10,-128.55L-151.08,-135.82L-150.64,-149.65L-148.93,-160.27L-135.51,-194.25L-119.87,-223.05L-96.27,-258.75L-89.35,-268.05L-83.26,-275.36L-73.64,-284.47L-67.74,-289.08L-54.58,-296.43L-44.72,-299.40L-38.58,-299.65L-29.94,-296.99L-23.89,-294.12L-16.05,-287.72L-0.14,-270.55L16.72,-249.64L29.43,-229.44L39.07,-215.97L48.39,-205.53L52.18,-197.64L59.98,-162.02L64.16,-123.26L63.63,-108.07L60.31,-88.19L56.66,-73.09L53.79,-65.27L35.28,-30.43L31.88,-24.69L27.75,-20.09L19.77,-14.94L7.35,-4.68L2.58,-2.57L-4.28,-1.70L-18.44,-5.15L-27.94,-11.13L-34.43,-17.43L-56.00,-42.89L-66.36,-53.96L-85.64,-79.11L-92.97,-86.97L-101.77,-98.88L-106.93,-108.63L-108.93,-112.98L-112.55,-127.10L-113.87,-158.19L-113.10,-167.24L-107.08,-186.93L-103.08,-197.25L-91.47,-221.03L-78.90,-241.07L-73.64,-248.17L-63.92,-258.63L-59.26,-261.15L-48.46,-263.92L-35.98,-263.58L-30.56,-261.43L-22.83,-255.44L-17.39,-249.75L-9.31,-237.22L-0.25,-217.41L7.07,-194.05L12.50,-172.87L21.87,-117.29L22.59,-100.65L18.83,-68.70L16.60,-58.40L12.29,-49.32L2.16,-38.76L-1.26,-36.56L-5.84,-37.15L-23.67,-44.54L-25.86,-46.19L-48.21,-79.85L-55.25,-91.77L-59.14,-100.07L-67.81,-123.52L-73.44,-143.76L-74.52,-151.45L-75.24,-166.32L-73.83,-191.91L-72.74,-201.48L-70.31,-212.73L-65.69,-222.32L-55.88,-234.13L-52.15,-236.86L-47.38,-238.97L-43.74,-238.57L-42.06,-237.23L-38.82,-233.19L-35.35,-226.56L-28.43,-199.56L-25.87,-172.33L-23.41,-107.45L-19.09,-80.23L-15.02,-59.15L-14.52,-81.40L-15.00,-91.90L-16.30,-100.42" />
      </g>
      <g id="f7" style="--index:7; opacity:0;" class="frame">
        <path d="M34.52,8.14L33.86,19.72L28.13,37.75L21.00,53.23L2.70,87.97L-7.90,111.59L-15.40,130.84L-23.10,154.62L-26.31,167.59L-28.94,181.25L-28.82,192.65L-26.55,202.75L-24.24,207.54L-22.30,207.10L-17.03,208.77L1.35,216.06L39.03,232.88L82.59,254.10L91.25,259.90L98.44,266.45L96.20,267.36L93.70,270.78L79.28,300.98L73.64,310.41L67.58,317.90L63.23,322.15L56.54,326.92L51.67,328.83L50.03,328.80L48.51,327.50L45.82,322.80L43.67,311.45L45.58,300.00L49.14,292.25L55.25,283.12L61.67,277.18L65.85,275.83L71.34,276.64L76.49,279.56L76.54,281.59L75.46,282.24L75.64,283.02" />
        <path d="M-36.92,-192.96L-36.92,-192.96" />
        <path d="M32.43,34.48L29.75,37.83L24.47,41.39L-0.53,52.67L-6.34,54.16L-35.77,55.06L-48.67,53.05L-54.51,51.01L-60.04,48.44L-81.75,34.53L-103.06,18.74L-119.50,-0.50L-128.91,-9.60L-136.98,-20.37L-148.97,-42.97L-162.41,-64.31L-170.94,-83.81L-184.20,-109.63L-188.21,-120.11L-190.27,-133.30L-187.95,-163.99L-183.70,-183.67L-179.20,-197.22L-175.00,-206.71L-165.85,-224.54L-149.26,-251.37L-125.92,-279.48L-109.07,-296.63L-96.35,-307.42L-79.57,-319.69L-69.83,-324.84L-57.47,-328.45L-51.54,-327.75L-27.58,-320.62L-19.65,-315.57L2.40,-298.64L16.06,-291.96L20.34,-289.08L48.66,-264.91L59.86,-254.05L66.67,-244.73L72.87,-234.37L86.88,-203.88L93.21,-187.80L97.68,-170.35L99.41,-160.17L100.30,-132.52L99.22,-121.17L96.79,-109.93L88.01,-82.01L61.71,-27.46L53.16,-14.21L42.82,-2.70L35.29,7.63L28.67,12.87L15.50,20.23L7.72,22.67L-0.99,26.67L-11.38,29.33L-26.99,27.14L-41.99,22.13L-53.06,15.23L-62.35,8.31L-74.35,1.21L-91.30,-14.81L-103.34,-28.99L-118.82,-44.50L-134.32,-63.54L-140.73,-74.73L-145.68,-85.41L-148.98,-98.29L-150.33,-115.65L-149.35,-142.90L-146.64,-159.97L-139.74,-188.30L-132.46,-206.54L-109.81,-245.98L-100.02,-259.56L-88.76,-272.63L-83.90,-277.85L-70.03,-289.38L-58.21,-295.06L-46.17,-298.15L-34.72,-296.65L-25.12,-292.03L-18.76,-287.91L5.31,-263.09L22.40,-239.59L31.85,-223.42L37.33,-212.43L45.67,-190.22L56.72,-150.56L59.32,-133.52L58.89,-117.92L57.80,-108.35L55.16,-97.93L49.65,-79.70L37.46,-47.81L24.49,-25.89L11.78,-11.57L4.65,-4.87L-3.85,-0.04L-12.58,2.20L-17.36,2.54L-27.45,1.14L-38.82,-3.47L-47.59,-10.08L-57.63,-19.90L-78.88,-44.11L-93.89,-66.38L-107.35,-93.02L-114.96,-112.32L-121.11,-132.88L-122.42,-143.16L-121.76,-154.40L-120.37,-166.26L-116.90,-176.89L-108.04,-192.44L-74.41,-237.35L-69.13,-242.69L-58.89,-251.07L-47.60,-258.83L-43.03,-260.00L-39.49,-260.02L-36.05,-258.69L-14.65,-244.26L-7.85,-236.70L3.59,-202.45L9.97,-177.53L17.54,-129.01L20.33,-95.65L19.19,-77.65L18.18,-72.96L14.48,-64.93L3.95,-52.50L-8.36,-41.82L-17.38,-37.29L-24.03,-35.59L-26.73,-35.78L-34.97,-38.54L-41.44,-43.08L-46.47,-48.87L-52.45,-58.40L-61.93,-78.11L-69.43,-98.76L-74.23,-119.22L-76.43,-139.90L-76.75,-158.41L-72.95,-185.05L-67.03,-203.39L-65.18,-206.52L-59.29,-212.90L-55.04,-215.32L-44.65,-217.98L-39.46,-218.42L-34.36,-217.52L-30.08,-214.63L-25.46,-208.73L-18.20,-194.21L-11.09,-169.92L-7.33,-96.52L-7.43,-77.91L-9.09,-58.45L-10.74,-56.26L-15.23,-59.98L-20.05,-66.71L-30.05,-86.72L-37.34,-106.54L-42.66,-127.31L-44.44,-146.33L-44.41,-158.29L-43.43,-168.28L-40.51,-184.52L-37.84,-191.39L-36.92,-192.96L-36.28,-190.47L-36.77,-185.47" />
      </g>
    </g>
    <g id="t2" transform="translate(-480.69 -65.92)" class="thread">
      <g id="f0" style="--index:0; opacity:1;" class="frame">
        <path d="M-215.32,-398.07L-213.62,-391.42L-210.89,-387.70L-208.70,-386.04L-202.51,-377.45L-196.25,-373.74L-193.76,-374.38L-191.92,-379.28L-192.04,-383.23L-194.92,-394.44L-200.81,-405.33L-204.97,-406.03L-208.39,-403.83L-209.20,-400.08L-207.69,-390.73" />
      </g>
      <g id="f1" style="--index:1; opacity:0;" class="frame">
        <path d="M-209.82,-418.07L-211.46,-414.11L-211.34,-410.16L-205.90,-387.20L-204.63,-383.99L-199.61,-378.19L-193.25,-375.84L-190.96,-375.54L-187.64,-376.39L-186.19,-377.65L-184.86,-381.09L-184.91,-389.93L-190.44,-411.53L-194.75,-419.72L-197.47,-421.68L-204.53,-419.87L-205.85,-414.66" />
      </g>
      <g id="f2" style="--index:2; opacity:0;" class="frame">
        <path d="M-219.31,-405.01L-224.07,-401.14L-225.20,-398.63L-225.40,-395.93L-223.69,-389.28L-213.84,-376.76L-208.51,-371.49L-205.90,-369.94L-200.28,-368.73L-194.77,-369.70L-191.98,-372.62L-191.72,-381.98L-193.32,-388.21L-197.63,-396.40L-203.71,-404.58L-206.63,-405.61L-209.54,-404.86L-212.64,-401.41" />
      </g>
      <g id="f3" style="--index:3; opacity:0;" class="frame">
        <path d="M-205.51,-409.88L-208.09,-406.12L-208.38,-402.06L-205.71,-389.91L-199.09,-379.65L-193.55,-373.55L-191.04,-372.42L-188.55,-373.06L-187.32,-375.15L-186.75,-385.03L-189.21,-396.35L-191.74,-402.78L-196.68,-411.70L-198.77,-412.93L-201.26,-412.29L-206.94,-405.09" />
      </g>
    </g>
    <g id="t3" transform="translate(-480.69 -65.92)" class="thread">
      <g id="f0" style="--index:0; opacity:1;" class="frame">
        <path d="M-220.86,-385.14L-217.60,-379.34L-214.99,-377.79L-215.01,-381.33L-218.20,-392.02L-219.24,-392.64L-221.32,-392.11L-221.72,-390.23L-220.86,-385.14" />
        <path d="M-222.27,-394.08L-222.23,-388.77L-219.06,-379.85L-215.91,-374.46L-214.24,-373.12L-213.41,-373.33L-214.59,-379.67L-217.42,-383.81" />
      </g>
      <g id="f1" style="--index:1; opacity:0;" class="frame">
        <path d="M-226.80,-386.48L-224.59,-382.41L-218.93,-375.90L-215.91,-374.46L-214.14,-374.47L-215.23,-382.16L-218.17,-386.72L-221.62,-389.82L-224.53,-390.84L-227.12,-388.85L-226.80,-386.48" />
        <path d="M-228.38,-390.30L-225.94,-382.51L-224.47,-380.23L-221.77,-380.04L-221.36,-381.91" />
      </g>
      <g id="f2" style="--index:2; opacity:0;" class="frame">
        <path d="M-221.31,-374.76L-219.17,-375.41L-220.21,-383.99L-222.54,-387.88L-224.29,-388.00L-224.56,-384.47L-223.60,-379.65L-221.31,-374.76" />
        <path d="M-225.62,-383.09L-223.36,-376.22L-219.79,-373.24L-218.10,-372.53L-216.72,-373.38L-216.56,-376.80L-217.31,-381.00L-218.71,-383.31L-221.22,-383.70L-221.60,-382.74L-220.66,-379.56" />
      </g>
      <g id="f3" style="--index:3; opacity:0;" class="frame">
        <path d="M-214.39,-374.53L-213.02,-372.18L-211.19,-371.20L-211.31,-378.51L-213.92,-387.75L-215.76,-390.30L-217.34,-390.46L-218.58,-387.98L-218.19,-380.73L-216.57,-375.05L-214.39,-374.53" />
        <path d="M-217.57,-383.00L-214.26,-374.55L-213.66,-378.72L-214.93,-385.53L-216.83,-385.44L-217.57,-383.00" />
        <path d="M-218.59,-386.05L-217.57,-381.42" />
      </g>
    </g>
  </g>
</svg>