<?xml version="1.0" encoding="utf-8"?>
<svg width="1366" height="1024" viewBox="-683 -512 1366 1024" xmlns="http://www.w3.org/2000/svg">
  <style>
svg { background-color:#C5CFBA; }

#looom {
--version:2; --tempo:120; --musicTime:0; 
}

#t0 {
--visible:1; --timeOffset:0.8; --speed:10; --bookmarkIndex:-1; --latched:0; --playMode:0; --masked:0; --blendMode:0; --pressureEnabled:0; 
fill:#002BC8; stroke-opacity:0; fill-opacity:0.3285876; stroke-width:10; stroke-linecap:round; stroke-linejoin:round;
}
@keyframes t0 { 0% { opacity: 1; } 12.5% { opacity: 0; } }
#t0 .frame { animation:t0 0.8s calc(var(--index) * 0.1s) steps(1) infinite; }

#t1 {
--visible:1; --timeOffset:0.8; --speed:10; --bookmarkIndex:-1; --latched:0; --playMode:0; --masked:0; --blendMode:0; --pressureEnabled:0; 
fill:#4BABD1; stroke-opacity:0; fill-opacity:1; stroke-width:10; stroke-linecap:round; stroke-linejoin:round;
}
@keyframes t1 { 0% { opacity: 1; } 12.5% { opacity: 0; } }
#t1 .frame { animation:t1 0.8s calc(var(--index) * 0.1s) steps(1) infinite; }

#t2 {
--visible:1; --timeOffset:0.8; --speed:10; --bookmarkIndex:-1; --latched:0; --playMode:0; --masked:0; --blendMode:0; --pressureEnabled:0; 
stroke:#FFFFFF; stroke-opacity:1; fill-opacity:0; stroke-width:3.623451; stroke-linecap:round; stroke-linejoin:round;
}
@keyframes t2 { 0% { opacity: 1; } 12.5% { opacity: 0; } }
#t2 .frame { animation:t2 0.8s calc(var(--index) * 0.1s) steps(1) infinite; }

</style>
  <g id="w0" transform="translate(-169.25 52.50) scale(0.90 0.90) rotate(-350.82)" class="weave">
    <g id="t0" transform="translate(537.81 178.96) scale(1.17 1.17) rotate(-1.20)" class="thread">
      <g id="f0" transform="translate(-289.63 -109.74)" style="--index:0; opacity:1;" class="frame">
        <path d="M-108.00,-152.50L-98.50,-150.00L-90.50,-150.00L-82.00,-151.50L-66.50,-156.50L-57.50,-162.00L-54.50,-166.00L-54.50,-171.00L-59.50,-178.50L-62.50,-181.00L-67.50,-183.00L-78.50,-185.00L-94.00,-185.00L-101.50,-182.50L-109.50,-176.50L-116.00,-166.50L-117.00,-162.00L-117.00,-156.50L-115.50,-154.50L-112.00,-152.50L-103.50,-151.00" />
        <path d="M43.50,6.50L47.50,10.00L69.50,9.50L77.00,8.50L86.00,5.50L89.00,3.00L93.50,-2.00L95.00,-8.50L94.00,-12.00L90.00,-17.00L79.50,-24.50L71.00,-27.00L65.50,-27.50L55.50,-27.00L49.00,-25.00L41.50,-20.50L34.50,-13.50L31.00,-7.50L30.00,-4.00L30.50,-1.00L35.50,6.00L40.50,9.00L44.00,9.50" />
      </g>
      <g id="f1" transform="translate(-289.63 -109.74)" style="--index:1; opacity:0;" class="frame">
        <path d="M-59.00,-160.50L-53.50,-155.00L-43.50,-152.00L-23.50,-152.00L-16.50,-153.00L-13.50,-155.00L-10.50,-159.50L-9.50,-165.00L-9.00,-174.50L-12.00,-184.00L-18.50,-192.00L-25.50,-197.00L-29.00,-198.00L-34.00,-199.00L-47.50,-199.00L-55.50,-195.50L-61.50,-189.00L-64.50,-182.50L-66.00,-173.00L-66.00,-168.00L-66.00,-160.50L-65.00,-157.50L-61.50,-156.00L-55.50,-155.50" />
        <path d="M-8.00,3.00L-4.00,6.50L4.50,10.00L9.50,11.00L17.50,11.00L25.00,8.00L28.50,5.50L35.00,-3.50L37.50,-12.00L37.50,-22.50L35.00,-28.50L32.00,-33.00L23.00,-42.00L15.00,-46.50L10.50,-48.00L0.50,-48.50L-5.00,-46.50L-15.00,-40.00L-21.00,-32.50L-24.00,-24.50L-24.50,-11.00L-23.00,-7.00L-20.00,-2.50L-16.00,0.50L-12.50,1.50" />
      </g>
      <g id="f2" transform="translate(-289.63 -109.74)" style="--index:2; opacity:0;" class="frame">
        <path d="M-19.50,-161.00L-14.00,-158.50L-2.50,-158.00L1.00,-158.50L23.00,-164.00L33.50,-168.00L38.00,-173.50L38.00,-178.50L34.50,-184.00L30.00,-187.00L21.00,-190.50L1.00,-192.50L-8.00,-191.50L-19.00,-188.50L-23.00,-186.50L-28.50,-181.50L-32.00,-175.50L-32.50,-169.00L-31.50,-166.50L-29.50,-165.00L-22.00,-163.00L-15.00,-163.00" />
        <path d="M-63.50,-20.50L-59.00,-16.00L-52.50,-15.00L-44.50,-14.00L-31.50,-14.00L-21.50,-15.00L-13.50,-18.00L-8.00,-21.50L-5.00,-25.00L-4.50,-29.50L-5.50,-32.00L-7.50,-34.00L-13.50,-37.50L-21.50,-41.00L-35.00,-45.00L-48.50,-46.50L-59.50,-46.50L-65.00,-45.50L-71.50,-43.50L-80.00,-39.50L-86.50,-34.00L-88.00,-30.50L-88.00,-28.00L-85.50,-24.50L-83.00,-23.00L-62.50,-15.50" />
      </g>
      <g id="f3" transform="translate(-289.63 -109.74)" style="--index:3; opacity:0;" class="frame">
        <path d="M23.00,-180.00L24.00,-166.50L26.00,-160.00L30.00,-152.00L36.50,-144.00L41.50,-139.50L49.00,-136.50L56.00,-137.50L59.00,-139.00L65.50,-145.50L69.00,-150.50L73.50,-161.00L75.00,-172.00L74.50,-181.00L73.00,-186.00L69.00,-194.00L63.00,-201.50L61.00,-203.50L56.50,-205.50L52.00,-206.00L42.50,-205.00L35.00,-201.50L29.50,-196.50L27.50,-194.00L24.50,-187.00L23.50,-177.50" />
        <path d="M-107.50,-21.50L-103.00,-16.00L-100.00,-14.50L-96.50,-14.00L-94.50,-14.00L-89.50,-16.00L-84.50,-19.50L-77.50,-28.50L-73.00,-42.50L-72.50,-50.50L-73.00,-54.00L-77.50,-63.50L-81.00,-67.00L-87.00,-70.50L-97.50,-75.00L-107.00,-77.00L-112.00,-76.50L-119.50,-72.50L-125.50,-65.50L-129.50,-57.00L-132.50,-46.50L-134.00,-30.50L-130.50,-23.00L-124.00,-16.50L-114.50,-15.00L-107.50,-16.50" />
      </g>
      <g id="f4" transform="translate(-289.63 -109.74)" style="--index:4; opacity:0;" class="frame">
        <path d="M62.00,-174.00L66.00,-170.50L76.00,-170.50L94.50,-174.00L110.00,-178.00L119.00,-181.50L125.00,-186.00L126.50,-189.50L126.50,-193.00L123.00,-195.50L120.00,-196.50L106.50,-199.50L86.50,-199.00L75.00,-195.50L66.50,-191.00L62.50,-186.50L60.00,-181.50L60.00,-177.50L61.00,-176.00L65.50,-174.00L81.50,-173.50" />
        <path d="M-182.50,-26.00L-175.00,-22.50L-156.50,-21.50L-145.00,-22.50L-135.50,-25.50L-128.00,-30.50L-125.00,-33.00L-119.50,-40.00L-118.50,-44.00L-125.50,-47.50L-141.00,-49.00L-165.00,-50.00L-179.00,-49.50L-185.00,-47.50L-189.50,-45.00L-193.50,-40.00L-193.50,-35.00L-191.50,-29.00L-188.00,-24.50L-184.50,-22.50" />
      </g>
      <g id="f5" transform="translate(-289.63 -109.74)" style="--index:5; opacity:0;" class="frame">
        <path d="M126.50,-208.50L123.00,-201.50L123.50,-171.50L127.00,-145.00L129.00,-139.50L131.50,-137.00L136.00,-137.50L140.00,-142.00L144.00,-149.00L147.00,-156.50L149.00,-164.50L150.00,-174.50L150.00,-186.50L149.00,-193.50L147.00,-201.00L143.50,-209.00L140.00,-214.50L136.00,-217.50L133.00,-218.00L130.00,-214.00L129.50,-211.50L129.50,-192.50" />
        <path d="M-183.50,-7.50L-179.50,-12.00L-177.00,-20.00L-176.00,-28.00L-176.00,-41.50L-179.00,-60.50L-185.00,-75.00L-188.50,-78.50L-191.50,-79.00L-192.50,-78.50L-194.00,-75.50L-195.50,-70.00L-197.00,-60.00L-197.50,-47.50L-197.50,-10.00L-196.00,0.50L-191.50,8.50L-189.50,8.50L-187.50,7.00L-183.50,-1.00L-182.50,-6.00" />
      </g>
      <g id="f6" transform="translate(-289.63 -109.74)" style="--index:6; opacity:0;" class="frame">
        <path d="M-189.00,-132.50L-186.50,-129.50L-183.00,-127.00L-173.50,-125.50L-169.00,-126.50L-160.50,-132.00L-156.50,-137.50L-155.00,-140.50L-152.00,-154.00L-152.00,-166.50L-153.00,-172.00L-156.50,-181.50L-160.00,-187.00L-168.00,-196.00L-174.50,-200.00L-179.00,-201.50L-186.00,-201.00L-193.00,-197.00L-197.50,-190.00L-201.00,-178.00L-201.50,-162.50L-198.50,-146.50L-196.50,-140.00L-194.50,-136.50L-193.00,-134.50L-189.00,-132.50" />
        <path d="M-191.00,-138.50L-189.00,-132.50L-186.00,-129.50L-183.50,-124.00" />
        <path d="M130.50,-49.50L144.50,-44.00L148.00,-41.50L155.50,-32.00L165.00,-13.00L166.50,0.00L166.00,4.00L162.00,11.50L156.00,17.50L148.50,22.00L144.00,23.50L139.50,24.00L127.50,23.50L116.50,18.00L113.50,15.00L108.50,8.00L106.00,0.00L104.50,-11.50L104.50,-20.50L106.50,-28.50L110.00,-37.00L113.00,-41.00L121.00,-43.00L128.00,-43.50L129.50,-40.50" />
      </g>
      <g id="f7" transform="translate(-289.63 -109.74)" style="--index:7; opacity:0;" class="frame">
        <path d="M-152.50,-143.00L-146.50,-141.00L-137.50,-141.00L-114.00,-146.00L-106.50,-150.50L-100.50,-159.00L-98.50,-164.00L-98.50,-171.50L-100.50,-176.50L-103.50,-180.50L-107.00,-183.00L-110.50,-184.00L-131.50,-185.00L-140.50,-184.50L-147.50,-181.00L-156.00,-171.00L-159.00,-165.00L-159.50,-160.00L-159.00,-154.00L-157.00,-150.50L-153.50,-148.50L-149.50,-143.00" />
        <path d="M77.00,-2.00L82.00,0.00L90.00,1.00L99.50,1.00L120.50,-2.50L127.00,-5.50L136.50,-12.50L141.50,-18.50L142.00,-21.50L141.50,-22.50L137.50,-25.00L120.00,-31.00L101.50,-31.50L88.50,-29.00L81.00,-26.00L75.00,-22.50L72.50,-20.50L68.50,-15.00L68.50,-10.00L77.50,-1.50" />
      </g>
    </g>
    <g id="t1" transform="translate(475.29 183.99) scale(1.22 1.22) rotate(-0.86)" class="thread">
      <g id="f0" transform="translate(-237.92 -109.60)" style="--index:0; opacity:1;" class="frame">
        <path d="M-108.00,-152.50L-98.50,-150.00L-90.50,-150.00L-82.00,-151.50L-66.50,-156.50L-57.50,-162.00L-54.50,-166.00L-54.50,-171.00L-59.50,-178.50L-62.50,-181.00L-67.50,-183.00L-78.50,-185.00L-94.00,-185.00L-101.50,-182.50L-109.50,-176.50L-116.00,-166.50L-117.00,-162.00L-117.00,-156.50L-115.50,-154.50L-112.00,-152.50L-103.50,-151.00" />
        <path d="M43.50,6.50L47.50,10.00L69.50,9.50L77.00,8.50L86.00,5.50L89.00,3.00L93.50,-2.00L95.00,-8.50L94.00,-12.00L90.00,-17.00L79.50,-24.50L71.00,-27.00L65.50,-27.50L55.50,-27.00L49.00,-25.00L41.50,-20.50L34.50,-13.50L31.00,-7.50L30.00,-4.00L30.50,-1.00L35.50,6.00L40.50,9.00L44.00,9.50" />
      </g>
      <g id="f1" transform="translate(-237.92 -109.60)" style="--index:1; opacity:0;" class="frame">
        <path d="M-59.00,-160.50L-53.50,-155.00L-43.50,-152.00L-23.50,-152.00L-16.50,-153.00L-13.50,-155.00L-10.50,-159.50L-9.50,-165.00L-9.00,-174.50L-12.00,-184.00L-18.50,-192.00L-25.50,-197.00L-29.00,-198.00L-34.00,-199.00L-47.50,-199.00L-55.50,-195.50L-61.50,-189.00L-64.50,-182.50L-66.00,-173.00L-66.00,-168.00L-66.00,-160.50L-65.00,-157.50L-61.50,-156.00L-55.50,-155.50" />
        <path d="M-8.00,3.00L-4.00,6.50L4.50,10.00L9.50,11.00L17.50,11.00L25.00,8.00L28.50,5.50L35.00,-3.50L37.50,-12.00L37.50,-22.50L35.00,-28.50L32.00,-33.00L23.00,-42.00L15.00,-46.50L10.50,-48.00L0.50,-48.50L-5.00,-46.50L-15.00,-40.00L-21.00,-32.50L-24.00,-24.50L-24.50,-11.00L-23.00,-7.00L-20.00,-2.50L-16.00,0.50L-12.50,1.50" />
      </g>
      <g id="f2" transform="translate(-237.92 -109.60)" style="--index:2; opacity:0;" class="frame">
        <path d="M-19.50,-161.00L-14.00,-158.50L-2.50,-158.00L1.00,-158.50L23.00,-164.00L33.50,-168.00L38.00,-173.50L38.00,-178.50L34.50,-184.00L30.00,-187.00L21.00,-190.50L1.00,-192.50L-8.00,-191.50L-19.00,-188.50L-23.00,-186.50L-28.50,-181.50L-32.00,-175.50L-32.50,-169.00L-31.50,-166.50L-29.50,-165.00L-22.00,-163.00L-15.00,-163.00" />
        <path d="M-63.50,-20.50L-59.00,-16.00L-52.50,-15.00L-44.50,-14.00L-31.50,-14.00L-21.50,-15.00L-13.50,-18.00L-8.00,-21.50L-5.00,-25.00L-4.50,-29.50L-5.50,-32.00L-7.50,-34.00L-13.50,-37.50L-21.50,-41.00L-35.00,-45.00L-48.50,-46.50L-59.50,-46.50L-65.00,-45.50L-71.50,-43.50L-80.00,-39.50L-86.50,-34.00L-88.00,-30.50L-88.00,-28.00L-85.50,-24.50L-83.00,-23.00L-62.50,-15.50" />
      </g>
      <g id="f3" transform="translate(-237.92 -109.60)" style="--index:3; opacity:0;" class="frame">
        <path d="M23.00,-180.00L24.00,-166.50L26.00,-160.00L30.00,-152.00L36.50,-144.00L41.50,-139.50L49.00,-136.50L56.00,-137.50L59.00,-139.00L65.50,-145.50L69.00,-150.50L73.50,-161.00L75.00,-172.00L74.50,-181.00L73.00,-186.00L69.00,-194.00L63.00,-201.50L61.00,-203.50L56.50,-205.50L52.00,-206.00L42.50,-205.00L35.00,-201.50L29.50,-196.50L27.50,-194.00L24.50,-187.00L23.50,-177.50" />
        <path d="M-107.50,-21.50L-103.00,-16.00L-100.00,-14.50L-96.50,-14.00L-94.50,-14.00L-89.50,-16.00L-84.50,-19.50L-77.50,-28.50L-73.00,-42.50L-72.50,-50.50L-73.00,-54.00L-77.50,-63.50L-81.00,-67.00L-87.00,-70.50L-97.50,-75.00L-107.00,-77.00L-112.00,-76.50L-119.50,-72.50L-125.50,-65.50L-129.50,-57.00L-132.50,-46.50L-134.00,-30.50L-130.50,-23.00L-124.00,-16.50L-114.50,-15.00L-107.50,-16.50" />
      </g>
      <g id="f4" transform="translate(-237.92 -109.60)" style="--index:4; opacity:0;" class="frame">
        <path d="M62.00,-174.00L66.00,-170.50L76.00,-170.50L94.50,-174.00L110.00,-178.00L119.00,-181.50L125.00,-186.00L126.50,-189.50L126.50,-193.00L123.00,-195.50L120.00,-196.50L106.50,-199.50L86.50,-199.00L75.00,-195.50L66.50,-191.00L62.50,-186.50L60.00,-181.50L60.00,-177.50L61.00,-176.00L65.50,-174.00L81.50,-173.50" />
        <path d="M-182.50,-26.00L-175.00,-22.50L-156.50,-21.50L-145.00,-22.50L-135.50,-25.50L-128.00,-30.50L-125.00,-33.00L-119.50,-40.00L-118.50,-44.00L-125.50,-47.50L-141.00,-49.00L-165.00,-50.00L-179.00,-49.50L-185.00,-47.50L-189.50,-45.00L-193.50,-40.00L-193.50,-35.00L-191.50,-29.00L-188.00,-24.50L-184.50,-22.50" />
      </g>
      <g id="f5" transform="translate(-237.92 -109.60)" style="--index:5; opacity:0;" class="frame">
        <path d="M126.50,-208.50L123.00,-201.50L123.50,-171.50L127.00,-145.00L129.00,-139.50L131.50,-137.00L136.00,-137.50L140.00,-142.00L144.00,-149.00L147.00,-156.50L149.00,-164.50L150.00,-174.50L150.00,-186.50L149.00,-193.50L147.00,-201.00L143.50,-209.00L140.00,-214.50L136.00,-217.50L133.00,-218.00L130.00,-214.00L129.50,-211.50L129.50,-192.50" />
        <path d="M-183.50,-7.50L-179.50,-12.00L-177.00,-20.00L-176.00,-28.00L-176.00,-41.50L-179.00,-60.50L-185.00,-75.00L-188.50,-78.50L-191.50,-79.00L-192.50,-78.50L-194.00,-75.50L-195.50,-70.00L-197.00,-60.00L-197.50,-47.50L-197.50,-10.00L-196.00,0.50L-191.50,8.50L-189.50,8.50L-187.50,7.00L-183.50,-1.00L-182.50,-6.00" />
      </g>
      <g id="f6" transform="translate(-237.92 -109.60)" style="--index:6; opacity:0;" class="frame">
        <path d="M-189.00,-132.50L-186.50,-129.50L-183.00,-127.00L-173.50,-125.50L-169.00,-126.50L-160.50,-132.00L-156.50,-137.50L-155.00,-140.50L-152.00,-154.00L-152.00,-166.50L-153.00,-172.00L-156.50,-181.50L-160.00,-187.00L-168.00,-196.00L-174.50,-200.00L-179.00,-201.50L-186.00,-201.00L-193.00,-197.00L-197.50,-190.00L-201.00,-178.00L-201.50,-162.50L-198.50,-146.50L-196.50,-140.00L-194.50,-136.50L-193.00,-134.50L-189.00,-132.50" />
        <path d="M-191.00,-138.50L-189.00,-132.50L-186.00,-129.50L-183.50,-124.00" />
        <path d="M130.50,-49.50L144.50,-44.00L148.00,-41.50L155.50,-32.00L165.00,-13.00L166.50,0.00L166.00,4.00L162.00,11.50L156.00,17.50L148.50,22.00L144.00,23.50L139.50,24.00L127.50,23.50L116.50,18.00L113.50,15.00L108.50,8.00L106.00,0.00L104.50,-11.50L104.50,-20.50L106.50,-28.50L110.00,-37.00L113.00,-41.00L121.00,-43.00L128.00,-43.50L129.50,-40.50" />
      </g>
      <g id="f7" transform="translate(-237.92 -109.60)" style="--index:7; opacity:0;" class="frame">
        <path d="M-152.50,-143.00L-146.50,-141.00L-137.50,-141.00L-114.00,-146.00L-106.50,-150.50L-100.50,-159.00L-98.50,-164.00L-98.50,-171.50L-100.50,-176.50L-103.50,-180.50L-107.00,-183.00L-110.50,-184.00L-131.50,-185.00L-140.50,-184.50L-147.50,-181.00L-156.00,-171.00L-159.00,-165.00L-159.50,-160.00L-159.00,-154.00L-157.00,-150.50L-153.50,-148.50L-149.50,-143.00" />
        <path d="M77.00,-2.00L82.00,0.00L90.00,1.00L99.50,1.00L120.50,-2.50L127.00,-5.50L136.50,-12.50L141.50,-18.50L142.00,-21.50L141.50,-22.50L137.50,-25.00L120.00,-31.00L101.50,-31.50L88.50,-29.00L81.00,-26.00L75.00,-22.50L72.50,-20.50L68.50,-15.00L68.50,-10.00L77.50,-1.50" />
      </g>
    </g>
    <g id="t2" transform="translate(475.29 183.99) scale(1.22 1.22) rotate(-0.86)" class="thread">
      <g id="f0" transform="translate(-237.92 -109.60)" style="--index:0; opacity:1;" class="frame">
        <path d="M-108.00,-152.50L-98.50,-150.00L-90.50,-150.00L-82.00,-151.50L-66.50,-156.50L-57.50,-162.00L-54.50,-166.00L-54.50,-171.00L-59.50,-178.50L-62.50,-181.00L-67.50,-183.00L-78.50,-185.00L-94.00,-185.00L-101.50,-182.50L-109.50,-176.50L-116.00,-166.50L-117.00,-162.00L-117.00,-156.50L-115.50,-154.50L-112.00,-152.50L-103.50,-151.00" />
        <path d="M43.50,6.50L47.50,10.00L69.50,9.50L77.00,8.50L86.00,5.50L89.00,3.00L93.50,-2.00L95.00,-8.50L94.00,-12.00L90.00,-17.00L79.50,-24.50L71.00,-27.00L65.50,-27.50L55.50,-27.00L49.00,-25.00L41.50,-20.50L34.50,-13.50L31.00,-7.50L30.00,-4.00L30.50,-1.00L35.50,6.00L40.50,9.00L44.00,9.50" />
      </g>
      <g id="f1" transform="translate(-237.92 -109.60)" style="--index:1; opacity:0;" class="frame">
        <path d="M-59.00,-160.50L-53.50,-155.00L-43.50,-152.00L-23.50,-152.00L-16.50,-153.00L-13.50,-155.00L-10.50,-159.50L-9.50,-165.00L-9.00,-174.50L-12.00,-184.00L-18.50,-192.00L-25.50,-197.00L-29.00,-198.00L-34.00,-199.00L-47.50,-199.00L-55.50,-195.50L-61.50,-189.00L-64.50,-182.50L-66.00,-173.00L-66.00,-168.00L-66.00,-160.50L-65.00,-157.50L-61.50,-156.00L-55.50,-155.50" />
        <path d="M-8.00,3.00L-4.00,6.50L4.50,10.00L9.50,11.00L17.50,11.00L25.00,8.00L28.50,5.50L35.00,-3.50L37.50,-12.00L37.50,-22.50L35.00,-28.50L32.00,-33.00L23.00,-42.00L15.00,-46.50L10.50,-48.00L0.50,-48.50L-5.00,-46.50L-15.00,-40.00L-21.00,-32.50L-24.00,-24.50L-24.50,-11.00L-23.00,-7.00L-20.00,-2.50L-16.00,0.50L-12.50,1.50" />
      </g>
      <g id="f2" transform="translate(-237.92 -109.60)" style="--index:2; opacity:0;" class="frame">
        <path d="M-19.50,-161.00L-14.00,-158.50L-2.50,-158.00L1.00,-158.50L23.00,-164.00L33.50,-168.00L38.00,-173.50L38.00,-178.50L34.50,-184.00L30.00,-187.00L21.00,-190.50L1.00,-192.50L-8.00,-191.50L-19.00,-188.50L-23.00,-186.50L-28.50,-181.50L-32.00,-175.50L-32.50,-169.00L-31.50,-166.50L-29.50,-165.00L-22.00,-163.00L-15.00,-163.00" />
        <path d="M-63.50,-20.50L-59.00,-16.00L-52.50,-15.00L-44.50,-14.00L-31.50,-14.00L-21.50,-15.00L-13.50,-18.00L-8.00,-21.50L-5.00,-25.00L-4.50,-29.50L-5.50,-32.00L-7.50,-34.00L-13.50,-37.50L-21.50,-41.00L-35.00,-45.00L-48.50,-46.50L-59.50,-46.50L-65.00,-45.50L-71.50,-43.50L-80.00,-39.50L-86.50,-34.00L-88.00,-30.50L-88.00,-28.00L-85.50,-24.50L-83.00,-23.00L-62.50,-15.50" />
      </g>
      <g id="f3" transform="translate(-237.92 -109.60)" style="--index:3; opacity:0;" class="frame">
        <path d="M23.00,-180.00L24.00,-166.50L26.00,-160.00L30.00,-152.00L36.50,-144.00L41.50,-139.50L49.00,-136.50L56.00,-137.50L59.00,-139.00L65.50,-145.50L69.00,-150.50L73.50,-161.00L75.00,-172.00L74.50,-181.00L73.00,-186.00L69.00,-194.00L63.00,-201.50L61.00,-203.50L56.50,-205.50L52.00,-206.00L42.50,-205.00L35.00,-201.50L29.50,-196.50L27.50,-194.00L24.50,-187.00L23.50,-177.50" />
        <path d="M-107.50,-21.50L-103.00,-16.00L-100.00,-14.50L-96.50,-14.00L-94.50,-14.00L-89.50,-16.00L-84.50,-19.50L-77.50,-28.50L-73.00,-42.50L-72.50,-50.50L-73.00,-54.00L-77.50,-63.50L-81.00,-67.00L-87.00,-70.50L-97.50,-75.00L-107.00,-77.00L-112.00,-76.50L-119.50,-72.50L-125.50,-65.50L-129.50,-57.00L-132.50,-46.50L-134.00,-30.50L-130.50,-23.00L-124.00,-16.50L-114.50,-15.00L-107.50,-16.50" />
      </g>
      <g id="f4" transform="translate(-237.92 -109.60)" style="--index:4; opacity:0;" class="frame">
        <path d="M62.00,-174.00L66.00,-170.50L76.00,-170.50L94.50,-174.00L110.00,-178.00L119.00,-181.50L125.00,-186.00L126.50,-189.50L126.50,-193.00L123.00,-195.50L120.00,-196.50L106.50,-199.50L86.50,-199.00L75.00,-195.50L66.50,-191.00L62.50,-186.50L60.00,-181.50L60.00,-177.50L61.00,-176.00L65.50,-174.00L81.50,-173.50" />
        <path d="M-182.50,-26.00L-175.00,-22.50L-156.50,-21.50L-145.00,-22.50L-135.50,-25.50L-128.00,-30.50L-125.00,-33.00L-119.50,-40.00L-118.50,-44.00L-125.50,-47.50L-141.00,-49.00L-165.00,-50.00L-179.00,-49.50L-185.00,-47.50L-189.50,-45.00L-193.50,-40.00L-193.50,-35.00L-191.50,-29.00L-188.00,-24.50L-184.50,-22.50" />
      </g>
      <g id="f5" transform="translate(-237.92 -109.60)" style="--index:5; opacity:0;" class="frame">
        <path d="M126.50,-208.50L123.00,-201.50L123.50,-171.50L127.00,-145.00L129.00,-139.50L131.50,-137.00L136.00,-137.50L140.00,-142.00L144.00,-149.00L147.00,-156.50L149.00,-164.50L150.00,-174.50L150.00,-186.50L149.00,-193.50L147.00,-201.00L143.50,-209.00L140.00,-214.50L136.00,-217.50L133.00,-218.00L130.00,-214.00L129.50,-211.50L129.50,-192.50" />
        <path d="M-183.50,-7.50L-179.50,-12.00L-177.00,-20.00L-176.00,-28.00L-176.00,-41.50L-179.00,-60.50L-185.00,-75.00L-188.50,-78.50L-191.50,-79.00L-192.50,-78.50L-194.00,-75.50L-195.50,-70.00L-197.00,-60.00L-197.50,-47.50L-197.50,-10.00L-196.00,0.50L-191.50,8.50L-189.50,8.50L-187.50,7.00L-183.50,-1.00L-182.50,-6.00" />
      </g>
      <g id="f6" transform="translate(-237.92 -109.60)" style="--index:6; opacity:0;" class="frame">
        <path d="M-189.00,-132.50L-186.50,-129.50L-183.00,-127.00L-173.50,-125.50L-169.00,-126.50L-160.50,-132.00L-156.50,-137.50L-155.00,-140.50L-152.00,-154.00L-152.00,-166.50L-153.00,-172.00L-156.50,-181.50L-160.00,-187.00L-168.00,-196.00L-174.50,-200.00L-179.00,-201.50L-186.00,-201.00L-193.00,-197.00L-197.50,-190.00L-201.00,-178.00L-201.50,-162.50L-198.50,-146.50L-196.50,-140.00L-194.50,-136.50L-193.00,-134.50L-189.00,-132.50" />
        <path d="M-191.00,-138.50L-189.00,-132.50L-186.00,-129.50L-183.50,-124.00" />
        <path d="M130.50,-49.50L144.50,-44.00L148.00,-41.50L155.50,-32.00L165.00,-13.00L166.50,0.00L166.00,4.00L162.00,11.50L156.00,17.50L148.50,22.00L144.00,23.50L139.50,24.00L127.50,23.50L116.50,18.00L113.50,15.00L108.50,8.00L106.00,0.00L104.50,-11.50L104.50,-20.50L106.50,-28.50L110.00,-37.00L113.00,-41.00L121.00,-43.00L128.00,-43.50L129.50,-40.50" />
      </g>
      <g id="f7" transform="translate(-237.92 -109.60)" style="--index:7; opacity:0;" class="frame">
        <path d="M-152.50,-143.00L-146.50,-141.00L-137.50,-141.00L-114.00,-146.00L-106.50,-150.50L-100.50,-159.00L-98.50,-164.00L-98.50,-171.50L-100.50,-176.50L-103.50,-180.50L-107.00,-183.00L-110.50,-184.00L-131.50,-185.00L-140.50,-184.50L-147.50,-181.00L-156.00,-171.00L-159.00,-165.00L-159.50,-160.00L-159.00,-154.00L-157.00,-150.50L-153.50,-148.50L-149.50,-143.00" />
        <path d="M77.00,-2.00L82.00,0.00L90.00,1.00L99.50,1.00L120.50,-2.50L127.00,-5.50L136.50,-12.50L141.50,-18.50L142.00,-21.50L141.50,-22.50L137.50,-25.00L120.00,-31.00L101.50,-31.50L88.50,-29.00L81.00,-26.00L75.00,-22.50L72.50,-20.50L68.50,-15.00L68.50,-10.00L77.50,-1.50" />
      </g>
    </g>
  </g>
</svg>